<?xml version="1.0" standalone="no"?>
<!DOCTYPE svg PUBLIC "-//W3C//DTD SVG 20010904//EN"
 "http://www.w3.org/TR/2001/REC-SVG-20010904/DTD/svg10.dtd">
<svg version="1.0" xmlns="http://www.w3.org/2000/svg"
 width="711.000000pt" height="711.000000pt" viewBox="0 0 711.000000 711.000000"
 preserveAspectRatio="xMidYMid meet">

<g transform="translate(0.000000,711.000000) scale(0.100000,-0.100000)"
fill="#000000" stroke="none">
<path d="M2285 7010 c5 -8 27 -42 50 -75 23 -33 48 -71 55 -85 12 -23 12 -24
-3 -11 -9 7 -26 28 -37 46 -11 18 -28 36 -37 40 -13 5 -12 0 5 -18 22 -23 29
-47 14 -47 -5 0 -24 21 -43 47 -19 25 -44 60 -56 77 -32 43 -28 25 8 -40 17
-31 37 -74 44 -97 14 -41 14 -41 -3 -18 -9 13 -23 38 -29 55 -12 29 -13 28
-10 -27 2 -32 1 -60 -3 -62 -4 -2 -15 20 -26 51 -10 30 -29 65 -43 77 l-25 22
22 -31 c29 -42 54 -118 45 -140 -6 -15 -9 -14 -31 12 -21 24 -22 25 -10 4 16
-27 32 -80 24 -80 -3 0 -12 12 -21 28 -16 27 -16 27 -12 2 10 -57 14 -84 10
-70 -12 38 -20 26 -16 -27 2 -33 0 -53 -5 -45 -9 13 -91 -268 -123 -422 -28
-138 -42 -326 -34 -456 3 -63 9 -155 11 -204 2 -49 7 -93 10 -97 3 -5 0 -9 -6
-9 -8 0 -11 -22 -8 -70 2 -47 -1 -70 -8 -70 -8 0 -9 -13 -3 -42 11 -58 11 -70
-1 -63 -12 8 -13 -8 -1 -21 5 -5 12 -19 16 -31 5 -18 2 -23 -11 -23 -13 0 -14
-3 -4 -15 15 -18 7 -19 -23 -4 l-22 12 20 -24 c11 -13 26 -30 34 -36 13 -11
12 -13 -3 -13 -12 0 -16 -5 -12 -15 4 -10 -5 -22 -27 -35 -17 -11 -26 -20 -19
-20 7 0 10 -5 6 -11 -5 -9 1 -10 20 -5 14 3 26 4 26 1 0 -19 -35 -68 -72 -99
-45 -39 -33 -48 20 -16 17 11 32 17 32 14 0 -11 -24 -50 -52 -86 -30 -39 -30
-62 0 -51 11 4 6 -5 -12 -25 -17 -18 -25 -32 -19 -32 7 0 25 17 42 37 40 48
39 37 -4 -53 -42 -86 -84 -134 -156 -175 -30 -17 -46 -28 -37 -25 9 2 34 8 55
12 21 3 52 14 68 23 76 43 77 38 8 -47 -59 -73 -57 -77 15 -24 18 14 34 23 37
21 8 -9 -75 -126 -118 -166 -53 -49 -154 -103 -194 -103 -25 -1 -26 -2 -9 -12
10 -6 62 -13 115 -17 l96 -7 -65 -17 -65 -17 78 4 c42 3 77 1 77 -2 0 -13 -70
-52 -148 -83 -42 -17 -108 -46 -146 -66 -134 -67 -177 -105 -222 -196 -58
-122 -56 -199 13 -412 47 -146 52 -205 24 -281 -102 -271 -123 -348 -125 -440
l-1 -91 58 -116 c63 -127 139 -230 237 -321 80 -73 147 -106 218 -106 52 0 52
0 46 -27 -17 -67 -118 -270 -202 -408 -74 -120 -131 -194 -194 -250 -55 -49
-29 -43 32 7 19 15 38 28 41 28 17 0 -113 -190 -185 -272 l-79 -90 68 46 c37
26 65 43 63 39 -42 -96 -82 -156 -153 -228 -44 -45 -91 -89 -105 -99 -16 -11
-11 -9 17 4 23 11 58 34 78 51 19 17 35 28 35 25 0 -4 -28 -48 -63 -99 -98
-144 -98 -147 -8 -55 53 54 60 59 51 33 -15 -40 -133 -275 -163 -322 -13 -21
-27 -45 -31 -53 -10 -19 41 35 71 75 l23 30 -14 -41 c-20 -60 -44 -103 -80
-149 -49 -60 -54 -73 -17 -42 40 33 48 30 27 -11 -8 -16 -13 -32 -10 -35 3 -3
-5 -22 -18 -44 -14 -21 -28 -44 -32 -50 -6 -10 437 -13 2198 -13 l2205 0 -1
57 c-1 112 2 172 11 195 9 20 10 19 10 -14 1 -21 5 -38 10 -38 4 0 6 44 4 97
-4 94 -3 97 11 60 17 -46 31 -62 23 -27 -11 47 -20 130 -13 130 3 0 13 -16 21
-37 21 -50 27 -37 10 22 -14 44 -21 199 -8 165 3 -8 10 -26 15 -39 15 -42 16
-18 2 54 -8 39 -18 187 -24 330 -5 143 -12 290 -16 328 -4 43 -2 67 4 67 6 0
14 -9 17 -21 14 -43 14 -10 0 56 -8 39 -24 124 -36 190 -24 139 -66 313 -115
471 -19 62 -34 114 -34 117 0 3 22 21 48 40 100 71 181 157 215 226 30 61 32
73 31 161 -2 255 -172 526 -398 638 -89 45 -112 50 -76 17 28 -25 27 -50 -1
-35 -11 7 -23 10 -25 7 -6 -6 7 -37 16 -37 4 0 20 -17 36 -37 l28 -38 -32 27
c-18 15 -39 25 -47 22 -20 -8 -19 -13 9 -43 102 -109 189 -208 198 -225 5 -12
-5 -4 -23 18 -18 21 -63 69 -101 106 -37 38 -68 73 -68 79 0 6 -5 11 -11 11
-8 0 -8 -4 1 -15 21 -25 6 -37 -18 -14 -26 23 -43 19 -22 -6 7 -9 10 -18 6
-22 -3 -3 2 -16 11 -27 10 -12 0 -4 -21 17 -21 21 -41 35 -44 32 -3 -2 15 -35
40 -73 47 -70 78 -126 78 -138 0 -4 -16 19 -36 52 -19 32 -49 73 -66 89 -28
28 -30 28 -25 7 3 -12 1 -20 -4 -16 -5 3 -9 -2 -9 -11 0 -11 5 -15 15 -12 8 4
17 2 20 -3 4 -6 -12 -10 -37 -10 l-43 -1 24 -19 23 -20 -43 0 c-77 0 -120 -11
-117 -29 2 -12 -5 -16 -32 -16 -19 0 -39 -3 -45 -6 -5 -4 -31 -10 -57 -13 -32
-5 -48 -12 -48 -22 0 -8 -10 -14 -22 -13 -54 0 -123 -11 -126 -20 -2 -6 -18
-11 -36 -11 -18 0 -36 -4 -42 -9 -10 -10 -178 -56 -238 -66 -100 -16 -237 -3
-371 37 -97 28 -125 39 -121 47 3 4 -3 8 -12 9 -9 0 -42 6 -72 11 -30 5 -81
10 -112 10 -32 1 -58 6 -58 11 0 6 -29 10 -67 10 -38 0 -86 5 -108 12 -22 6
-56 11 -75 10 -50 -1 -77 8 -59 19 10 6 4 9 -19 9 -18 0 -31 4 -28 9 4 5 -7
12 -24 16 -17 4 -28 11 -24 16 3 5 -2 9 -11 9 -9 0 -14 4 -10 9 3 5 0 13 -6
17 -8 4 -7 9 2 15 7 4 11 11 7 14 -3 3 -21 -12 -39 -35 -78 -96 -79 -97 -44
-27 19 37 30 67 25 67 -6 0 -10 -5 -10 -11 0 -13 -42 -8 -52 6 -5 6 -8 5 -8
-2 0 -7 -10 -13 -22 -12 -18 0 -15 5 17 19 22 10 42 15 45 10 3 -4 13 -3 22 4
10 7 15 15 13 18 -3 3 6 13 20 22 14 9 25 22 25 29 0 7 12 20 28 30 l27 18
-40 -6 c-22 -4 -53 -9 -70 -12 l-30 -6 25 27 c14 14 31 26 38 26 6 0 12 5 12
10 0 6 -18 10 -39 10 -22 0 -43 5 -47 11 -4 7 -16 2 -33 -14 -14 -13 -47 -36
-74 -51 -26 -15 -78 -54 -115 -88 l-67 -61 73 72 c40 39 95 85 122 102 28 17
50 34 50 38 0 4 17 17 39 29 21 12 44 29 51 37 11 13 7 13 -36 0 -80 -24 -283
-167 -418 -295 -67 -62 -74 -60 -11 3 52 53 172 155 196 167 13 7 42 27 63 44
49 38 174 117 244 152 55 29 65 42 17 24 -24 -9 -26 -9 -16 4 6 7 28 17 47 21
20 3 34 9 30 12 -5 5 -65 -7 -112 -23 -11 -3 -5 3 11 14 51 35 83 65 62 58
-10 -3 -53 -15 -96 -26 -93 -24 -289 -90 -363 -123 -69 -32 -191 -88 -200 -94
-5 -2 -8 -1 -8 2 0 3 60 35 133 70 130 63 340 140 447 165 43 10 111 39 159
68 2 1 2 5 -2 8 -3 3 -29 1 -57 -6 -63 -15 -79 -6 -19 10 65 18 161 63 149 70
-5 3 -99 -6 -208 -21 -282 -38 -305 -41 -262 -29 43 11 255 45 405 64 85 10
99 14 60 16 l-50 2 32 11 c17 7 35 15 39 19 4 5 18 8 31 8 13 0 22 4 19 9 -3
5 14 12 39 15 25 4 45 12 45 18 0 6 -12 8 -31 4 -17 -3 -57 -3 -88 1 l-56 7
45 8 c25 4 70 12 100 18 30 5 73 14 95 18 36 6 32 8 -40 13 l-80 5 90 2 c62 2
85 5 75 12 -8 5 -33 10 -55 11 -22 0 -49 4 -60 9 -13 6 5 8 52 6 40 -2 90 0
110 4 l38 8 -50 2 -50 3 70 9 c39 5 95 14 125 20 46 9 51 12 30 18 -24 6 -24
7 -4 13 12 4 28 5 37 2 8 -4 18 -2 22 4 3 6 14 11 23 11 14 0 15 -2 2 -10 -8
-5 -12 -11 -9 -15 3 -3 23 6 43 20 20 14 39 25 41 25 3 0 5 -13 5 -30 0 -16 4
-30 8 -30 12 0 52 44 52 58 0 7 5 12 11 12 8 0 8 4 2 13 -6 6 -11 64 -11 127
-1 109 0 113 14 85 14 -29 15 -27 10 45 -5 70 -4 73 9 45 l14 -30 0 30 c0 17
-6 58 -13 93 -14 63 -8 80 13 40 10 -21 11 -20 7 12 -3 19 -8 46 -11 60 -5 22
-4 23 5 5 8 -15 9 -10 5 25 -6 44 -5 44 9 20 14 -23 15 -20 13 58 -1 46 1 86
5 88 5 3 8 -6 8 -20 0 -14 5 -28 12 -32 8 -5 9 0 4 17 -8 29 -36 273 -31 277
8 8 45 -167 45 -210 0 -16 5 -28 10 -28 6 0 10 14 10 30 0 47 20 35 21 -12 1
-24 7 25 14 107 7 83 10 182 7 220 -3 49 -1 67 6 60 6 -5 15 -66 21 -134 6
-68 13 -126 16 -129 3 -3 6 24 6 59 1 52 3 57 8 29 l7 -35 7 45 c12 79 27 364
21 399 -5 22 -3 32 4 28 5 -4 12 -21 15 -39 12 -82 40 -197 48 -193 4 3 13
-35 20 -85 7 -49 14 -88 15 -87 4 4 13 128 15 202 1 56 2 53 15 -45 8 -58 18
-141 22 -185 8 -77 8 -78 15 -35 25 175 24 174 27 30 l2 -135 14 60 c7 33 14
76 15 95 1 34 22 -75 35 -188 4 -29 9 -51 11 -48 2 2 17 66 33 142 31 152 35
138 20 -65 -6 -74 -9 -136 -7 -138 3 -2 17 44 32 102 16 58 29 104 31 102 2
-2 -8 -72 -22 -156 -13 -85 -22 -156 -20 -159 3 -2 8 9 12 24 3 16 12 49 20
74 l13 45 -5 -65 c-4 -36 -10 -82 -14 -102 -10 -48 2 -49 19 -2 7 19 15 34 17
31 3 -2 -7 -35 -20 -73 -18 -50 -22 -70 -13 -76 8 -5 9 -16 1 -40 -6 -18 -12
-109 -13 -203 l-2 -170 31 -52 c31 -53 53 -70 43 -33 -7 25 7 25 40 0 14 -11
30 -20 36 -20 7 0 29 -9 51 -20 22 -11 51 -20 66 -20 22 0 25 -2 14 -15 -11
-13 -7 -15 23 -15 43 0 61 -20 20 -21 -24 -1 -21 -3 17 -15 25 -7 59 -17 75
-21 29 -7 28 -7 -15 -13 -38 -5 -42 -7 -22 -13 12 -5 35 -10 50 -12 15 -2 45
-11 67 -19 l40 -16 -35 6 c-19 3 -44 8 -55 11 -17 5 -18 4 -6 -11 7 -9 20 -16
27 -16 8 0 14 -4 14 -8 0 -5 10 -14 23 -20 21 -10 21 -11 2 -13 -52 -5 106
-17 242 -18 131 -1 393 -23 431 -36 7 -3 2 15 -12 43 -13 26 -27 58 -31 71
l-7 24 36 -28 c42 -32 46 -25 12 19 -12 17 -31 46 -40 64 -17 32 -17 33 1 23
25 -13 179 -44 195 -39 6 2 -9 16 -33 30 -24 15 -52 36 -62 48 -23 28 -87 127
-87 135 0 4 15 -2 33 -13 17 -11 55 -23 82 -26 l50 -7 -58 29 c-73 37 -88 51
-131 123 l-35 58 41 -30 c53 -37 64 -28 14 12 -20 17 -36 33 -34 34 2 2 32 -3
68 -10 94 -21 101 -18 45 14 -27 16 -61 40 -74 54 l-23 26 47 -15 c27 -8 66
-14 88 -14 l40 0 -61 31 c-42 21 -81 51 -122 97 -33 37 -60 70 -60 74 0 4 17
-2 38 -14 l37 -21 -27 24 c-39 35 -110 121 -104 126 3 3 18 -4 35 -16 16 -12
44 -24 63 -27 l33 -5 -30 17 c-31 17 -135 123 -135 137 0 4 10 3 23 -3 12 -7
4 4 -18 24 l-40 35 40 -5 40 -6 -31 20 c-17 11 -44 36 -61 57 l-31 38 23 21
24 22 -22 22 c-21 21 -21 22 -1 22 11 0 30 7 42 16 22 15 22 17 5 29 -17 13
-17 15 6 39 22 23 23 26 6 26 -16 0 -15 4 8 28 31 33 37 54 7 27 -23 -20 -25
-10 -9 32 14 33 16 49 23 176 3 53 2 97 -3 97 -4 0 -28 -7 -54 -16 -43 -15
-46 -18 -56 -65 -15 -68 -14 -96 4 -106 13 -8 13 -11 -1 -31 -8 -12 -25 -22
-37 -21 l-22 0 22 15 c18 13 20 19 11 34 -9 13 -7 35 6 90 10 39 15 74 12 77
-8 9 -141 -25 -227 -58 -104 -40 -262 -148 -366 -249 -75 -73 -75 -63 -1 21
49 55 203 167 272 198 25 12 66 30 90 41 24 10 61 24 82 29 131 33 164 45 164
57 0 19 34 47 59 49 11 1 18 -2 15 -7 -3 -4 -11 -8 -19 -8 -8 0 -17 -4 -20
-10 -3 -6 1 -7 9 -4 9 3 16 1 16 -4 0 -6 -8 -13 -17 -15 -10 -3 3 -5 29 -6
l46 -1 31 86 c70 193 124 418 156 644 7 58 17 115 21 128 4 14 2 22 -5 22 -7
0 -9 5 -4 13 4 6 13 27 19 45 12 32 11 33 -6 17 -18 -17 -19 -16 -8 21 5 22
17 53 25 69 l16 30 -28 -25 -28 -25 16 31 c9 18 29 47 44 65 l27 34 -37 -34
c-46 -43 -55 -37 -20 14 20 30 22 37 9 32 -10 -4 -20 -7 -22 -7 -3 0 -2 -4 1
-10 3 -6 -1 -7 -10 -4 -14 6 -14 9 3 28 11 11 29 38 41 59 l21 37 -43 -26
c-23 -15 -51 -34 -61 -43 -18 -15 -18 -15 -7 7 7 13 39 44 72 69 32 25 59 48
59 49 0 2 -24 -11 -52 -30 -49 -30 -154 -86 -164 -86 -2 0 15 17 38 37 53 47
88 82 88 90 0 3 -27 -20 -61 -51 -62 -57 -88 -72 -70 -38 5 10 17 24 25 32 9
7 16 16 16 21 0 5 -27 -18 -60 -51 -34 -32 -104 -85 -157 -117 -53 -31 -160
-107 -236 -168 -77 -60 -171 -134 -210 -163 -72 -54 -235 -158 -266 -170 -14
-5 -15 -4 -1 13 8 11 -5 3 -30 -16 -36 -29 -120 -82 -184 -117 -5 -3 -6 2 -3
11 16 40 19 52 6 32 -6 -11 -32 -39 -57 -62 -48 -45 -79 -56 -68 -25 3 9 -10
-1 -29 -23 -19 -22 -35 -33 -35 -25 0 11 -3 11 -12 2 -22 -22 -31 -13 -25 25
l6 37 -30 -37 c-35 -43 -52 -48 -43 -12 7 29 -4 32 -47 9 l-30 -15 25 38 c13
21 27 49 31 63 7 23 5 22 -20 -8 -16 -19 -46 -45 -66 -58 -41 -26 -60 -31 -41
-12 7 7 12 20 12 30 0 16 -3 17 -20 8 -25 -13 -25 -12 4 54 20 45 21 53 8 45
-9 -6 -28 -26 -42 -45 -25 -34 -95 -84 -119 -84 -8 0 -6 10 5 33 l16 32 -39
-37 c-21 -21 -42 -38 -47 -38 -4 0 -4 33 -1 73 l6 72 -42 -72 c-24 -40 -46
-73 -49 -73 -3 0 -6 26 -6 58 -1 32 -10 78 -20 101 l-19 43 0 -93 c0 -56 -4
-94 -10 -94 -5 0 -9 13 -7 29 5 37 -10 27 -33 -24 -10 -22 -22 -40 -26 -40 -4
0 -19 19 -33 43 l-26 42 0 -36 c0 -20 -3 -39 -6 -42 -7 -6 -71 61 -108 112
-10 14 -16 18 -13 9 13 -38 19 -88 11 -88 -18 0 -161 188 -247 325 -180 285
-276 413 -395 525 -149 141 -202 186 -205 175 -2 -5 -9 1 -17 15 -7 14 -23 36
-35 50 -12 14 -37 50 -54 80 -17 30 -31 52 -31 47 0 -13 69 -145 80 -152 5 -3
10 -11 10 -17 0 -17 -45 27 -113 112 -69 85 -84 102 -72 80z m355 -910 c15 -5
-26 -8 -107 -7 -72 1 -129 5 -127 9 7 10 202 8 234 -2z m-573 -112 c-3 -8 -6
-5 -6 6 -1 11 2 17 5 13 3 -3 4 -12 1 -19z m3403 -17 c0 -5 -9 -13 -20 -16
-25 -8 -26 -25 -2 -25 10 0 19 -7 19 -16 0 -10 -7 -14 -19 -11 -10 3 -21 -1
-26 -7 -5 -10 -21 -6 -67 15 -62 30 -64 40 -2 14 19 -8 37 -11 41 -8 3 4 6 1
6 -5 0 -7 5 -12 10 -12 19 0 10 39 -12 55 -23 17 -22 17 14 11 21 -4 39 -2 43
4 8 13 15 13 15 1z m-2780 -25 l55 -13 -125 -7 c-69 -4 -136 -9 -150 -12 -22
-4 -22 -3 5 10 17 9 50 16 75 17 38 1 41 2 20 9 -44 14 58 11 120 -4z m2851
-153 c-22 -131 -48 -214 -70 -221 -8 -3 -11 0 -7 7 9 14 1 14 -27 0 -21 -10
-21 -10 -3 5 11 9 23 16 26 16 11 0 28 88 18 98 -5 5 -2 14 7 22 16 13 21 35
6 25 -5 -3 -12 -1 -16 5 -3 5 1 10 9 10 10 0 16 9 16 23 0 15 -3 18 -8 9 -5
-7 -15 -10 -24 -7 -8 3 -21 -1 -28 -10 -10 -12 -10 -15 0 -15 10 0 9 -5 -2
-17 -9 -10 -13 -24 -10 -32 3 -8 0 -11 -6 -7 -6 3 -15 -2 -21 -11 -8 -16 -14
-13 -49 25 -21 23 -46 42 -55 42 -10 0 -17 4 -17 9 0 5 -9 11 -20 14 -28 7
-25 -5 10 -38 17 -16 30 -33 30 -37 0 -5 -12 3 -27 17 -16 15 -41 33 -58 42
-16 9 -32 19 -35 23 -3 3 -25 12 -50 18 l-45 11 63 -4 c34 -2 62 0 62 5 0 11
92 -36 119 -61 11 -10 25 -19 31 -19 5 0 10 -4 10 -10 0 -5 7 -10 15 -10 8 0
15 5 15 10 0 6 -7 10 -15 10 -8 0 -15 7 -15 15 0 7 -8 19 -17 24 -17 10 -17
10 -1 11 42 0 30 46 -16 59 l-31 8 25 11 c14 6 19 11 13 11 -7 1 -13 5 -13 10
0 5 11 4 24 -2 14 -7 20 -15 14 -18 -5 -3 3 -9 19 -12 19 -4 34 0 49 14 22 21
54 26 54 8 0 -16 -27 -39 -46 -39 -16 0 -16 -1 1 -20 13 -14 21 -17 26 -9 4 7
12 8 20 4 9 -6 11 -3 6 8 -3 10 -2 17 3 17 6 0 10 -12 10 -27 l0 -28 15 29 c9
16 19 57 23 90 4 34 8 49 10 35 2 -14 -6 -80 -17 -146z m-41 142 c0 -8 -2 -15
-4 -15 -2 0 -6 7 -10 15 -3 8 -1 15 4 15 6 0 10 -7 10 -15z m-2752 -74 c14 -8
-70 -20 -152 -22 -34 0 -25 -4 44 -19 47 -10 110 -24 140 -32 l55 -13 -115 -6
c-111 -5 -112 -5 -40 -9 41 -2 95 -4 120 -3 28 1 38 -1 27 -6 -15 -6 -7 -13
45 -40 178 -93 359 -254 517 -461 87 -114 171 -244 171 -264 0 -6 -16 16 -36
48 -108 179 -303 415 -408 494 -134 100 -186 136 -246 166 -59 30 -75 34 -185
39 -109 6 -248 -2 -300 -17 -11 -4 -2 3 20 14 22 11 51 20 65 20 22 1 23 2 6
9 -34 13 6 20 126 22 86 1 107 4 92 12 -38 21 -126 26 -203 12 -41 -8 -76 -13
-79 -11 -8 8 103 60 143 67 58 10 178 10 193 0z m2437 -21 c15 -6 9 -8 -22 -7
-24 1 -37 5 -30 9 15 9 26 9 52 -2z m-3105 -6 c0 -3 -7 -12 -15 -20 -12 -13
-15 -13 -15 -1 0 7 3 17 7 20 8 8 23 9 23 1z m3210 -9 c14 -8 21 -14 15 -14
-5 0 -21 6 -35 14 -14 8 -20 14 -15 14 6 0 21 -6 35 -14z m80 -15 c0 -4 -10
-10 -23 -12 -16 -3 -23 0 -24 12 -1 13 5 16 23 12 13 -2 24 -8 24 -12z m-335
-80 c-3 -5 -24 -10 -46 -10 -21 0 -39 5 -39 10 0 6 21 10 46 10 27 0 43 -4 39
-10z m140 -10 c-3 -5 0 -10 7 -10 7 0 33 -14 58 -30 52 -34 47 -39 -10 -10
-22 11 -55 20 -74 20 -62 0 -75 12 -25 25 24 7 45 13 47 14 2 0 0 -3 -3 -9z
m-2427 -36 c82 -10 61 -19 -40 -17 -131 2 -130 2 -123 13 7 11 84 13 163 4z
m676 -96 c46 -98 103 -239 136 -335 24 -71 61 -225 55 -231 -2 -2 -7 9 -10 24
-24 109 -130 397 -219 597 -9 20 -14 37 -10 37 3 0 25 -42 48 -92z m1712 51
c86 -44 116 -66 74 -54 -14 4 -38 14 -55 22 -16 8 -61 17 -100 19 -78 6 -114
24 -47 24 23 0 42 4 42 10 0 5 -6 7 -14 4 -8 -3 -17 -1 -21 5 -14 24 45 9 121
-30z m-2609 15 c-3 -3 -12 -4 -19 -1 -8 3 -5 6 6 6 11 1 17 -2 13 -5z m343 -4
c13 -8 13 -10 -2 -10 -9 0 -20 5 -23 10 -8 13 5 13 25 0z m1999 -45 c-19 -19
-38 -35 -43 -35 -6 0 5 16 24 35 19 19 38 35 43 35 5 0 -6 -16 -24 -35z
m-2102 9 c-3 -3 -12 -4 -19 -1 -8 3 -5 6 6 6 11 1 17 -2 13 -5z m2208 -69
c-44 -41 -85 -75 -92 -75 -6 0 5 15 25 34 103 95 128 115 137 115 6 0 -26 -34
-70 -74z m-2262 58 c-13 -2 -33 -2 -45 0 -13 2 -3 4 22 4 25 0 35 -2 23 -4z
m-493 -112 c0 -14 -8 -33 -17 -43 -12 -14 -17 -38 -17 -88 -1 -61 2 -73 32
-114 50 -72 39 -90 -21 -33 -30 28 -35 40 -40 99 -4 44 -2 83 8 115 7 26 16
68 20 92 7 44 8 44 21 20 7 -13 13 -35 14 -48z m449 65 c-2 -2 -35 -6 -73 -9
-41 -3 -63 -1 -55 4 13 8 137 13 128 5z m2426 -6 c18 -8 18 -9 -5 -8 -14 0
-38 4 -55 8 l-30 8 35 0 c19 0 44 -3 55 -8z m399 0 c-14 -6 -24 -21 -29 -47
-3 -21 -15 -58 -26 -82 -18 -42 -20 -44 -33 -25 -23 33 -24 89 -2 81 10 -4 12
0 9 14 -4 13 2 22 18 28 15 6 18 10 8 10 -17 1 -143 -62 -264 -132 -129 -74
-283 -207 -464 -400 -35 -37 -65 -66 -67 -64 -13 13 266 292 375 375 77 59 98
73 253 159 51 28 98 55 103 60 13 11 84 30 115 31 24 1 24 0 4 -8z m-715 -71
c-45 -67 -127 -250 -174 -386 -16 -46 -30 -81 -32 -79 -7 7 27 116 67 210 51
122 145 304 165 318 21 15 14 -2 -26 -63z m301 41 c24 -8 24 -8 -5 -8 -16 0
-41 4 -55 8 -24 8 -24 8 5 8 17 0 41 -4 55 -8z m-2313 -26 c-3 -3 -12 -4 -19
-1 -8 3 -5 6 6 6 11 1 17 -2 13 -5z m2256 -1 c-7 -2 -21 -2 -30 0 -10 3 -4 5
12 5 17 0 24 -2 18 -5z m-2173 -19 c71 -21 254 -113 311 -156 24 -18 55 -40
69 -49 61 -39 183 -167 237 -247 32 -48 59 -91 61 -97 5 -16 -34 34 -85 108
-115 169 -383 362 -598 433 -80 26 -76 32 5 8z m2245 6 l20 -9 -20 0 c-11 0
-29 4 -40 9 l-20 9 20 0 c11 0 29 -4 40 -9z m-280 -102 c-40 -50 -91 -135
-131 -215 -37 -74 -69 -132 -71 -130 -9 9 121 257 169 322 43 58 84 104 96
105 1 0 -27 -37 -63 -82z m285 52 c17 -6 9 -7 -25 -3 -27 3 -52 7 -54 9 -8 7
54 2 79 -6z m260 -382 c0 -19 -2 -20 -10 -8 -13 19 -13 30 0 30 6 0 10 -10 10
-22z m-1966 2 c14 -5 30 -19 37 -32 l12 -23 -24 21 c-13 12 -33 26 -44 32 -25
14 -15 15 19 2z m1932 -25 c-9 -9 -16 -13 -16 -8 0 12 22 34 28 28 2 -2 -3
-11 -12 -20z m-725 -32 c-12 -20 -14 -14 -5 12 4 9 9 14 11 11 3 -2 0 -13 -6
-23z m-1013 -58 c-3 -3 -9 2 -12 12 -6 14 -5 15 5 6 7 -7 10 -15 7 -18z m1022
-79 l-21 -21 18 32 c10 18 20 28 22 22 2 -6 -6 -21 -19 -33z m-653 -108 c-2
-18 -4 -6 -4 27 0 33 2 48 4 33 2 -15 2 -42 0 -60z m-120 -260 c-3 -8 -6 -5
-6 6 -1 11 2 17 5 13 3 -3 4 -12 1 -19z m-364 -10 c9 -7 20 -27 23 -45 6 -28
3 -34 -19 -44 -43 -19 -75 -5 -83 38 -5 29 -3 39 11 50 23 16 46 17 68 1z
m1387 -60 c23 -25 26 -58 8 -77 -11 -11 -10 -13 5 -8 18 7 57 -11 57 -25 0
-14 -57 -8 -70 7 -7 8 -22 15 -34 15 -43 0 -64 38 -47 84 13 33 52 35 81 4z
m-1750 -13 c-2 -17 -40 -26 -40 -11 0 14 18 26 33 22 5 -1 8 -6 7 -11z m410
-55 c6 -11 7 -20 2 -20 -5 0 -17 9 -27 20 -16 18 -16 20 -2 20 9 0 21 -9 27
-20z m-339 -101 c16 -91 67 -159 120 -159 42 0 109 55 134 109 19 43 33 48 50
15 6 -10 15 -19 21 -19 6 0 23 -9 38 -20 29 -22 34 -60 11 -91 -8 -10 -14 -23
-15 -29 0 -5 5 -3 11 5 9 13 10 13 6 0 -2 -8 -10 -15 -18 -15 -8 -1 -13 -6
-11 -13 1 -7 -4 -12 -12 -12 -8 0 -18 -5 -22 -12 -5 -7 -2 -8 7 -3 9 5 11 5 4
-2 -11 -11 -92 -38 -141 -47 -45 -7 -157 19 -215 51 -87 47 -159 148 -158 223
0 28 2 31 9 18 10 -15 15 -15 73 4 34 11 66 25 72 29 16 16 30 4 36 -32z
m1729 -90 c29 -30 44 -39 52 -31 6 6 16 8 23 6 8 -4 16 6 20 25 10 48 25 47
25 -1 0 -41 -40 -139 -73 -180 -24 -30 -124 -76 -180 -83 -65 -8 -117 5 -179
44 -61 39 -138 142 -93 125 9 -4 16 3 21 20 3 14 10 26 15 26 5 0 9 7 9 15 0
8 4 15 9 15 5 0 16 7 24 14 13 13 17 10 32 -25 26 -56 90 -112 118 -103 45 13
86 71 102 142 3 17 13 32 20 32 8 0 33 -19 55 -41z m103 -536 c-7 -2 -21 -2
-30 0 -10 3 -4 5 12 5 17 0 24 -2 18 -5z m-2433 -113 c-14 -4 -34 -8 -45 -8
-16 0 -15 2 5 8 14 4 34 8 45 8 16 0 15 -2 -5 -8z m-193 -56 c-3 -3 -12 -4
-19 -1 -8 3 -5 6 6 6 11 1 17 -2 13 -5z m-102 -272 c-17 -15 -105 -63 -105
-58 0 3 24 19 53 36 52 30 69 37 52 22z m585 -31 c0 -8 -53 -32 -69 -31 -5 1
59 38 67 40 1 0 2 -4 2 -9z m-710 -46 c0 -2 -10 -9 -22 -15 -22 -11 -22 -10
-4 4 21 17 26 19 26 11z m687 -11 c-3 -3 -12 -4 -19 -1 -8 3 -5 6 6 6 11 1 17
-2 13 -5z m-10 -50 c-3 -3 -12 -4 -19 -1 -8 3 -5 6 6 6 11 1 17 -2 13 -5z
m-40 -10 c-3 -3 -12 -4 -19 -1 -8 3 -5 6 6 6 11 1 17 -2 13 -5z m11 -219 c-6
-14 -13 -23 -15 -21 -5 5 15 46 22 46 3 0 -1 -11 -7 -25z m-25 -50 c-3 -9 -8
-14 -10 -11 -3 3 -2 9 2 15 9 16 15 13 8 -4z m1508 -360 c14 5 17 3 13 -9 -3
-9 -10 -16 -15 -16 -5 0 -3 -11 3 -25 10 -21 8 -28 -15 -51 -39 -39 -35 -61 5
-32 18 13 39 29 46 36 18 16 21 15 18 -5 -2 -9 -11 -22 -21 -27 -24 -15 -87
-77 -82 -82 2 -2 16 -5 30 -6 15 -1 27 -4 27 -6 0 -16 -45 -61 -63 -64 -17 -2
-22 -9 -20 -30 1 -16 -5 -29 -14 -32 -14 -6 -14 -4 -2 10 13 16 11 17 -13 11
-16 -4 -30 -3 -33 4 -4 6 -21 -10 -40 -38 -34 -50 -33 -73 4 -54 28 16 27 0
-3 -28 -15 -14 -30 -20 -37 -16 -8 5 -10 4 -5 -4 5 -7 -13 -35 -42 -69 -27
-31 -57 -70 -67 -85 -10 -15 -20 -26 -22 -23 -3 2 3 16 12 30 13 19 14 30 7
39 -6 7 -13 33 -15 57 -4 41 -4 40 -3 -8 1 -44 -2 -52 -17 -52 -15 0 -16 -4
-7 -22 8 -17 5 -16 -14 7 -14 16 -22 32 -19 35 3 3 8 -1 10 -8 3 -6 9 -10 14
-6 5 3 2 12 -6 20 -8 9 -20 12 -27 8 -8 -5 -9 -2 -5 9 3 10 2 17 -3 17 -6 0
-10 -5 -10 -10 0 -6 -24 15 -52 46 -29 31 -52 61 -50 66 1 5 -2 6 -9 3 -6 -4
-19 1 -29 11 -24 24 -34 31 -92 73 -27 19 -55 46 -65 60 l-16 26 29 -19 c24
-16 21 -11 -15 30 -25 27 -50 56 -57 64 -7 8 -23 26 -36 40 -13 14 -23 27 -23
30 0 3 -9 14 -20 26 -40 42 -63 72 -58 78 3 2 15 -4 27 -15 l21 -20 3 25 c4
29 41 38 38 10 0 -9 6 -19 14 -21 12 -4 13 -3 1 5 -23 16 -3 31 37 28 20 -2
44 -4 53 -5 9 0 28 -13 43 -27 20 -21 26 -23 26 -10 0 25 19 19 26 -9 8 -34
28 -32 21 2 l-5 28 19 -24 c12 -15 26 -22 38 -18 13 3 26 -3 37 -19 14 -18 21
-21 32 -11 11 9 17 8 26 -4 6 -9 17 -14 24 -12 6 3 12 0 12 -7 0 -6 4 -9 9 -5
5 3 12 1 15 -4 7 -11 48 -2 59 13 6 8 10 8 13 -1 4 -8 12 -5 25 8 11 11 27 18
34 15 7 -2 16 2 19 10 8 21 26 17 26 -6 0 -11 5 -20 10 -20 6 0 10 9 10 19 0
15 10 21 39 26 27 4 42 13 49 31 17 35 42 31 42 -7 0 -27 2 -30 15 -19 8 7 15
20 15 29 0 9 6 23 13 30 10 10 13 8 15 -9 3 -15 8 -19 23 -15z m92 -87 c-19
-18 -21 -19 -19 -4 1 10 9 21 16 26 24 15 25 1 3 -22z m-963 7 c8 -9 9 -15 2
-15 -6 0 -14 5 -18 11 -4 8 -9 7 -15 -2 -7 -11 -9 -10 -9 4 0 21 23 22 40 2z
m960 -59 c0 -3 -4 -8 -10 -11 -5 -3 -10 -1 -10 4 0 6 5 11 10 11 6 0 10 -2 10
-4z m-886 -33 c25 -32 48 -74 43 -80 -2 -2 -26 17 -53 42 -40 37 -46 48 -34
55 20 13 19 13 44 -17z m821 -3 c-3 -5 -11 -10 -16 -10 -6 0 -7 5 -4 10 3 6
11 10 16 10 6 0 7 -4 4 -10z m64 -285 c35 -18 47 -54 25 -75 -13 -12 -17 -12
-21 -2 -12 32 -37 44 -82 39 -41 -5 -64 -20 -74 -50 -2 -7 -9 -7 -20 -1 -16 9
-15 13 8 44 41 57 107 75 164 45z m-812 -6 c46 -17 73 -49 73 -86 0 -36 -15
-45 -23 -14 -6 25 -89 81 -95 63 -2 -6 -9 -12 -16 -12 -7 0 -21 -9 -31 -20
-31 -34 -63 -21 -50 21 8 24 61 59 92 59 12 0 34 -5 50 -11z m758 -170 c0 -35
-6 -147 -14 -249 -16 -227 -13 -780 5 -773 17 6 28 -16 15 -31 -6 -7 -9 -15
-6 -17 8 -9 33 -144 28 -156 -7 -17 -78 -27 -102 -13 -23 12 -26 34 -15 113 6
40 10 46 33 50 25 4 25 4 -6 12 -40 9 -44 35 -5 36 15 0 21 3 14 6 -7 3 -18
17 -23 31 -10 26 -14 632 -5 727 3 28 8 99 11 159 7 110 17 154 38 168 24 15
32 0 32 -63z m-779 53 c27 -17 43 -160 64 -562 11 -203 12 -600 1 -695 -6 -57
-8 -60 -34 -63 l-28 -3 6 143 c14 348 -4 810 -42 1050 -14 88 -14 109 -4 122
15 18 21 19 37 8z m93 -1339 c3 -2 -5 -13 -17 -25 -19 -20 -25 -20 -62 -9 -27
8 -40 17 -40 30 0 15 7 17 58 13 31 -2 59 -6 61 -9z m-16 -121 c8 -79 -1 -94
-52 -89 -75 7 -87 31 -61 127 9 35 10 35 58 32 l49 -4 6 -66z"/>
<path d="M2618 5943 c6 -2 18 -2 25 0 6 3 1 5 -13 5 -14 0 -19 -2 -12 -5z"/>
<path d="M5400 5820 c-13 -8 -12 -10 3 -10 9 0 17 5 17 10 0 12 -1 12 -20 0z"/>
<path d="M5512 5740 c0 -14 2 -19 5 -12 2 6 2 18 0 25 -3 6 -5 1 -5 -13z"/>
<path d="M2508 5823 c7 -3 16 -2 19 1 4 3 -2 6 -13 5 -11 0 -14 -3 -6 -6z"/>
<path d="M2195 5509 c-4 -6 -5 -12 -2 -15 2 -3 7 2 10 11 7 17 1 20 -8 4z"/>
<path d="M3118 4243 c7 -3 16 -2 19 1 4 3 -2 6 -13 5 -11 0 -14 -3 -6 -6z"/>
<path d="M3033 4213 c-7 -2 -13 -8 -13 -13 0 -10 38 -1 46 11 6 10 -13 11 -33
2z"/>
<path d="M4210 2179 c0 -5 5 -7 10 -4 6 3 10 8 10 11 0 2 -4 4 -10 4 -5 0 -10
-5 -10 -11z"/>
<path d="M3630 2098 c0 -9 7 -19 16 -22 15 -6 15 -4 3 11 -7 10 -15 20 -16 22
-2 2 -3 -3 -3 -11z"/>
<path d="M3695 2043 c34 -30 46 -29 32 1 -8 16 -19 23 -35 22 l-23 -1 26 -22z"/>
<path d="M3830 1919 c12 -16 25 -27 29 -23 3 4 0 9 -6 11 -7 3 -13 11 -13 18
0 7 -7 16 -16 19 -11 4 -10 -2 6 -25z"/>
<path d="M4015 1893 l-18 -28 27 24 c28 26 31 31 17 31 -5 0 -17 -12 -26 -27z"/>
<path d="M3981 1884 c0 -11 3 -14 6 -6 3 7 2 16 -1 19 -3 4 -6 -2 -5 -13z"/>
<path d="M2130 6846 c0 -2 8 -10 18 -17 15 -13 16 -12 3 4 -13 16 -21 21 -21
13z"/>
<path d="M4090 5151 c0 -6 4 -13 10 -16 6 -3 7 1 4 9 -7 18 -14 21 -14 7z"/>
<path d="M3930 3706 c0 -33 27 -64 79 -91 45 -22 62 -39 138 -133 30 -37 32
-45 26 -87 -8 -61 -45 -97 -138 -137 -184 -78 -335 -77 -467 4 -46 28 -64 44
-89 80 -3 5 -18 4 -32 -3 l-27 -12 22 -19 c11 -10 29 -18 38 -18 23 0 44 -26
34 -41 -5 -9 -2 -10 9 -6 10 3 17 3 17 -2 0 -20 87 -49 228 -77 75 -14 85 -14
95 0 7 9 33 17 63 19 27 3 63 11 80 20 16 8 49 18 73 22 30 5 39 10 30 16 -10
6 -3 9 21 9 19 0 42 -5 50 -11 13 -9 12 -10 -3 -5 -11 3 -16 2 -12 -4 3 -6 14
-10 24 -10 10 0 50 -16 90 -36 111 -56 244 -54 314 3 16 13 32 23 37 23 5 0
25 10 45 22 32 18 35 22 20 31 -13 7 -24 3 -44 -17 -59 -56 -207 -84 -292 -54
-41 14 -132 79 -153 110 -35 50 -12 118 64 196 34 34 70 64 81 67 38 12 107
95 78 95 -6 0 -18 9 -27 20 -26 32 -81 40 -284 44 -186 3 -188 3 -188 -18z
m362 -4 c61 -6 82 -12 102 -31 32 -31 24 -44 -23 -36 -29 5 -41 2 -59 -15 -12
-12 -27 -18 -32 -15 -6 3 -10 1 -10 -5 0 -7 -7 -10 -15 -6 -10 4 -15 -1 -16
-17 -1 -21 -2 -19 -15 23 -4 12 -6 12 -14 0 -7 -12 -12 -12 -28 3 -10 9 -24
17 -30 17 -6 0 -17 9 -25 20 -13 18 -72 32 -133 31 -12 0 -29 8 -39 19 -22 25
-9 26 18 3 13 -11 17 -12 12 -4 -6 10 -4 13 6 9 8 -3 26 1 40 8 24 15 68 14
261 -4z m-7 -122 c-3 -5 -11 -10 -16 -10 -6 0 -7 5 -4 10 3 6 11 10 16 10 6 0
7 -4 4 -10z m-2 -35 c-3 -9 -8 -14 -10 -11 -3 3 -2 9 2 15 9 16 15 13 8 -4z"/>
<path d="M3632 3578 c6 -18 28 -21 28 -4 0 9 -7 16 -16 16 -9 0 -14 -5 -12
-12z"/>
<path d="M3755 3570 c-3 -5 3 -10 15 -10 12 0 18 5 15 10 -3 6 -10 10 -15 10
-5 0 -12 -4 -15 -10z"/>
<path d="M4935 3540 c-3 -6 4 -10 17 -11 13 0 17 -3 10 -6 -35 -14 106 -52
288 -78 57 -8 239 -55 265 -68 16 -8 18 -7 8 4 -25 26 -12 31 20 7 41 -31 69
-46 41 -21 -12 10 -28 32 -37 48 -15 32 -30 85 -23 85 2 0 20 -14 40 -31 19
-18 54 -43 78 -57 l43 -26 -35 40 c-19 22 -44 53 -55 68 -19 26 -25 28 -165
41 -170 17 -486 20 -495 5z"/>
<path d="M4530 3530 c0 -5 5 -10 10 -10 6 0 10 5 10 10 0 6 -4 10 -10 10 -5 0
-10 -4 -10 -10z"/>
<path d="M4610 3530 c0 -5 5 -10 10 -10 6 0 10 5 10 10 0 6 -4 10 -10 10 -5 0
-10 -4 -10 -10z"/>
<path d="M3596 3502 c-3 -6 -1 -14 5 -17 15 -10 25 3 12 16 -7 7 -13 7 -17 1z"/>
<path d="M3040 3480 c-18 -12 -2 -12 25 0 13 6 15 9 5 9 -8 0 -22 -4 -30 -9z"/>
<path d="M3710 3475 c0 -8 5 -15 10 -15 6 0 10 7 10 15 0 8 -4 15 -10 15 -5 0
-10 -7 -10 -15z"/>
<path d="M3830 3465 c0 -8 5 -15 10 -15 6 0 10 7 10 15 0 8 -4 15 -10 15 -5 0
-10 -7 -10 -15z"/>
<path d="M4960 3460 c0 -5 9 -12 20 -15 11 -3 20 -11 20 -16 0 -5 5 -9 11 -9
5 0 7 4 4 10 -4 6 1 7 11 3 10 -4 13 -8 7 -10 -27 -9 4 -34 75 -62 43 -16 123
-50 180 -75 56 -25 106 -46 111 -46 5 0 15 16 21 35 13 39 25 43 52 18 18 -16
18 -15 3 20 -19 45 -19 47 0 47 8 0 26 -12 40 -27 14 -15 25 -23 25 -17 0 27
-42 52 -125 76 -151 45 -455 90 -455 68z"/>
<path d="M4581 3444 c0 -11 3 -14 6 -6 3 7 2 16 -1 19 -3 4 -6 -2 -5 -13z"/>
<path d="M4486 3442 c-3 -6 -1 -14 5 -17 15 -10 25 3 12 16 -7 7 -13 7 -17 1z"/>
<path d="M3418 3412 c-14 -6 -14 -11 -5 -33 10 -22 16 -25 34 -18 20 7 22 11
11 34 -12 27 -14 27 -40 17z"/>
<path d="M3600 3380 c0 -5 7 -10 15 -10 8 0 15 5 15 10 0 6 -7 10 -15 10 -8 0
-15 -4 -15 -10z"/>
<path d="M3700 3381 c0 -6 5 -13 10 -16 6 -3 10 1 10 9 0 9 -4 16 -10 16 -5 0
-10 -4 -10 -9z"/>
<path d="M3810 3380 c0 -5 5 -10 10 -10 6 0 10 5 10 10 0 6 -4 10 -10 10 -5 0
-10 -4 -10 -10z"/>
<path d="M4491 3356 c-8 -10 -9 -16 -1 -21 5 -3 13 1 16 10 9 22 -1 29 -15 11z"/>
<path d="M5025 3354 c13 -14 14 -19 3 -25 -10 -7 -10 -9 2 -9 11 0 12 -2 2 -8
-8 -6 3 -16 35 -33 121 -63 172 -98 232 -157 35 -35 68 -59 72 -55 9 9 -3 101
-16 136 -9 22 15 23 58 1 18 -9 28 -12 22 -6 -15 15 -228 111 -320 144 -93 33
-114 36 -90 12z m323 -227 c4 -31 -5 -35 -24 -9 -19 24 -17 44 4 40 10 -2 18
-14 20 -31z"/>
<path d="M4560 3341 c0 -6 5 -13 10 -16 6 -3 10 1 10 9 0 9 -4 16 -10 16 -5 0
-10 -4 -10 -9z"/>
<path d="M4715 3330 c-3 -5 -2 -10 4 -10 5 0 13 5 16 10 3 6 2 10 -4 10 -5 0
-13 -4 -16 -10z"/>
<path d="M4690 3290 c0 -5 7 -10 16 -10 8 0 12 5 9 10 -3 6 -10 10 -16 10 -5
0 -9 -4 -9 -10z"/>
<path d="M5500 3156 c0 -2 14 -14 30 -26 17 -12 30 -19 30 -16 0 2 -13 14 -30
26 -16 12 -30 19 -30 16z"/>
<path d="M2915 3140 c-3 -6 1 -7 9 -4 18 7 21 14 7 14 -6 0 -13 -4 -16 -10z"/>
<path d="M5625 3059 c33 -29 90 -81 126 -114 36 -33 27 -22 -20 23 -47 46
-103 97 -126 114 -22 17 -13 6 20 -23z"/>
<path d="M2944 3048 l-19 -23 23 19 c12 11 22 21 22 23 0 8 -8 2 -26 -19z"/>
</g>
</svg>
