<?xml version="1.0" encoding="UTF-8"?>
<!DOCTYPE svg PUBLIC "-//W3C//DTD SVG 1.1//EN" "http://www.w3.org/Graphics/SVG/1.1/DTD/svg11.dtd">
<svg xmlns="http://www.w3.org/2000/svg" version="1.1" width="128px" height="128px" style="shape-rendering:geometricPrecision; text-rendering:geometricPrecision; image-rendering:optimizeQuality; fill-rule:evenodd; clip-rule:evenodd" xmlns:xlink="http://www.w3.org/1999/xlink">
<g><path style="opacity:0.964" fill="#8D8D8E" d="M 51.5,-0.5 C 59.5,-0.5 67.5,-0.5 75.5,-0.5C 103.14,6.47339 120.473,23.8067 127.5,51.5C 127.5,59.5 127.5,67.5 127.5,75.5C 121.482,101.186 105.816,117.853 80.5,125.5C 80.5,109.5 80.5,93.5 80.5,77.5C 85.1667,77.5 89.8333,77.5 94.5,77.5C 95.0851,72.4855 95.7518,67.4855 96.5,62.5C 91.1667,62.5 85.8333,62.5 80.5,62.5C 80.0962,56.7104 80.5962,51.0438 82,45.5C 82.7504,44.8742 83.5838,44.3742 84.5,44C 88.8206,43.501 93.1539,43.3343 97.5,43.5C 97.5,38.8333 97.5,34.1667 97.5,29.5C 71.9992,26.0016 61.3326,37.0016 65.5,62.5C 60.8333,62.5 56.1667,62.5 51.5,62.5C 51.5,67.5 51.5,72.5 51.5,77.5C 56.1667,77.5 60.8333,77.5 65.5,77.5C 65.5,94.1667 65.5,110.833 65.5,127.5C 61.1667,127.5 56.8333,127.5 52.5,127.5C 24.2818,120.949 6.61511,103.615 -0.5,75.5C -0.5,67.5 -0.5,59.5 -0.5,51.5C 6.5,23.8333 23.8333,6.5 51.5,-0.5 Z"/></g>
</svg>
