<?xml version="1.0" encoding="UTF-8"?>
<!DOCTYPE svg PUBLIC "-//W3C//DTD SVG 1.1//EN" "http://www.w3.org/Graphics/SVG/1.1/DTD/svg11.dtd">
<svg xmlns="http://www.w3.org/2000/svg" version="1.1" width="128px" height="128px" style="shape-rendering:geometricPrecision; text-rendering:geometricPrecision; image-rendering:optimizeQuality; fill-rule:evenodd; clip-rule:evenodd" xmlns:xlink="http://www.w3.org/1999/xlink">
<g><path style="opacity:0.942" fill="#8D8D8E" d="M 127.5,53.5 C 127.5,61.1667 127.5,68.8333 127.5,76.5C 121.993,100.176 107.993,116.676 85.5,126C 82.4718,127.14 80.3051,126.306 79,123.5C 78.6667,115.5 78.3333,107.5 78,99.5C 77.0857,97.3359 75.919,95.3359 74.5,93.5C 96.8366,90.5023 106.337,77.8356 103,55.5C 101.421,51.3448 99.5878,47.3448 97.5,43.5C 99.2389,37.8097 98.5722,32.4764 95.5,27.5C 89.6475,29.3448 83.9809,31.6781 78.5,34.5C 68.5,31.8333 58.5,31.8333 48.5,34.5C 43.0191,31.6781 37.3525,29.3448 31.5,27.5C 30.1936,28.9122 29.3603,30.5789 29,32.5C 28.6369,36.866 28.6369,41.1994 29,45.5C 21.7441,57.7413 21.7441,70.0746 29,82.5C 35.4755,88.9424 43.3088,92.6091 52.5,93.5C 50.2745,96.1636 48.6078,99.1636 47.5,102.5C 41.8223,105.463 36.4889,104.963 31.5,101C 28.8719,95.8871 24.8719,92.3871 19.5,90.5C 18.8333,90.8333 18.1667,91.1667 17.5,91.5C 19.0082,93.5075 20.8416,95.1741 23,96.5C 26.8927,109.362 35.3927,114.362 48.5,111.5C 48.6657,115.846 48.499,120.179 48,124.5C 47.5,125 47,125.5 46.5,126C 42.9555,126.571 39.6221,125.904 36.5,124C 16.4637,114.134 4.1304,98.3011 -0.5,76.5C -0.5,68.8333 -0.5,61.1667 -0.5,53.5C 8.12586,20.5446 29.4592,2.8779 63.5,0.5C 97.5408,2.8779 118.874,20.5446 127.5,53.5 Z"/></g>
</svg>
