<?xml version="1.0" encoding="UTF-8"?>
<!DOCTYPE svg PUBLIC "-//W3C//DTD SVG 1.1//EN" "http://www.w3.org/Graphics/SVG/1.1/DTD/svg11.dtd">
<svg xmlns="http://www.w3.org/2000/svg" version="1.1" width="41px" height="41px" style="shape-rendering:geometricPrecision; text-rendering:geometricPrecision; image-rendering:optimizeQuality; fill-rule:evenodd; clip-rule:evenodd" xmlns:xlink="http://www.w3.org/1999/xlink">
<g><path style="opacity:1" fill="#f2f6fb" d="M -0.5,-0.5 C 1.83333,-0.5 4.16667,-0.5 6.5,-0.5C 5.39977,0.558465 4.06644,1.3918 2.5,2C 1.60064,3.65161 0.60064,5.15161 -0.5,6.5C -0.5,4.16667 -0.5,1.83333 -0.5,-0.5 Z"/></g>
<g><path style="opacity:1" fill="#457dcb" d="M 6.5,-0.5 C 15.1667,-0.5 23.8333,-0.5 32.5,-0.5C 34.2608,0.312714 35.9275,1.31271 37.5,2.5C 36.1746,10.3019 31.6746,12.9686 24,10.5C 19.997,10.4322 16.1636,11.0989 12.5,12.5C 13.5918,7.87749 11.9252,6.04416 7.5,7C 5.65003,10.4659 6.65003,12.2993 10.5,12.5C 9.69354,13.7281 8.69354,14.7281 7.5,15.5C 7.5,21.1667 7.5,26.8333 7.5,32.5C 6.67331,27.3491 6.17331,22.0158 6,16.5C 2.76665,19.6475 0.599981,23.3142 -0.5,27.5C -0.5,20.5 -0.5,13.5 -0.5,6.5C 0.60064,5.15161 1.60064,3.65161 2.5,2C 4.06644,1.3918 5.39977,0.558465 6.5,-0.5 Z"/></g>
<g><path style="opacity:1" fill="#ebf0f8" d="M 32.5,-0.5 C 35.1667,-0.5 37.8333,-0.5 40.5,-0.5C 40.5,1.83333 40.5,4.16667 40.5,6.5C 39.5116,5.20498 38.5116,3.87165 37.5,2.5C 35.9275,1.31271 34.2608,0.312714 32.5,-0.5 Z"/></g>
<g><path style="opacity:1" fill="#3168b6" d="M 37.5,2.5 C 38.5116,3.87165 39.5116,5.20498 40.5,6.5C 40.5,8.83333 40.5,11.1667 40.5,13.5C 38.8818,15.785 36.8818,17.785 34.5,19.5C 33.8331,23.9822 33.1664,28.3155 32.5,32.5C 32.6659,27.4889 32.4993,22.4889 32,17.5C 28.9401,14.0645 25.6068,13.7312 22,16.5C 20.3005,15.5939 18.4672,15.2606 16.5,15.5C 16.5,21.1667 16.5,26.8333 16.5,32.5C 17.8333,32.5 19.1667,32.5 20.5,32.5C 22.22,36.2202 24.8866,38.8868 28.5,40.5C 21.1667,40.5 13.8333,40.5 6.5,40.5C 3.83333,38.5 1.5,36.1667 -0.5,33.5C -0.5,31.5 -0.5,29.5 -0.5,27.5C 0.599981,23.3142 2.76665,19.6475 6,16.5C 6.17331,22.0158 6.67331,27.3491 7.5,32.5C 9.16667,32.5 10.8333,32.5 12.5,32.5C 12.5,26.8333 12.5,21.1667 12.5,15.5C 10.8333,15.5 9.16667,15.5 7.5,15.5C 8.69354,14.7281 9.69354,13.7281 10.5,12.5C 11.1667,12.5 11.8333,12.5 12.5,12.5C 16.1636,11.0989 19.997,10.4322 24,10.5C 31.6746,12.9686 36.1746,10.3019 37.5,2.5 Z"/></g>
<g><path style="opacity:1" fill="#f2f6fb" d="M 12.5,12.5 C 11.8333,12.5 11.1667,12.5 10.5,12.5C 6.65003,12.2993 5.65003,10.4659 7.5,7C 11.9252,6.04416 13.5918,7.87749 12.5,12.5 Z"/></g>
<g><path style="opacity:1" fill="#154e9d" d="M 40.5,13.5 C 40.5,19.8333 40.5,26.1667 40.5,32.5C 38.8333,36.1667 36.1667,38.8333 32.5,40.5C 31.1667,40.5 29.8333,40.5 28.5,40.5C 24.8866,38.8868 22.22,36.2202 20.5,32.5C 21.3238,28.6877 21.8238,24.6877 22,20.5C 23.6667,19.1667 25.3333,19.1667 27,20.5C 27.4988,24.4862 27.6655,28.4862 27.5,32.5C 29.1667,32.5 30.8333,32.5 32.5,32.5C 33.1664,28.3155 33.8331,23.9822 34.5,19.5C 36.8818,17.785 38.8818,15.785 40.5,13.5 Z"/></g>
<g><path style="opacity:1" fill="#f3f6fa" d="M 7.5,15.5 C 9.16667,15.5 10.8333,15.5 12.5,15.5C 12.5,21.1667 12.5,26.8333 12.5,32.5C 10.8333,32.5 9.16667,32.5 7.5,32.5C 7.5,26.8333 7.5,21.1667 7.5,15.5 Z"/></g>
<g><path style="opacity:1" fill="#f6f8fb" d="M 32.5,32.5 C 30.8333,32.5 29.1667,32.5 27.5,32.5C 27.6655,28.4862 27.4988,24.4862 27,20.5C 25.3333,19.1667 23.6667,19.1667 22,20.5C 21.8238,24.6877 21.3238,28.6877 20.5,32.5C 19.1667,32.5 17.8333,32.5 16.5,32.5C 16.5,26.8333 16.5,21.1667 16.5,15.5C 18.4672,15.2606 20.3005,15.5939 22,16.5C 25.6068,13.7312 28.9401,14.0645 32,17.5C 32.4993,22.4889 32.6659,27.4889 32.5,32.5 Z"/></g>
<g><path style="opacity:1" fill="#ebf0f8" d="M -0.5,33.5 C 1.5,36.1667 3.83333,38.5 6.5,40.5C 4.16667,40.5 1.83333,40.5 -0.5,40.5C -0.5,38.1667 -0.5,35.8333 -0.5,33.5 Z"/></g>
<g><path style="opacity:1" fill="#e6ecf4" d="M 40.5,32.5 C 40.5,35.1667 40.5,37.8333 40.5,40.5C 37.8333,40.5 35.1667,40.5 32.5,40.5C 36.1667,38.8333 38.8333,36.1667 40.5,32.5 Z"/></g>
</svg>
