<?xml version="1.0" encoding="UTF-8"?>
<!DOCTYPE svg PUBLIC "-//W3C//DTD SVG 1.1//EN" "http://www.w3.org/Graphics/SVG/1.1/DTD/svg11.dtd">
<svg xmlns="http://www.w3.org/2000/svg" version="1.1" width="128px" height="128px" style="shape-rendering:geometricPrecision; text-rendering:geometricPrecision; image-rendering:optimizeQuality; fill-rule:evenodd; clip-rule:evenodd" xmlns:xlink="http://www.w3.org/1999/xlink">
<g><path style="opacity:0.918" fill="#8D8D8E" d="M 13.5,5.5 C 27.6739,4.17275 33.8406,10.5061 32,24.5C 28.2746,31.4452 22.4413,34.2785 14.5,33C 4.46888,29.9781 0.968884,23.4781 4,13.5C 6.16084,9.49524 9.32751,6.82857 13.5,5.5 Z"/></g>
<g><path style="opacity:0.952" fill="#8D8D8E" d="M 86.5,41.5 C 105.974,38.6404 118.141,46.6404 123,65.5C 123.5,84.1637 123.667,102.83 123.5,121.5C 114.833,121.5 106.167,121.5 97.5,121.5C 97.6666,106.163 97.4999,90.8297 97,75.5C 94.6169,63.3916 87.7836,59.8916 76.5,65C 74.3834,66.7309 72.8834,68.8976 72,71.5C 71.5001,88.1633 71.3334,104.83 71.5,121.5C 62.5,121.5 53.5,121.5 44.5,121.5C 44.5,95.1667 44.5,68.8333 44.5,42.5C 53.5,42.5 62.5,42.5 71.5,42.5C 71.3354,45.5184 71.502,48.5184 72,51.5C 76.3248,47.2683 81.1581,43.9349 86.5,41.5 Z"/></g>
<g><path style="opacity:0.934" fill="#8D8D8E" d="M 4.5,42.5 C 13.5,42.5 22.5,42.5 31.5,42.5C 31.5,68.8333 31.5,95.1667 31.5,121.5C 22.5,121.5 13.5,121.5 4.5,121.5C 4.5,95.1667 4.5,68.8333 4.5,42.5 Z"/></g>
</svg>
