<?xml version="1.0" standalone="no"?>
<!DOCTYPE svg PUBLIC "-//W3C//DTD SVG 20010904//EN"
 "http://www.w3.org/TR/2001/REC-SVG-20010904/DTD/svg10.dtd">
<svg version="1.0" xmlns="http://www.w3.org/2000/svg"
 width="2268.000000pt" height="2746.000000pt" viewBox="0 0 2268.000000 2746.000000"
 preserveAspectRatio="xMidYMid meet">

<g transform="translate(0.000000,2746.000000) scale(0.100000,-0.100000)"
fill="#000000" stroke="none">
<path d="M11515 26431 c-18 -8 -16 -10 10 -10 41 -2 60 -14 43 -28 -14 -12
-117 -51 -155 -60 -12 -3 -30 -14 -39 -24 -18 -20 -54 -26 -54 -10 0 5 12 18
27 29 16 11 26 23 23 26 -7 6 -136 -78 -180 -117 -16 -15 -30 -34 -30 -42 0
-11 -7 -14 -25 -9 -13 3 -44 -1 -69 -11 -24 -9 -49 -14 -55 -11 -5 4 -25 -4
-44 -16 -19 -13 -43 -29 -53 -35 -17 -11 -16 -12 9 -7 30 7 36 -6 13 -29 -26
-26 -111 -76 -141 -83 -28 -6 -135 -103 -135 -122 0 -5 -12 -15 -27 -22 -16
-8 -44 -30 -64 -49 -55 -55 -113 -106 -121 -107 -5 -1 -11 -2 -14 -3 -4 0 -2
-7 4 -14 16 -19 -14 -60 -39 -54 -14 4 -30 -7 -55 -38 -35 -41 -70 -61 -178
-102 -26 -10 -49 -22 -51 -28 -2 -5 -6 -22 -9 -36 -5 -22 -17 -30 -68 -49
-115 -40 -113 -39 -93 -54 22 -16 8 -42 -44 -77 -59 -40 -200 -175 -201 -192
0 -5 -26 -38 -57 -74 -54 -62 -56 -66 -38 -79 10 -8 20 -22 21 -31 3 -18 -34
-87 -77 -143 -63 -82 -133 -257 -145 -360 -17 -147 -11 -227 24 -307 18 -39
32 -86 32 -103 0 -17 5 -41 11 -52 7 -14 8 -27 1 -42 -5 -11 -15 -60 -21 -107
-6 -47 -26 -128 -44 -180 -35 -98 -35 -133 -2 -145 21 -8 14 -65 -14 -129 -32
-73 -24 -168 22 -263 6 -13 10 -36 9 -52 -1 -16 2 -32 8 -35 6 -4 8 -10 6 -14
-3 -4 -7 -19 -10 -34 -4 -21 -1 -27 14 -27 14 0 18 -8 18 -37 1 -21 1 -49 2
-63 0 -14 0 -43 0 -64 0 -22 6 -47 14 -55 8 -9 14 -31 14 -50 -1 -18 5 -37 13
-42 11 -6 11 -14 2 -38 -9 -26 -8 -34 9 -56 11 -14 16 -25 11 -25 -5 0 -10
-14 -11 -31 -3 -41 31 -115 57 -124 12 -3 21 -13 21 -20 0 -8 9 -19 20 -25 11
-6 20 -20 20 -31 0 -19 1 -19 16 -5 25 25 47 20 42 -9 -3 -13 -2 -22 3 -19 4
2 12 -3 17 -13 9 -15 13 -13 42 15 17 18 35 30 39 28 8 -5 5 -145 -3 -154 -3
-3 -6 -14 -6 -25 0 -16 3 -17 14 -7 8 6 12 18 9 26 -3 8 1 14 10 14 27 0 41
31 43 99 1 65 6 103 23 191 5 25 14 77 20 115 39 258 50 337 56 395 3 36 15
92 26 125 29 86 41 159 40 244 0 41 3 79 8 85 8 11 17 93 27 256 3 47 7 108
10 135 3 28 6 61 8 75 1 14 8 35 14 48 16 28 24 182 10 182 -7 0 -8 18 -4 51
4 29 3 56 -3 63 -6 7 0 34 20 81 42 100 41 98 95 125 27 14 47 30 44 35 -6 13
-50 14 -72 3 -10 -5 -18 -5 -18 0 0 10 25 35 99 100 30 26 75 69 100 95 24 26
50 46 57 43 6 -2 22 5 35 17 17 16 21 17 17 5 -4 -10 -1 -19 7 -22 8 -3 17 4
21 17 10 34 35 57 60 57 13 0 27 8 32 17 6 10 24 17 48 18 127 7 329 28 389
42 90 20 146 46 217 100 66 50 70 56 62 76 -7 20 -31 11 -39 -13 -10 -32 -194
-133 -234 -128 -26 3 -25 4 69 48 8 4 27 24 41 45 33 49 106 90 128 72 12 -9
13 -9 7 1 -9 15 15 16 60 3 33 -9 48 -4 50 17 2 29 5 33 26 41 14 5 48 2 87
-7 60 -13 65 -13 77 3 20 26 101 18 184 -18 38 -17 47 -19 28 -7 -13 8 -18 24
-18 61 0 47 2 50 21 44 15 -5 19 -4 15 4 -12 19 50 17 74 -3 38 -30 126 -57
260 -81 113 -20 152 -19 241 5 41 12 114 27 162 35 49 8 98 17 108 20 11 4 50
7 87 7 36 0 78 5 92 10 18 7 27 6 35 -5 6 -8 39 -17 84 -21 40 -4 83 -11 95
-16 11 -4 39 -13 61 -20 27 -8 46 -22 57 -41 10 -16 24 -29 33 -29 8 0 15 -5
15 -11 0 -6 7 -8 16 -5 21 8 111 -74 136 -123 9 -18 26 -40 38 -48 11 -8 20
-22 20 -32 0 -10 6 -31 14 -47 21 -41 38 -86 43 -107 1 -10 10 -31 18 -47 17
-32 20 -54 6 -46 -4 3 -8 -7 -7 -22 1 -22 6 -28 29 -30 25 -3 27 -6 15 -20 -7
-9 -8 -13 -3 -10 12 7 37 -17 27 -26 -3 -4 2 -4 13 0 11 4 17 4 13 -1 -4 -4
14 -22 40 -40 53 -36 68 -79 36 -102 -23 -17 -35 -17 -28 1 3 8 0 17 -5 21 -6
3 -8 11 -5 17 4 5 -5 3 -18 -6 -14 -9 -28 -13 -33 -9 -9 10 16 -36 32 -57 6
-8 13 -29 16 -47 3 -17 8 -37 12 -44 4 -6 1 -15 -6 -20 -9 -6 -10 -12 -4 -16
6 -5 10 -15 10 -23 -1 -8 6 -24 16 -35 23 -28 41 -87 44 -149 1 -29 8 -62 15
-75 7 -13 14 -37 17 -53 2 -16 22 -64 43 -106 21 -42 42 -90 45 -107 4 -16 20
-57 36 -91 17 -33 31 -68 33 -76 1 -9 7 -22 13 -29 6 -8 19 -34 29 -59 9 -25
20 -49 24 -55 4 -5 11 -26 15 -45 4 -19 13 -44 21 -55 7 -11 15 -36 18 -56 3
-20 11 -49 17 -65 7 -16 13 -31 14 -34 1 -3 7 -18 14 -35 7 -16 19 -45 27 -63
8 -18 14 -38 14 -45 0 -7 9 -32 20 -55 11 -22 20 -45 20 -50 0 -6 9 -29 20
-53 11 -24 20 -56 20 -70 0 -15 7 -32 15 -39 8 -7 15 -20 15 -30 0 -21 40 -60
40 -39 1 9 7 6 19 -8 11 -13 23 -23 27 -23 4 0 4 40 1 88 l-5 88 50 49 c51 50
98 124 98 154 0 9 9 31 20 49 14 23 18 42 14 68 -3 20 -1 41 6 49 8 9 11 51
10 117 -1 57 -2 112 -2 123 2 129 -4 382 -9 390 -4 6 -14 33 -23 62 -13 40
-15 57 -6 72 8 16 7 28 -6 53 -15 28 -15 40 -4 95 10 50 10 66 0 78 -8 9 -11
47 -10 107 0 51 1 107 0 123 -1 40 -28 134 -47 165 -9 13 -18 42 -20 65 -5 44
-39 102 -65 111 -9 3 -20 13 -23 24 -20 64 -10 78 24 33 12 -14 23 -24 26 -22
8 8 -66 94 -88 103 -51 20 -67 30 -72 46 -3 9 -22 34 -43 54 -28 29 -43 37
-64 34 -18 -3 -36 3 -55 20 -15 13 -40 26 -56 29 -15 3 -36 18 -47 33 -12 17
-33 30 -55 34 -19 4 -40 15 -47 24 -8 10 -29 19 -52 21 -22 1 -48 4 -58 6 -9
2 -20 0 -23 -6 -4 -5 -16 -9 -27 -9 -19 0 -20 1 -5 18 15 16 12 17 -55 20 -39
1 -86 9 -104 17 -30 12 -35 12 -43 -3 -7 -13 -13 -14 -22 -5 -9 9 -5 24 14 65
14 29 22 57 17 62 -5 5 -6 16 -2 25 5 14 4 15 -14 1 -17 -14 -18 -14 -6 1 10
14 10 25 -3 63 -9 25 -15 60 -13 78 1 27 -14 55 -84 153 -87 123 -119 178
-144 247 -7 21 -25 53 -39 72 -14 18 -25 36 -25 40 0 4 -34 48 -76 96 -77 90
-130 138 -162 145 -34 7 -134 45 -170 64 -20 11 -80 40 -132 65 -52 26 -107
54 -122 63 -21 14 -30 15 -39 6 -9 -9 -9 -16 1 -28 11 -13 8 -15 -17 -15 -33
0 -54 16 -46 36 9 23 -64 47 -151 50 -57 3 -92 10 -130 28 -28 13 -69 29 -91
34 -22 6 -67 18 -100 28 -68 19 -316 30 -350 15z m268 -52 c20 -5 37 -14 37
-19 0 -11 -50 -19 -101 -17 -22 0 -43 -6 -53 -16 -20 -19 -28 -21 -41 -8 -6 5
-31 6 -57 2 -100 -16 -63 31 47 59 44 12 125 11 168 -1z m117 -39 c0 -5 -7
-10 -16 -10 -8 0 -12 5 -9 10 3 6 10 10 16 10 5 0 9 -4 9 -10z m399 -64 c19
-23 -5 -28 -30 -6 -24 19 -24 19 -3 20 12 0 27 -6 33 -14z m-1048 -39 c-10 -9
-11 -8 -5 6 3 10 9 15 12 12 3 -3 0 -11 -7 -18z m1428 -138 c20 -7 31 -18 31
-30 0 -10 3 -18 8 -17 23 6 132 -71 132 -94 0 -13 -32 -9 -49 7 -27 25 -105
79 -144 99 -37 19 -43 27 -30 39 9 9 15 9 52 -4z m-1704 -100 c-4 -5 -15 -14
-26 -19 -23 -13 -26 2 -3 24 16 16 39 12 29 -5z m-426 -436 c0 -41 -2 -45 -11
-26 -10 20 -4 73 7 73 3 0 5 -21 4 -47z m2787 -200 c-4 -4 -11 -1 -16 7 -16
25 -11 35 7 17 9 -9 13 -20 9 -24z m-3091 -193 c1 -15 -1 -17 -11 -9 -7 6 -10
17 -7 25 7 18 16 10 18 -16z m3138 -15 c-3 -9 -8 -14 -10 -11 -3 3 -2 9 2 15
9 16 15 13 8 -4z m-1277 -10 c4 -8 15 -15 27 -15 11 0 28 -7 37 -15 21 -19 58
-27 65 -14 8 12 55 12 55 0 0 -10 5 -9 56 3 22 5 45 2 70 -9 l39 -16 -45 -21
c-100 -46 -378 -17 -416 43 -4 7 -3 10 2 6 12 -7 38 13 47 36 8 21 55 23 63 2z
m-1859 -20 c0 -8 -4 -12 -9 -9 -5 3 -6 10 -3 15 9 13 12 11 12 -6z m-517 -136
c0 -28 -57 -109 -77 -109 -12 0 -14 7 -8 38 11 61 85 123 85 71z m1350 -105
c0 -8 -19 -13 -24 -6 -3 5 1 9 9 9 8 0 15 -2 15 -3z m-100 -29 c-7 -8 -17 -15
-22 -15 -11 0 14 29 26 30 5 0 3 -7 -4 -15z m2845 -15 c3 -6 -1 -7 -9 -4 -18
7 -21 14 -7 14 6 0 13 -4 16 -10z m-4073 -17 c-6 -2 -9 -10 -6 -15 4 -7 2 -8
-5 -4 -13 9 -5 26 12 25 9 0 8 -2 -1 -6z m4185 -40 c0 -7 -4 -13 -9 -13 -4 0
-8 5 -8 11 0 5 -5 7 -12 3 -6 -4 -8 -3 -5 3 9 14 34 12 34 -4z m-150 1 c-3 -3
-12 -4 -19 -1 -8 3 -5 6 6 6 11 1 17 -2 13 -5z m58 -30 c14 -9 25 -23 25 -30
0 -8 8 -18 18 -21 29 -11 80 -73 59 -73 -1 0 -36 32 -76 70 -70 66 -81 90 -26
54z m200 -94 c10 -11 16 -20 13 -20 -3 0 -13 9 -23 20 -10 11 -16 20 -13 20 3
0 13 -9 23 -20z"/>
<path d="M11590 25010 c0 -5 5 -10 11 -10 5 0 7 5 4 10 -3 6 -8 10 -11 10 -2
0 -4 -4 -4 -10z"/>
<path d="M11129 24853 c-13 -15 -12 -15 9 -4 23 12 28 21 13 21 -5 0 -15 -7
-22 -17z"/>
<path d="M10354 24465 c-4 -8 -10 -15 -15 -15 -5 0 -18 -9 -29 -20 -11 -11
-15 -20 -9 -20 14 0 79 50 79 61 0 15 -20 10 -26 -6z"/>
<path d="M12580 23609 c0 -4 8 -10 18 -14 16 -6 16 -7 -1 -17 -14 -7 -22 -7
-30 2 -9 10 -9 11 2 5 10 -6 12 -4 7 4 -6 9 -11 9 -22 0 -11 -9 -14 -8 -14 2
0 11 -2 11 -9 -1 -6 -8 -7 -19 -3 -25 3 -6 0 -6 -9 1 -14 12 -46 11 -57 -1 -4
-4 2 -5 12 -3 33 5 29 -20 -6 -42 -45 -27 -51 -25 -42 12 6 30 5 31 -10 19
-23 -19 -43 -57 -24 -45 9 6 8 1 -3 -16 -9 -14 -28 -26 -43 -28 -14 -2 -26 -9
-26 -17 0 -7 -7 -16 -16 -19 -14 -5 -15 -4 -5 8 7 8 8 17 3 20 -6 3 -18 -6
-27 -20 -9 -15 -12 -23 -5 -19 8 5 8 2 -1 -13 -7 -12 -9 -27 -4 -38 4 -11 9
-28 11 -39 1 -11 0 -14 -3 -7 -4 10 -8 9 -18 -5 -9 -12 -10 -22 -4 -30 7 -7 6
-14 -1 -18 -8 -5 -8 -11 1 -21 6 -8 8 -14 3 -15 -5 0 0 -5 11 -10 19 -9 18 -9
-2 -5 -13 2 -23 0 -23 -5 0 -5 10 -9 21 -9 18 0 20 -2 9 -15 -11 -13 -15 -13
-21 -3 -7 10 -9 10 -9 -2 0 -10 -3 -11 -8 -4 -5 9 -11 8 -20 -2 -7 -8 -10 -14
-6 -14 3 0 1 -6 -5 -13 -6 -8 -8 -17 -4 -20 9 -10 10 -57 1 -57 -4 0 -8 -5 -8
-11 0 -5 5 -7 11 -3 6 3 4 -7 -5 -23 -16 -32 -6 -56 20 -46 8 3 14 0 14 -7 0
-6 4 -9 9 -6 4 3 19 -3 31 -14 13 -11 33 -20 45 -20 12 0 25 -3 29 -7 4 -5 24
-13 44 -19 20 -6 36 -16 35 -22 -2 -7 -4 -18 -5 -24 -4 -17 95 -16 173 1 50
11 57 15 57 36 0 27 37 64 64 65 12 0 21 -13 28 -39 6 -25 18 -42 30 -46 27
-9 212 4 285 19 44 9 82 10 131 4 38 -5 97 -6 131 -3 50 4 71 2 100 -13 21
-11 47 -17 58 -15 11 2 41 6 68 9 26 3 47 10 47 14 0 5 3 17 6 27 3 10 2 14
-3 8 -4 -5 -13 -11 -19 -12 -6 -1 -23 -4 -38 -7 -18 -3 -35 3 -55 20 -16 13
-38 24 -49 24 -11 0 -39 11 -63 24 -24 13 -64 27 -88 30 -24 3 -55 13 -68 21
-13 9 -28 13 -33 10 -5 -3 -37 -1 -71 5 -129 24 -220 22 -335 -5 -58 -15 -109
-23 -113 -20 -8 9 30 36 40 29 5 -3 9 -1 9 5 0 5 9 13 21 16 13 4 18 12 15 22
-11 27 13 50 73 73 50 18 71 21 128 15 101 -10 194 -23 230 -34 39 -11 136
-64 181 -97 18 -14 42 -24 55 -22 14 2 21 -2 19 -10 -1 -8 2 -11 8 -7 7 4 7
12 0 24 -5 10 -7 21 -4 24 3 3 -8 12 -24 21 -16 8 -32 27 -36 40 -4 17 -11 23
-22 19 -8 -3 -14 -2 -13 3 1 5 -1 22 -6 38 -6 23 -4 32 10 43 22 15 36 2 30
-30 -4 -16 -2 -17 12 -5 15 12 15 11 5 -9 -9 -16 -9 -24 0 -29 7 -5 9 -2 4 7
-4 8 -1 6 6 -5 26 -38 60 -66 70 -60 7 5 9 1 5 -9 -4 -12 -2 -14 10 -10 12 5
14 3 8 -7 -6 -10 -4 -12 9 -7 12 5 15 3 9 -6 -11 -18 -13 -38 -2 -31 5 3 7 8
5 12 -2 4 2 13 9 19 11 10 15 9 19 -5 3 -9 4 -27 1 -40 -4 -25 22 -32 31 -7 4
8 10 13 15 10 4 -3 6 5 3 17 -3 13 -7 30 -8 38 -2 8 1 20 5 26 6 7 3 16 -6 24
-8 7 -15 21 -15 31 0 10 -5 21 -12 25 -7 4 -8 3 -4 -4 11 -18 0 -14 -15 5 -11
13 -11 15 -1 9 9 -6 12 -3 10 10 -2 11 -10 22 -18 26 -11 5 -10 7 5 7 17 1 17
3 5 11 -11 7 -11 10 -2 10 10 0 10 3 0 14 -16 17 -32 15 -55 -6 -16 -14 -21
-15 -37 -2 -15 11 -22 11 -35 1 -12 -10 -13 -9 -6 2 6 10 4 12 -4 7 -7 -5 -10
-14 -7 -22 4 -11 -1 -10 -18 3 -19 14 -22 22 -14 37 7 13 7 16 -1 11 -7 -3
-10 -1 -9 6 2 7 -2 13 -9 14 -6 0 -14 3 -18 7 -4 3 0 5 9 4 8 -1 19 -5 22 -9
13 -13 27 -7 15 6 -8 11 -5 13 19 9 16 -2 27 -8 24 -13 -3 -5 3 -6 13 -3 16 5
16 4 -1 -10 -10 -8 -23 -13 -27 -10 -16 9 -10 -3 8 -17 15 -12 16 -12 8 1 -8
13 -7 13 8 1 15 -12 17 -11 18 5 0 11 2 30 5 43 5 29 -14 45 -34 28 -13 -10
-33 -15 -88 -19 -15 -1 -20 -7 -16 -17 3 -9 2 -13 -3 -9 -4 4 -14 0 -21 -10
-12 -16 -12 -16 -11 3 1 11 7 23 12 27 6 5 5 8 -3 8 -7 0 -11 4 -8 8 3 5 -9 8
-26 7 -29 -2 -30 -1 -12 12 10 8 27 12 37 9 14 -3 16 -1 7 9 -9 11 -4 12 24 5
20 -4 34 -4 31 0 -3 5 11 7 30 6 19 -2 35 1 35 7 0 5 9 7 20 4 11 -3 18 -1 14
4 -3 5 -1 9 4 9 5 0 9 7 9 15 0 8 -3 12 -7 10 -3 -2 -12 0 -20 6 -13 7 -12 9
1 9 20 0 34 29 16 35 -6 2 -21 5 -32 7 -11 2 -35 13 -54 25 -23 15 -43 20 -65
16 -48 -8 -79 -4 -88 10 -5 8 -8 6 -9 -8 l0 -20 -9 20 c-5 11 -9 16 -9 12 -1
-4 -11 -3 -22 4 -17 9 -20 8 -14 -3 6 -10 5 -10 -5 -1 -10 9 -17 9 -31 0 -15
-9 -22 -8 -35 5 -13 13 -22 14 -45 6 -20 -7 -33 -7 -42 0 -7 6 -47 13 -90 15
-44 3 -84 11 -94 18 -14 12 -16 12 -8 -1 8 -13 7 -13 -10 0 -13 11 -43 15
-107 15 -48 0 -88 -3 -88 -6z m-246 -220 c-21 -24 -30 -24 -36 -1 -4 13 2 18
24 19 28 1 28 0 12 -18z m806 -94 c0 5 8 1 18 -7 9 -9 27 -14 39 -12 12 2 26
4 30 5 23 4 43 -2 38 -11 -4 -6 -11 -8 -16 -5 -5 3 -6 -1 -3 -9 7 -19 25 -20
43 -3 11 10 13 10 7 0 -4 -8 -1 -13 8 -13 9 0 16 -5 16 -11 0 -5 -4 -8 -9 -5
-5 3 -11 -1 -15 -9 -3 -8 0 -15 7 -16 9 0 9 -2 -1 -6 -6 -2 -9 -10 -5 -16 4
-7 -1 -6 -10 2 -9 7 -17 11 -17 8 0 -3 -11 4 -25 17 -14 13 -25 27 -25 32 0 5
5 2 11 -6 8 -12 10 -12 7 -1 -5 18 -54 26 -63 11 -5 -8 -14 -5 -27 7 -15 13
-19 14 -16 3 2 -12 -7 -15 -39 -14 -60 2 -90 11 -90 29 0 8 5 15 11 16 6 0 18
2 26 4 8 2 26 6 39 9 13 3 26 8 29 11 3 2 11 0 19 -6 7 -6 13 -8 13 -4z m185
-125 c3 -5 1 -10 -4 -10 -6 0 -11 5 -11 10 0 6 2 10 4 10 3 0 8 -4 11 -10z
m259 -58 c3 -5 -1 -9 -9 -9 -8 0 -12 4 -9 9 3 4 7 8 9 8 2 0 6 -4 9 -8z m-25
-26 c8 -10 9 -16 1 -21 -6 -4 -9 -1 -8 7 2 7 -3 12 -10 10 -8 -1 -11 2 -7 8 8
13 10 13 24 -4z"/>
<path d="M13146 23280 c5 -8 9 -18 9 -22 0 -16 13 -17 26 -1 7 10 9 15 4 10
-4 -4 -17 1 -28 10 -14 13 -18 13 -11 3z"/>
<path d="M11060 23319 c-41 -4 -93 -13 -115 -19 -22 -7 -59 -14 -82 -15 -29
-2 -55 -13 -80 -32 -21 -16 -59 -37 -86 -47 -26 -10 -54 -24 -62 -33 -8 -8
-15 -12 -15 -9 0 7 -82 -32 -90 -43 -5 -6 -15 -7 -104 -14 -21 -1 -43 -10 -50
-19 -18 -24 -63 -40 -70 -25 -4 7 -4 2 -2 -11 3 -17 1 -22 -9 -18 -7 2 -19 -2
-25 -10 -12 -14 -11 -15 11 -18 7 0 16 -11 20 -24 6 -15 5 -21 -1 -17 -6 3
-10 14 -10 23 0 13 -6 10 -24 -10 -13 -16 -28 -28 -33 -28 -5 0 -10 -7 -10
-15 0 -8 4 -15 9 -15 5 0 6 -4 3 -10 -9 -14 8 -12 24 3 9 7 12 8 7 0 -5 -10
12 -11 34 -3 3 1 8 2 12 1 5 0 7 2 7 7 -1 4 -1 16 0 27 1 16 3 17 10 6 5 -8
15 -16 23 -17 7 -2 24 -5 38 -8 l25 -5 -28 24 c-15 14 -24 25 -18 25 5 0 17
-7 25 -15 12 -12 20 -13 34 -6 11 6 23 7 27 3 5 -4 5 -2 2 5 -4 6 -17 9 -30 7
l-22 -5 23 10 c12 6 25 17 28 24 3 8 17 13 32 12 41 -3 44 -4 36 -17 -4 -7 -3
-8 5 -4 13 9 43 -12 36 -24 -3 -5 6 -17 20 -28 13 -11 21 -23 17 -27 -4 -3 -7
-12 -7 -18 -1 -7 -6 -11 -13 -9 -7 1 -12 -5 -12 -14 0 -11 -6 -15 -19 -11 -14
3 -18 1 -14 -9 3 -8 1 -14 -4 -14 -4 0 -19 -10 -33 -23 -14 -13 -33 -26 -43
-30 -10 -4 -17 -12 -16 -19 3 -26 -1 -39 -11 -33 -5 3 -7 0 -4 -8 3 -8 -3 -18
-13 -22 -28 -12 -43 -14 -43 -5 0 5 -8 7 -17 5 -10 -2 -21 -4 -25 -4 -4 -1 -5
-10 -3 -21 2 -11 0 -22 -5 -25 -18 -11 10 -65 34 -65 7 0 33 13 58 29 25 16
49 26 53 23 4 -4 5 2 1 13 -9 31 101 137 199 190 99 54 221 85 262 66 l27 -13
-24 -19 c-14 -10 -43 -24 -65 -30 -22 -6 -48 -17 -59 -25 -11 -8 -30 -14 -42
-14 -12 0 -24 -7 -28 -15 -3 -8 -12 -15 -21 -15 -8 0 -23 -4 -33 -9 -9 -5 -33
-16 -53 -25 -58 -25 -143 -86 -157 -112 -7 -13 -10 -24 -7 -24 3 0 -6 -10 -20
-23 -26 -21 -26 -23 -6 -24 12 -1 33 5 49 13 15 7 36 14 47 14 11 0 37 12 58
26 21 14 44 23 51 21 16 -6 76 19 77 33 7 53 30 58 74 14 25 -26 193 -23 325
6 25 5 54 8 65 6 20 -3 21 -10 11 -53 -2 -13 -1 -25 5 -28 5 -4 9 1 9 9 0 8 5
18 12 22 7 5 8 3 3 -6 -5 -9 -4 -11 4 -6 9 6 9 11 1 21 -13 16 1 28 24 19 8
-3 41 2 72 11 39 11 73 14 102 10 30 -4 42 -3 37 4 -3 6 -3 11 2 11 4 0 28 18
53 40 25 22 53 43 62 46 22 7 31 39 25 90 -6 47 -17 76 -31 86 -8 5 -7 8 1 8
7 0 -7 18 -32 41 -26 24 -42 46 -38 55 3 9 -1 14 -11 14 -26 0 -36 41 -17 69
14 23 14 25 -7 39 -12 8 -22 23 -22 33 0 25 -47 56 -95 62 -22 3 -47 9 -56 12
-9 3 -23 0 -31 -8 -7 -8 -26 -13 -42 -11 -32 3 -79 31 -72 43 6 9 8 9 -94 0z
m-755 -379 c-3 -5 -16 -10 -28 -9 -20 1 -20 2 3 9 14 4 26 8 28 9 2 1 0 -3 -3
-9z m875 -194 c0 -17 -27 -29 -35 -16 -4 6 -3 15 0 20 9 15 35 12 35 -4z
m-839 -143 c13 -16 12 -17 -3 -4 -17 13 -22 21 -14 21 2 0 10 -8 17 -17z"/>
<path d="M12222 23249 c4 -9 2 -21 -4 -27 -6 -6 -5 -12 4 -17 7 -5 10 -5 6 0
-4 4 -1 13 8 20 14 10 14 12 -2 26 -16 12 -17 12 -12 -2z"/>
<path d="M12200 23240 c0 -5 5 -10 11 -10 5 0 7 5 4 10 -3 6 -8 10 -11 10 -2
0 -4 -4 -4 -10z"/>
<path d="M13346 23192 c-2 -4 -1 -14 4 -22 7 -11 9 -9 7 8 -1 24 -3 26 -11 14z"/>
<path d="M10499 23175 c0 -5 -2 -18 -4 -27 -2 -10 2 -21 8 -25 7 -3 9 -3 5 2
-4 4 -4 13 2 19 5 7 5 17 0 26 -6 8 -10 11 -11 5z"/>
<path d="M13610 23026 c0 -2 8 -10 18 -17 15 -13 16 -12 3 4 -13 16 -21 21
-21 13z"/>
<path d="M10420 22932 c0 -5 7 -9 15 -9 8 0 12 4 9 9 -3 4 -9 8 -15 8 -5 0 -9
-4 -9 -8z"/>
<path d="M10555 22930 c-3 -5 -5 -10 -3 -11 33 -8 38 -7 27 7 -14 17 -16 17
-24 4z"/>
<path d="M10505 22881 c3 -5 -12 -15 -32 -21 -21 -7 -42 -17 -48 -22 -6 -6 -3
-6 9 -2 13 5 17 4 12 -4 -5 -8 -2 -10 8 -6 9 3 13 11 9 17 -4 6 0 8 10 4 10
-3 17 -3 17 2 0 4 10 12 22 18 19 8 20 10 4 16 -9 4 -15 3 -11 -2z"/>
<path d="M12608 22738 c-7 -4 -8 -8 -3 -8 6 0 3 -5 -5 -10 -11 -7 -11 -10 -2
-10 7 0 10 -5 7 -10 -4 -6 -3 -10 2 -8 13 3 77 -13 89 -23 7 -5 57 -18 113
-29 136 -26 265 -19 350 18 20 9 39 15 44 14 4 -1 7 2 7 8 0 5 7 7 15 4 11 -5
13 -2 9 11 -6 15 -16 17 -78 10 -211 -21 -353 -14 -478 24 -32 10 -63 14 -70
9z"/>
<path d="M10343 22726 c1 -6 -4 -10 -11 -8 -8 1 -11 -2 -8 -7 9 -14 41 -6 44
11 2 8 -4 15 -12 15 -8 0 -14 -5 -13 -11z"/>
<path d="M14496 22679 c-32 -38 -32 -41 2 -92 15 -23 52 -84 82 -134 30 -51
58 -93 61 -93 11 0 20 31 12 43 -3 6 -8 24 -9 41 -2 31 -12 103 -18 141 -5 28
-62 111 -82 119 -22 8 -19 9 -48 -25z"/>
<path d="M11240 22657 c0 -3 14 -16 32 -28 17 -13 28 -18 25 -12 -4 7 -4 14 1
17 5 3 9 -2 9 -10 0 -9 -11 -20 -24 -25 -13 -5 -26 -16 -30 -24 -3 -9 -12 -14
-20 -11 -8 3 -11 2 -8 -4 5 -8 -82 -40 -112 -40 -7 0 -12 -5 -10 -11 1 -6 -22
-18 -51 -27 -30 -10 -52 -19 -49 -22 3 -3 -7 -6 -21 -6 -15 -1 -42 -4 -59 -8
-18 -3 -48 -8 -65 -11 -18 -3 -35 -10 -37 -16 -2 -8 -5 -8 -10 0 -5 8 -27 9
-77 2 l-69 -8 55 -3 c30 -1 58 -2 63 -1 4 0 7 -3 7 -9 0 -18 153 -1 231 25 84
29 214 91 243 118 11 9 23 17 28 17 16 0 47 39 37 46 -6 3 -8 18 -5 33 5 19 4
22 -4 11 -9 -13 -10 -13 -10 0 0 9 -3 11 -8 5 -11 -15 -32 -17 -48 -4 -8 6
-14 9 -14 6z"/>
<path d="M10359 22563 c19 -4 21 -7 10 -14 -11 -7 -10 -9 4 -9 28 0 14 25 -14
27 l-24 1 24 -5z"/>
<path d="M14303 22245 c-21 -23 -16 -145 7 -199 12 -25 23 -46 26 -46 3 0 2 6
-1 13 -3 6 1 2 11 -10 l16 -22 28 27 c27 27 27 27 9 54 -11 14 -16 33 -13 41
3 8 1 18 -5 22 -7 4 -5 15 7 33 9 14 11 23 5 19 -7 -5 -13 -4 -13 2 0 6 4 11
9 11 19 0 -3 42 -30 55 -34 18 -41 18 -56 0z m95 -196 c9 -12 9 -16 -1 -16 -7
0 -14 9 -14 20 -1 11 -1 18 0 16 2 -2 8 -11 15 -20z"/>
<path d="M9401 22204 c-36 -26 -52 -77 -52 -167 1 -95 4 -114 26 -161 9 -19
17 -41 19 -49 1 -8 8 -24 16 -36 13 -19 19 -21 42 -12 32 12 41 38 68 194 13
80 27 127 40 144 27 35 26 39 -17 67 -52 33 -111 42 -142 20z"/>
<path d="M12195 21899 c-38 -21 -73 -35 -77 -33 -5 3 -8 0 -8 -6 0 -6 -5 -8
-10 -5 -6 4 -8 11 -4 16 4 7 -10 9 -40 6 -27 -3 -44 -1 -40 4 3 5 10 6 16 3 6
-4 8 -2 5 3 -4 7 -20 8 -39 4 -18 -4 -52 -6 -74 -4 -24 2 -54 -3 -70 -12 -16
-8 -35 -15 -41 -15 -7 0 -13 -5 -13 -11 0 -5 -5 -7 -12 -3 -6 4 -8 3 -4 -4 3
-6 1 -14 -5 -18 -8 -4 -7 -9 2 -15 10 -6 8 -9 -9 -9 -13 0 -20 4 -17 10 3 5 0
7 -9 4 -8 -3 -25 2 -39 10 -52 35 -129 22 -189 -31 -20 -18 -19 -73 2 -91 13
-12 13 -13 0 -6 -8 4 -4 -5 9 -19 13 -15 28 -24 34 -20 6 3 7 2 4 -4 -9 -15
15 -43 41 -48 12 -2 27 -7 33 -10 14 -10 59 3 59 17 0 6 8 17 18 25 9 8 11 11
3 7 -8 -4 1 14 20 39 19 25 38 46 43 47 5 0 1 -10 -10 -22 -10 -13 -15 -20
-10 -16 5 4 15 3 23 -3 9 -9 13 -8 13 0 0 6 -5 11 -11 11 -5 0 -7 5 -4 10 4 6
10 8 15 5 4 -3 7 3 6 11 0 9 7 18 16 19 10 2 17 0 16 -3 -1 -4 3 -18 9 -32 6
-14 9 -36 7 -50 -1 -14 -3 -31 -3 -39 -1 -11 -4 -11 -18 0 -10 8 -14 9 -10 2
4 -6 3 -15 -3 -18 -6 -4 -9 -1 -8 7 2 8 -6 13 -20 12 -16 0 -21 4 -17 14 4 12
2 12 -8 4 -8 -7 -17 -8 -21 -4 -4 4 -6 2 -5 -3 5 -16 -11 -55 -22 -55 -6 0 -7
-6 -3 -12 5 -9 2 -9 -9 1 -13 10 -17 10 -17 1 0 -8 -8 -10 -21 -7 -12 3 -18 3
-15 0 6 -6 -32 -43 -44 -43 -5 0 -11 -8 -14 -17 -7 -17 12 -36 26 -27 12 8 30
-47 23 -73 -4 -19 0 -25 20 -33 35 -13 38 -13 31 6 -3 8 -2 13 2 10 5 -3 8 16
8 42 -1 51 -7 49 74 36 26 -4 40 -2 49 9 17 22 41 11 35 -16 -9 -44 -13 -79
-7 -73 3 3 13 1 20 -6 11 -9 16 -9 22 1 5 7 16 13 25 15 9 1 15 5 14 8 -2 3 3
12 11 21 11 14 11 17 0 18 -8 1 -18 1 -22 0 -5 -1 -6 3 -2 9 3 6 10 8 15 5 9
-6 7 10 -4 37 -4 9 -5 21 -2 27 7 10 -13 9 -31 -2 -19 -12 -24 8 -7 29 9 10
13 12 9 4 -4 -8 0 -6 9 4 8 10 13 23 9 29 -3 5 8 2 25 -8 17 -10 28 -23 25
-29 -4 -6 1 -5 10 3 9 7 17 10 17 5 0 -5 5 -2 10 6 9 13 10 13 10 0 0 -13 1
-13 10 0 8 13 10 12 10 -3 0 -11 4 -15 12 -11 7 5 8 3 3 -6 -6 -10 -4 -12 8
-7 12 4 15 1 12 -15 -3 -11 -7 -23 -11 -27 -4 -3 -4 2 0 13 5 14 3 17 -10 12
-8 -3 -21 -6 -27 -7 -7 0 -2 -4 11 -10 14 -5 21 -14 17 -21 -4 -7 3 -2 14 11
12 13 21 19 21 15 0 -5 7 0 15 10 8 10 27 19 43 20 22 1 28 5 24 16 -5 12 -3
13 10 2 12 -10 18 -10 27 2 9 11 9 16 0 22 -7 4 -9 3 -5 -4 3 -6 2 -13 -3 -16
-5 -4 -12 -2 -16 4 -4 6 -10 8 -15 5 -11 -7 -71 56 -64 67 3 5 11 4 18 -1 7
-6 17 -7 22 -3 4 4 3 0 -4 -9 -9 -13 -9 -16 3 -16 8 0 13 2 10 5 -2 3 0 13 5
23 8 15 7 17 -10 14 -18 -3 -19 -1 -8 18 6 12 17 27 24 34 10 11 14 9 19 -7 3
-11 12 -20 18 -20 7 0 6 -4 -3 -10 -12 -8 -12 -10 5 -10 17 0 17 -2 5 -10 -10
-7 -11 -10 -2 -10 7 0 15 7 18 15 4 8 15 15 25 15 17 0 24 11 20 33 -1 5 3 6
9 2 5 -3 10 -1 10 5 0 6 5 8 10 5 14 -8 13 -26 -1 -22 -6 1 -14 -5 -16 -13 -3
-9 -1 -11 4 -5 10 12 53 15 53 4 0 -15 53 -9 95 11 22 10 43 16 47 14 5 -3 11
2 14 10 3 9 11 13 18 10 6 -3 2 2 -8 10 -11 9 -15 16 -9 16 6 0 13 7 17 15 3
8 0 14 -6 12 -6 -1 -13 4 -16 12 -3 9 0 11 8 6 9 -6 11 -4 5 5 -6 10 -11 9
-22 -5 -7 -11 -13 -14 -13 -9 0 6 5 15 12 22 7 7 8 12 3 12 -4 0 -1 8 8 18 12
13 13 21 6 32 -9 12 -10 11 -4 -5 6 -20 6 -20 -13 0 -11 11 -17 25 -14 30 3 6
-3 3 -13 -5 -11 -9 -16 -10 -11 -2 8 13 -17 45 -28 35 -3 -4 -6 -1 -6 6 0 7
-4 10 -9 6 -5 -3 -12 -1 -15 4 -3 5 -32 8 -63 8 -46 -1 -72 -9 -128 -38z m-88
-153 c-6 -8 -19 -12 -27 -11 -8 2 -17 4 -20 4 -11 2 21 17 39 18 17 1 18 -1 8
-11z"/>
<path d="M9765 21818 c-28 -25 -39 -59 -21 -70 7 -5 4 -8 -7 -8 -10 0 -15 -5
-12 -10 4 -6 10 -8 14 -6 4 3 8 -1 8 -9 0 -8 -4 -12 -8 -10 -10 7 -5 -22 6
-32 4 -4 5 -2 1 4 -5 9 -2 11 10 6 16 -6 15 -7 -2 -20 -17 -12 -17 -13 5 -13
12 0 21 -6 20 -12 -4 -22 13 -48 25 -41 6 4 5 -1 -3 -10 -7 -9 -10 -17 -6 -17
4 0 2 -7 -5 -15 -7 -9 -20 -13 -29 -10 -11 5 -11 1 3 -14 10 -11 15 -24 12
-29 -3 -5 1 -9 9 -9 10 0 11 5 4 18 -12 24 -11 39 2 16 14 -23 20 -59 9 -52
-4 3 -7 -3 -6 -12 3 -19 26 -31 26 -13 0 6 4 9 9 5 5 -3 13 0 17 6 4 7 3 9 -3
6 -6 -4 -8 34 -5 106 3 62 5 140 5 174 0 91 -27 115 -78 71z"/>
<path d="M12159 21673 c-13 -16 -12 -17 4 -4 9 7 17 15 17 17 0 8 -8 3 -21
-13z"/>
<path d="M9619 21623 c-12 -13 -4 -33 13 -33 7 0 6 5 -1 14 -9 11 -9 16 0 22
7 4 9 3 5 -4 -3 -6 -2 -14 4 -17 8 -5 8 -11 0 -20 -8 -10 -8 -15 1 -21 8 -4 9
-3 5 4 -4 7 -5 12 -2 12 2 0 12 3 21 6 10 4 15 2 13 -6 -2 -7 5 -14 15 -15 9
-2 15 1 12 5 -3 5 0 12 6 15 7 5 3 15 -12 31 -23 25 -63 29 -80 7z m75 -12
c14 -15 14 -20 2 -30 -11 -9 -14 -8 -12 6 0 10 -5 18 -11 19 -23 3 -24 4 -18
14 9 15 20 12 39 -9z"/>
<path d="M9750 21627 c0 -8 10 -22 23 -33 l22 -19 -18 22 c-11 12 -16 27 -12
32 3 6 1 11 -4 11 -6 0 -11 -6 -11 -13z"/>
<path d="M11930 21566 c0 -2 7 -7 16 -10 8 -3 12 -2 9 4 -6 10 -25 14 -25 6z"/>
<path d="M11959 21527 c6 -8 7 -18 3 -22 -4 -5 -1 -5 6 -1 10 6 10 11 1 22 -6
8 -14 14 -16 14 -3 0 0 -6 6 -13z"/>
<path d="M12313 21475 c0 -8 4 -12 9 -9 5 3 6 10 3 15 -9 13 -12 11 -12 -6z"/>
<path d="M12351 21467 c-1 -11 -6 -15 -13 -11 -7 4 -8 3 -4 -5 4 -6 12 -8 18
-5 7 4 8 2 4 -4 -12 -20 3 -33 24 -22 12 6 17 18 15 31 -6 29 -14 36 -24 20
-7 -11 -10 -11 -14 0 -4 10 -6 8 -6 -4z"/>
<path d="M12070 21456 c0 -2 6 -9 13 -15 10 -8 14 -7 14 4 0 8 -6 15 -14 15
-7 0 -13 -2 -13 -4z"/>
<path d="M12407 21420 c-15 -22 -17 -72 -2 -68 6 2 11 8 11 13 1 6 3 12 4 15
4 12 8 60 5 60 -2 0 -10 -9 -18 -20z"/>
<path d="M12254 21422 c3 -6 2 -13 -4 -17 -12 -8 -13 -25 -1 -25 13 0 21 39 9
47 -6 3 -8 1 -4 -5z"/>
<path d="M11574 21383 c4 -7 2 -22 -4 -33 -8 -16 -8 -20 4 -20 22 0 29 32 10
49 -9 9 -14 10 -10 4z"/>
<path d="M9734 21344 c3 -9 6 -18 6 -20 0 -2 5 -4 11 -4 8 0 7 6 -2 18 -13 15
-12 16 3 4 10 -8 18 -9 22 -3 4 6 14 7 24 4 9 -3 14 -3 10 1 -4 5 -23 10 -43
12 -30 2 -36 0 -31 -12z"/>
<path d="M9774 21329 c-9 -15 -2 -18 20 -9 17 6 18 7 3 13 -9 3 -19 2 -23 -4z"/>
<path d="M12324 21305 c-3 -8 -3 -18 0 -23 3 -6 -1 -15 -9 -22 -10 -8 -15 -9
-15 -2 0 7 -7 9 -17 5 -10 -4 -14 -2 -10 4 5 8 -1 9 -20 3 -31 -9 -92 -25
-170 -42 -36 -8 -53 -17 -53 -28 0 -12 -2 -12 -9 -1 -5 8 -11 9 -15 3 -4 -6
-21 -4 -48 5 -42 14 -129 31 -196 38 -28 3 -37 -1 -50 -25 -14 -25 -18 -26
-28 -12 -10 13 -15 14 -27 4 -8 -7 -19 -12 -23 -11 -16 4 -44 -13 -38 -22 3
-5 -2 -6 -10 -3 -9 3 -16 2 -16 -4 0 -9 -28 -10 -57 -1 -6 2 -18 -4 -25 -14
-14 -19 -67 -28 -168 -29 -25 0 -52 -4 -61 -8 -8 -5 -20 -6 -26 -2 -19 13 -34
53 -27 75 6 20 6 21 -12 7 -10 -8 -28 -23 -38 -32 -11 -10 -25 -18 -30 -18 -6
0 -22 -3 -35 -7 -21 -5 -22 -3 -16 17 6 19 4 22 -10 17 -9 -4 -19 -7 -21 -7
-2 0 -4 -9 -4 -20 0 -11 -5 -20 -11 -20 -5 0 -7 -4 -4 -10 3 -5 1 -10 -4 -10
-6 0 -11 9 -11 21 0 25 -22 20 -26 -6 -1 -10 -6 -21 -11 -24 -5 -3 -14 -19
-21 -34 -14 -33 -38 -44 -63 -29 -25 16 -32 15 -25 -3 3 -8 2 -15 -3 -15 -5 0
-14 -19 -20 -42 -7 -24 -14 -49 -16 -56 -2 -7 -1 -8 2 -2 6 13 33 -6 33 -24 0
-7 9 -22 20 -34 28 -29 28 -28 3 -54 -19 -20 -20 -25 -6 -37 13 -12 14 -11 8
10 -7 23 -7 23 8 4 18 -24 1 -40 -23 -22 -8 6 -12 8 -8 3 3 -4 2 -21 -2 -37
-5 -16 -5 -27 0 -24 4 3 11 -7 14 -20 4 -14 10 -24 14 -21 4 2 8 -28 8 -67 1
-40 4 -84 7 -100 3 -16 2 -25 -4 -22 -5 4 -9 1 -9 -5 0 -7 -9 -19 -20 -28 -17
-15 -18 -20 -7 -42 13 -26 47 -40 47 -20 0 6 -5 8 -12 4 -14 -9 -7 3 39 67 24
34 33 57 33 85 -1 38 -1 76 0 112 0 9 -2 33 -6 53 -4 26 -1 44 10 61 9 14 13
28 9 31 -3 4 -2 7 3 7 6 0 15 -5 22 -12 10 -10 16 -7 28 10 8 12 20 22 25 22
14 0 36 23 81 83 65 87 69 88 278 87 63 -1 194 -4 290 -7 321 -12 378 -10 450
14 48 17 98 24 190 28 69 3 167 8 218 11 81 6 92 5 92 -9 0 -14 5 -15 26 -7
34 13 47 13 37 -2 -4 -7 6 -5 21 6 17 11 25 13 20 5 -6 -11 -5 -12 7 -3 22 17
115 16 129 -1 7 -8 18 -15 26 -15 7 0 20 -8 30 -17 10 -10 25 -18 34 -18 9 0
25 -7 35 -15 17 -13 18 -13 10 0 -7 12 -6 13 7 3 8 -7 18 -10 21 -6 6 6 11
-11 8 -29 -2 -12 6 -10 49 12 37 19 70 27 57 14 -3 -4 0 -15 7 -26 9 -13 11
-29 7 -46 -9 -32 -4 -81 10 -98 9 -11 12 -26 23 -124 5 -52 -9 -83 -35 -75
-16 5 -20 4 -15 -6 4 -8 1 -5 -8 5 -12 15 -18 17 -30 7 -19 -16 -10 -41 14
-36 13 3 16 -1 13 -16 -3 -11 0 -19 6 -19 7 0 9 4 6 10 -4 6 2 7 16 2 12 -5
24 -19 26 -31 2 -16 -1 -20 -9 -15 -8 4 -10 3 -5 -2 5 -5 14 -9 20 -9 7 -1 11
-7 9 -14 -1 -7 2 -10 7 -7 5 4 12 2 16 -4 3 -5 -2 -10 -12 -10 -15 0 -16 -2
-3 -10 13 -9 13 -10 0 -11 -8 -1 -19 -1 -24 0 -5 1 -4 -5 3 -13 7 -8 10 -19 7
-25 -3 -5 -3 -16 0 -25 10 -26 54 9 48 37 -5 21 -7 30 -17 82 -2 11 6 36 19
55 18 25 20 36 11 42 -6 4 -7 8 -2 8 6 0 34 23 63 50 29 28 49 50 44 50 -5 0
-9 7 -9 15 0 8 5 15 11 15 6 0 4 5 -4 10 -13 8 -13 11 -1 22 12 11 13 10 6 -2
-5 -8 -5 -12 0 -8 4 4 14 3 22 -3 8 -8 13 -8 13 -1 0 6 3 19 6 29 3 10 2 14
-3 8 -7 -10 -13 -10 -41 -6 -5 0 -14 12 -20 26 -10 22 -44 37 -41 18 3 -20 -2
-30 -16 -30 -9 0 -19 16 -26 39 -8 32 -7 48 7 84 9 25 21 47 26 50 10 6 -9 44
-31 62 -9 8 -10 11 -3 7 6 -3 12 -2 12 3 0 12 -21 30 -35 30 -5 0 -11 6 -13
14 -2 9 0 8 7 -2 7 -10 11 -11 11 -3 0 7 -9 17 -20 23 -11 6 -18 15 -15 20 3
4 -1 15 -9 22 -7 8 -13 32 -12 54 1 40 0 41 -31 38 -18 -1 -33 2 -33 7 0 4 -9
6 -20 4 -11 -2 -19 -1 -19 3 4 29 -3 42 -25 42 -13 0 -29 6 -35 14 -12 14 -35
16 -47 3 -4 -4 -1 -7 7 -7 8 0 1 -9 -16 -20 -27 -18 -30 -18 -48 -3 -13 12
-37 17 -85 17 -66 1 -67 1 -68 -27 -1 -15 -6 -33 -11 -38 -14 -14 -48 -8 -49
9 -1 6 -2 17 -3 22 -1 7 -11 5 -28 -3 -16 -7 -35 -12 -45 -10 -9 2 -19 -1 -23
-7 -5 -8 -11 -8 -21 1 -7 6 -43 12 -79 13 -36 1 -70 7 -76 13 -8 8 -20 8 -41
1 -27 -10 -33 -8 -49 13 -19 25 -20 40 -4 51 6 4 0 8 -13 8 -12 0 -25 -7 -28
-15z m196 -105 c-6 -11 -13 -20 -16 -20 -2 0 0 9 6 20 6 11 13 20 16 20 2 0 0
-9 -6 -20z m660 -9 c0 -5 -9 -11 -20 -14 -17 -4 -18 -2 -9 14 9 18 29 18 29 0z
m-1134 -7 c-5 -14 -4 -15 8 -5 19 16 99 8 104 -10 3 -11 1 -11 -8 1 -10 12
-11 10 -6 -10 5 -24 4 -24 -9 -6 -8 11 -15 14 -15 7 0 -7 -4 -10 -9 -6 -6 3
-8 -4 -6 -16 2 -12 2 -19 -2 -15 -4 3 -15 -2 -25 -11 -11 -9 -39 -18 -66 -19
-26 -2 -56 -5 -67 -7 -11 -3 -32 3 -48 12 -21 12 -31 13 -46 4 -14 -9 -22 -9
-31 0 -10 9 -11 9 -6 0 5 -9 -1 -13 -18 -13 -27 0 -42 15 -26 25 8 5 8 11 0
20 -14 17 -3 23 37 21 17 0 29 3 26 8 -6 8 38 5 138 -11 31 -4 39 -1 55 21 22
29 29 33 20 10z m137 -14 c3 -11 2 -22 -2 -24 -4 -3 -8 6 -9 20 -2 29 4 31 11
4z m-474 -4 c9 -11 9 -16 -1 -22 -7 -4 -10 -4 -6 1 4 4 3 14 -3 22 -6 7 -9 13
-6 13 2 0 10 -6 16 -14z m489 -45 c11 -7 10 -9 -3 -14 -9 -4 -13 -3 -10 2 3 5
-3 12 -12 14 -13 3 -14 5 -3 6 8 0 21 -3 28 -8z m-187 -60 c-22 -22 -61 -29
-61 -11 0 6 7 10 15 10 8 0 15 4 15 9 0 8 39 20 48 15 2 -1 -6 -12 -17 -23z
m-81 -7 c0 -8 -19 -13 -24 -6 -3 5 1 9 9 9 8 0 15 -2 15 -3z m1305 -85 c4 -5
-1 -19 -11 -30 -13 -15 -20 -16 -31 -8 -11 10 -11 15 3 30 19 22 30 24 39 8z
m-2325 -259 c0 -5 -5 -10 -11 -10 -5 0 -7 5 -4 10 3 6 8 10 11 10 2 0 4 -4 4
-10z m2330 -155 c0 -2 -6 -5 -13 -8 -8 -3 -14 1 -14 8 0 7 6 11 14 8 7 -3 13
-6 13 -8z"/>
<path d="M11778 21103 c7 -3 16 -2 19 1 4 3 -2 6 -13 5 -11 0 -14 -3 -6 -6z"/>
<path d="M13305 21060 c-4 -6 -12 -7 -18 -3 -7 4 -6 0 2 -10 7 -9 18 -14 24
-10 6 4 8 0 4 -10 -3 -8 0 -18 8 -21 22 -8 26 22 4 38 -15 10 -17 15 -7 19 9
4 9 6 1 6 -6 1 -15 -4 -18 -9z"/>
<path d="M14240 21010 c-6 -11 -14 -19 -18 -19 -20 3 -28 -3 -29 -22 -1 -12
-10 -28 -20 -36 -10 -8 -11 -11 -3 -7 13 7 13 6 0 -11 -8 -11 -26 -30 -40 -42
-14 -13 -20 -23 -15 -22 22 3 35 -2 35 -12 0 -6 -8 -9 -19 -6 -21 5 -63 -34
-43 -41 7 -2 9 -8 6 -13 -3 -6 -12 -2 -19 8 -11 15 -13 10 -11 -36 1 -35 -3
-55 -11 -58 -9 -4 -10 -10 -3 -24 9 -15 4 -25 -26 -53 -21 -20 -40 -33 -44
-31 -4 2 -17 -7 -28 -20 -12 -14 -19 -25 -16 -25 3 0 -3 -15 -14 -32 -11 -18
-18 -41 -17 -50 2 -11 -2 -15 -12 -11 -10 4 -11 8 -3 13 7 5 6 11 -6 21 -14
12 -19 10 -35 -10 -24 -29 -24 -43 1 -83 l19 -32 -21 -23 c-12 -13 -29 -23
-37 -23 -29 -1 -52 -26 -46 -51 3 -13 2 -37 -3 -54 -7 -25 -14 -30 -41 -31
-18 -1 -36 -6 -39 -11 -4 -6 -29 -29 -55 -52 -47 -40 -83 -49 -104 -26 -5 4
-1 5 7 0 8 -5 12 -4 7 0 -4 5 0 16 8 25 13 15 13 17 0 17 -8 0 -13 -3 -10 -5
7 -8 -26 -42 -41 -42 -15 0 -12 36 6 79 15 37 7 61 -18 56 -14 -2 -24 6 -36
31 -18 39 -40 52 -60 35 -15 -13 -77 -4 -88 13 -4 7 -17 2 -35 -14 -16 -15
-21 -17 -13 -6 14 18 14 19 -8 7 -12 -6 -21 -8 -20 -4 4 10 -23 47 -42 58 -13
7 -13 6 -2 -7 11 -14 10 -19 -9 -31 -26 -19 -27 -57 -4 -109 4 -10 4 -26 0
-35 -6 -17 -7 -17 -16 0 -15 25 -27 21 -34 -14 -4 -19 -16 -34 -32 -40 -33
-12 -33 -12 -33 11 0 11 -7 20 -15 20 -9 0 -15 -9 -15 -23 0 -23 -17 -47 -33
-47 -4 0 -6 4 -3 9 3 5 -1 14 -8 20 -11 10 -16 8 -21 -8 -3 -12 -15 -21 -25
-21 -20 0 -44 -32 -33 -44 3 -3 0 -6 -7 -6 -7 0 -21 -7 -30 -15 -22 -20 -67
-29 -75 -15 -10 15 -35 12 -35 -5 0 -8 -4 -15 -10 -15 -14 0 -13 13 2 28 10
10 7 16 -10 28 -12 8 -22 26 -22 40 0 21 -2 23 -19 12 -16 -10 -23 -7 -45 18
-15 18 -23 36 -20 47 5 16 3 17 -15 8 -13 -7 -21 -22 -21 -36 0 -15 -6 -25
-14 -25 -20 0 -29 -17 -28 -51 0 -22 -4 -29 -18 -29 -23 0 -62 39 -53 53 4 6
0 8 -10 4 -10 -3 -17 -2 -17 4 0 6 -4 7 -10 4 -16 -10 -12 7 7 27 13 14 14 21
4 31 -16 16 -61 -41 -80 -102 l-13 -46 -22 26 c-11 14 -27 24 -33 23 -7 -1
-19 -2 -25 -3 -10 -1 -10 -3 -1 -9 8 -5 6 -14 -8 -31 -18 -22 -19 -22 -19 -3
0 12 -5 24 -10 27 -6 4 -8 10 -5 14 2 5 -2 17 -10 27 -13 18 -13 17 -10 -11 1
-16 8 -31 14 -33 9 -3 7 -11 -4 -29 -9 -13 -14 -31 -11 -38 4 -11 -1 -12 -24
-3 -16 5 -34 16 -41 24 -6 7 -15 11 -20 9 -8 -6 -27 22 -27 40 0 6 5 21 10 35
6 17 6 22 -1 15 -5 -5 -12 -23 -15 -40 -3 -16 -10 -31 -14 -33 -5 -1 -18 -10
-28 -18 -10 -9 -14 -13 -7 -10 8 4 7 -3 -3 -23 -8 -16 -21 -31 -29 -34 -33
-13 -41 52 -11 98 9 14 12 26 6 30 -5 3 -16 -10 -25 -29 -9 -19 -27 -41 -39
-50 -22 -14 -24 -13 -44 30 -18 35 -26 43 -46 42 -14 -1 -22 -6 -20 -10 7 -11
-26 -118 -37 -118 -5 0 -9 7 -9 15 0 8 -1 18 -1 23 -2 12 -53 30 -63 21 -5 -4
-14 -5 -21 -3 -7 3 -19 -6 -29 -20 -13 -20 -20 -24 -39 -17 -12 5 -23 15 -23
22 -3 32 -5 33 -20 7 -17 -32 -26 -34 -45 -12 -12 14 -14 14 -25 -1 -11 -15
-13 -15 -24 4 -14 26 -25 26 -51 0 -18 -18 -25 -19 -44 -9 -18 9 -27 9 -43 -1
-19 -12 -25 -11 -49 8 -15 12 -27 26 -25 32 1 6 -3 11 -8 11 -6 0 -15 11 -20
25 -11 29 -18 30 -56 10 -28 -14 -28 -14 -56 35 -15 27 -28 56 -28 65 0 8 -4
15 -10 15 -5 0 -10 -9 -10 -21 0 -11 -5 -17 -10 -14 -6 4 -8 11 -5 16 4 5 -8
9 -24 9 -17 0 -31 4 -31 9 0 21 -50 2 -77 -29 l-30 -34 -50 52 c-28 29 -56 52
-62 52 -14 0 -14 2 4 36 13 26 13 29 -1 32 -8 2 -24 -4 -34 -13 -17 -15 -19
-15 -31 3 -27 37 -46 34 -86 -13 -20 -25 -42 -45 -49 -45 -6 0 -17 -7 -24 -15
-7 -8 -17 -12 -24 -8 -6 4 -5 0 2 -9 8 -10 9 -18 3 -22 -6 -4 -15 2 -20 13 -7
13 -17 17 -31 14 -13 -4 -26 1 -34 13 -11 15 -17 16 -29 6 -12 -11 -15 -11
-13 0 1 7 5 18 9 25 10 16 -4 22 -30 12 -21 -7 -30 -32 -24 -63 1 -5 -3 -12
-9 -16 -13 -8 65 -170 82 -170 5 0 6 -4 3 -10 -7 -11 14 -54 22 -46 4 3 30
-17 59 -44 29 -28 60 -50 68 -50 21 0 128 -96 146 -131 9 -16 30 -39 48 -49
18 -11 38 -32 44 -47 7 -16 25 -41 41 -58 15 -16 31 -41 34 -55 3 -14 15 -31
25 -39 11 -7 17 -19 14 -26 -6 -17 28 -49 46 -43 7 3 30 -11 50 -31 20 -20 50
-47 67 -60 17 -14 33 -33 36 -42 3 -10 19 -22 36 -28 20 -7 28 -15 23 -23 -4
-7 -4 -10 1 -6 4 4 14 1 22 -7 16 -17 38 -20 28 -6 -3 5 8 3 25 -5 16 -9 30
-16 30 -18 0 -1 -17 -1 -37 1 -21 1 -30 0 -20 -3 10 -3 14 -10 10 -17 -4 -7 2
-5 12 3 11 9 16 10 11 3 -4 -8 -1 -13 8 -13 9 0 15 -3 13 -7 -1 -5 2 -9 6 -10
5 -1 15 -10 24 -20 8 -10 12 -12 8 -6 -4 8 -1 11 9 7 8 -3 13 -14 11 -25 -3
-15 2 -19 21 -19 14 0 23 -4 20 -8 -3 -5 1 -9 9 -9 8 0 12 5 8 10 -3 5 5 4 17
-3 12 -6 19 -14 16 -17 -3 -4 1 -14 10 -24 15 -17 54 -15 54 3 0 5 14 -5 30
-22 17 -17 30 -35 30 -39 0 -5 11 -12 25 -15 16 -4 23 -11 19 -18 -4 -7 -3 -8
5 -4 6 4 9 11 6 16 -3 4 2 11 11 14 8 3 13 10 10 15 -11 17 22 5 41 -15 10
-11 14 -13 9 -4 -7 10 -4 10 10 -3 16 -15 17 -19 4 -28 -13 -9 -12 -10 2 -5
10 3 21 -1 26 -11 8 -14 10 -13 15 1 4 10 3 15 -3 11 -6 -3 -10 -1 -10 4 0 6
6 11 13 11 9 0 9 2 -1 9 -10 6 -10 10 2 20 21 17 71 -25 54 -46 -15 -19 7 -67
27 -59 8 3 15 1 15 -4 0 -6 -5 -10 -12 -10 -6 0 -8 -3 -5 -6 10 -10 38 17 30
29 -4 6 -8 21 -9 33 -2 16 3 21 19 20 18 -1 22 -7 23 -35 0 -25 5 -35 18 -37
14 -2 15 0 5 12 -6 8 -9 17 -6 20 3 3 11 -3 18 -13 15 -24 71 -20 62 4 -4 10
-1 14 7 11 17 -5 18 -51 2 -71 -10 -11 -9 -17 3 -27 8 -7 15 -9 15 -5 0 4 6 3
13 -3 7 -6 20 -6 32 -1 18 9 18 9 -2 5 -13 -2 -23 0 -23 6 0 6 -6 8 -13 5 -8
-3 -14 0 -14 6 0 7 12 13 25 14 18 1 21 -1 11 -8 -11 -6 -8 -9 9 -9 16 0 21 4
16 13 -6 9 -3 8 8 -1 9 -8 15 -19 12 -27 -3 -7 0 -16 5 -20 6 -3 9 -10 6 -15
-3 -4 4 -6 15 -3 23 6 27 -12 5 -21 -8 -3 -14 -11 -13 -17 2 -6 -3 -14 -11
-17 -10 -3 -11 0 -5 9 6 11 5 12 -8 2 -8 -7 -18 -9 -23 -5 -4 4 -1 -3 6 -15 8
-13 17 -23 22 -23 4 0 5 -5 2 -10 -4 -6 -1 -9 5 -8 17 4 34 -26 26 -47 -6 -17
-8 -17 -25 -1 -17 16 -18 15 -14 -9 3 -15 10 -22 17 -18 6 3 3 -3 -7 -14 -14
-16 -14 -20 -2 -20 8 0 11 5 8 11 -4 6 0 5 9 -1 8 -7 18 -11 21 -8 4 3 5 2 2
-2 -3 -3 1 -13 8 -21 9 -13 9 -14 0 -8 -11 6 -18 -5 -10 -18 1 -3 -13 -20 -32
-40 -33 -34 -33 -34 -11 -46 12 -7 19 -18 16 -26 -3 -8 1 -14 9 -14 17 0 20
-16 6 -25 -6 -3 -9 -14 -8 -25 1 -13 5 -16 13 -10 6 6 14 6 18 2 4 -4 6 0 4 8
-2 8 2 14 7 15 6 0 17 4 25 9 12 7 12 6 3 -4 -6 -7 -9 -20 -6 -29 4 -14 3 -14
-6 -1 -9 13 -11 12 -11 -3 0 -11 -4 -15 -12 -11 -6 4 -8 3 -5 -4 4 -5 15 -9
25 -7 29 4 41 -13 32 -45 -11 -37 10 -59 31 -33 12 15 12 16 -1 8 -8 -4 -12
-4 -7 0 11 13 38 15 31 3 -3 -5 0 -8 7 -7 8 1 30 -5 49 -14 19 -10 27 -15 18
-12 -11 2 -18 -1 -18 -9 0 -7 -8 -20 -17 -27 -16 -13 -17 -12 -5 3 9 11 10 18
2 23 -6 4 -10 3 -9 -2 1 -4 -1 -16 -6 -26 -4 -9 -3 -23 1 -30 5 -7 1 -4 -9 6
-13 15 -15 23 -6 34 7 7 9 16 5 20 -3 3 -6 1 -6 -6 0 -7 -4 -10 -9 -6 -23 14
-17 -15 9 -46 27 -32 41 -67 21 -55 -4 3 -8 -11 -8 -31 1 -22 -4 -38 -12 -41
-9 -3 -11 0 -6 8 5 9 4 11 -3 6 -7 -4 -12 -1 -12 6 0 10 -2 10 -8 1 -5 -7 -21
-14 -36 -15 -28 -3 -54 -23 -42 -35 3 -3 6 0 6 8 0 11 2 11 10 -1 7 -11 10
-11 10 -2 0 7 5 10 10 7 6 -4 7 -12 3 -18 -4 -7 2 -5 12 3 17 14 18 13 11 -5
-5 -15 -4 -17 5 -8 12 12 3 37 -11 28 -5 -3 -12 0 -16 6 -5 9 0 10 17 5 43
-13 68 -13 66 -2 -1 6 5 10 13 8 12 -3 13 -1 3 9 -14 14 -17 30 -5 28 17 -3
19 3 12 36 -6 27 -4 37 11 50 19 18 46 11 31 -8 -12 -17 -9 -31 12 -52 22 -23
47 -29 40 -10 -3 7 0 16 7 21 7 4 10 3 5 -4 -3 -6 -1 -14 5 -18 8 -4 9 -3 5 5
-5 8 0 10 16 7 20 -3 24 0 23 17 -2 28 62 60 85 43 13 -10 13 -9 1 6 -7 10
-17 16 -21 13 -12 -7 -43 32 -35 45 5 8 11 8 21 -1 11 -9 15 -8 20 5 3 9 11
13 17 9 6 -3 7 -1 3 6 -4 6 -12 9 -17 6 -5 -4 -9 -2 -9 4 0 5 -9 8 -20 6 -12
-2 -18 0 -15 6 4 5 11 7 16 4 5 -4 9 0 9 7 0 10 2 10 9 0 9 -15 17 -15 44 -1
10 6 14 15 10 22 -4 7 2 5 12 -3 10 -8 16 -10 12 -4 -4 7 3 14 18 18 23 6 36
36 16 36 -15 0 -22 30 -11 48 8 14 10 14 10 2 0 -11 3 -11 11 3 13 22 -1 42
-29 42 -9 0 -18 8 -20 18 -2 11 3 17 13 17 15 0 16 3 4 18 -11 15 -11 15 1 4
8 -7 15 -20 15 -30 0 -9 6 -16 13 -14 8 1 11 -2 7 -8 -3 -5 0 -7 9 -4 8 3 12
12 9 20 -3 8 -9 12 -13 9 -4 -3 -10 5 -13 17 -4 15 -3 18 5 10 8 -8 16 -4 30
13 19 24 40 28 66 11 11 -7 11 -4 1 13 -10 15 -16 17 -22 8 -5 -8 -7 -5 -5 8
2 11 -3 20 -9 21 -7 1 -16 3 -20 4 -5 1 -12 2 -16 1 -5 -1 -6 3 -2 9 4 6 2 17
-4 24 -8 9 -7 13 4 13 8 0 12 -4 9 -9 -4 -5 2 -8 12 -6 11 2 19 -3 19 -12 0
-8 10 -19 22 -26 13 -6 21 -13 18 -16 -3 -3 2 -11 12 -19 9 -8 14 -9 10 -3 -4
7 0 17 8 24 15 13 10 35 -6 25 -5 -4 -9 -1 -9 4 0 6 7 11 15 11 8 0 15 7 15
15 0 21 47 42 61 28 8 -8 7 -13 -2 -18 -7 -5 -10 -4 -5 3 7 12 -20 10 -31 -3
-4 -4 -2 -5 5 -1 6 4 12 2 12 -3 0 -16 14 -13 38 8 32 27 27 41 -13 36 -22 -3
-35 -1 -35 6 0 6 8 9 18 7 10 -3 27 1 38 10 19 14 19 15 -1 8 -19 -6 -19 -5
-2 8 19 15 23 37 6 34 -17 -4 -19 30 -3 36 7 3 18 -3 23 -12 8 -14 11 -14 11
-2 0 12 3 11 11 -2 5 -10 17 -18 24 -18 19 0 19 9 -1 32 -13 14 -14 21 -5 32
17 20 -6 16 -39 -7 -33 -23 -37 -22 -36 11 1 25 4 27 38 26 21 -1 35 2 32 7
-4 8 15 13 37 11 3 -1 6 5 6 13 0 8 -3 14 -6 13 -26 -3 -29 3 -18 35 15 42 13
39 40 42 20 2 24 -1 21 -22 -2 -20 0 -22 12 -12 7 6 11 16 8 21 -4 6 4 8 17 6
34 -5 62 29 55 66 -4 17 -1 35 6 44 7 9 9 13 3 10 -5 -3 -15 0 -22 7 -10 10
-9 14 3 19 8 3 17 5 20 5 3 0 15 6 27 14 12 7 36 13 53 12 23 -1 31 2 27 12
-7 17 -40 17 -46 1 -4 -10 -6 -10 -6 0 -1 8 7 21 17 30 10 10 11 13 2 7 -13
-9 -13 -8 -2 7 13 16 39 17 64 2 7 -4 8 -3 4 4 -4 7 -1 12 7 12 8 0 22 18 32
39 11 26 22 38 31 34 8 -3 22 1 31 8 9 8 18 13 20 12 7 -6 26 -2 20 4 -4 3 -2
12 5 20 8 10 8 17 1 24 -8 8 -15 5 -23 -11 -8 -15 -8 -20 -1 -16 7 5 8 1 5 -9
-4 -10 -10 -13 -16 -7 -11 11 7 62 23 62 6 0 9 7 5 15 -4 10 1 15 15 15 11 0
18 4 15 9 -3 5 6 25 19 46 14 20 21 34 16 31 -5 -4 -3 7 5 24 9 16 18 30 20
30 3 0 2 -5 -2 -12 -4 -6 -3 -8 4 -5 5 4 8 16 5 27 -4 14 2 23 20 31 17 8 24
18 22 30 -2 10 1 18 8 16 13 -2 10 35 -3 43 -5 3 4 11 21 19 16 7 27 17 23 22
-3 5 0 9 6 9 6 0 16 12 23 27 6 15 23 38 36 51 22 22 23 26 8 37 -14 10 -13
15 16 46 31 33 49 58 63 89 4 8 19 31 34 50 15 19 31 46 35 59 4 13 24 42 44
65 46 51 146 185 154 207 3 9 1 21 -5 27 -7 7 4 31 37 76 26 36 51 68 56 72
12 7 12 44 -1 44 -5 0 -10 9 -10 21 0 14 5 19 14 16 10 -4 12 8 10 56 -6 95
-4 120 7 134 6 7 12 37 13 67 1 29 7 60 14 68 7 9 10 23 6 32 -3 9 -1 16 5 16
5 0 16 19 23 43 7 23 20 51 30 61 10 11 18 35 18 53 0 38 -5 41 -20 13z m-133
-302 c2 -17 0 -19 -7 -8 -5 8 -6 18 -4 22 8 12 10 10 11 -14z m-110 -208 c-1
-23 -22 -27 -30 -6 -6 15 12 38 24 30 4 -2 7 -13 6 -24z m-3530 -375 c0 -8 -4
-12 -9 -9 -5 3 -6 10 -3 15 9 13 12 11 12 -6z m317 -70 c3 -9 -7 -28 -25 -46
-24 -25 -33 -28 -44 -19 -11 9 -12 17 -4 31 5 10 7 19 3 19 -3 0 -1 7 6 15 16
19 56 19 64 0z m260 -37 c-4 -6 -10 -5 -15 3 -14 22 -10 33 6 19 8 -7 12 -17
9 -22z m1654 -56 c-2 -8 -7 -17 -13 -19 -17 -5 -38 14 -32 30 8 20 49 10 45
-11z m-544 -28 c3 -8 2 -12 -4 -9 -6 3 -10 10 -10 16 0 14 7 11 14 -7z m1236
-764 c0 -5 -2 -10 -4 -10 -3 0 -8 5 -11 10 -3 6 -1 10 4 10 6 0 11 -4 11 -10z
m-2019 -87 c13 -16 12 -17 -3 -4 -17 13 -22 21 -14 21 2 0 10 -8 17 -17z m82
-50 c-3 -7 -6 -13 -8 -13 -2 0 -5 6 -8 13 -3 8 1 14 8 14 7 0 11 -6 8 -14z
m1734 -19 c-3 -3 -12 -4 -19 -1 -8 3 -5 6 6 6 11 1 17 -2 13 -5z m-1680 -31
c-4 -3 -1 -13 6 -22 11 -14 10 -14 -5 -2 -16 12 -16 31 -1 31 4 0 3 -3 0 -7z
m143 -25 c0 -4 0 -11 0 -15 0 -4 -5 -8 -13 -9 -7 -1 -13 6 -13 16 0 9 6 17 13
17 7 0 13 -4 13 -9z m1433 -41 c3 -8 -3 -13 -14 -13 -22 0 -25 12 -6 19 6 3
13 6 13 6 1 1 4 -5 7 -12z m-119 -69 c-9 -14 -23 2 -17 18 4 12 8 13 14 3 4
-7 5 -17 3 -21z m99 9 c3 -8 -3 -13 -18 -13 -13 0 -21 4 -19 8 3 5 10 6 15 3
5 -4 9 -1 9 4 0 15 7 14 13 -2z m-183 -67 c0 -5 -5 -10 -11 -10 -5 0 -7 5 -4
10 3 6 8 10 11 10 2 0 4 -4 4 -10z m-100 -19 c0 -6 -4 -12 -8 -15 -5 -3 -9 1
-9 9 0 8 4 15 9 15 4 0 8 -4 8 -9z m183 -106 c-3 -9 -8 -14 -10 -11 -3 3 -2 9
2 15 9 16 15 13 8 -4z m-787 -42 c-4 -10 -2 -13 8 -10 18 7 28 -3 16 -17 -5
-7 -5 -17 2 -26 8 -12 9 -11 4 5 -6 19 -5 19 8 3 13 -18 32 -26 22 -10 -2 4 4
8 14 9 11 1 23 -3 26 -9 5 -7 2 -9 -8 -5 -10 3 -25 -4 -39 -19 -20 -21 -19
-29 4 -25 11 2 9 -17 -3 -24 -6 -4 -7 -12 -4 -18 4 -7 1 -7 -7 1 -8 7 -14 27
-14 45 0 20 -5 31 -12 30 -7 -2 -12 3 -10 10 1 6 -3 11 -9 10 -7 -1 -20 7 -30
18 -17 19 -17 20 1 13 13 -5 16 -4 11 4 -4 7 -2 12 4 12 7 0 9 7 6 16 -3 9 -2
12 5 9 6 -4 8 -14 5 -22z m74 13 c0 -2 -7 -7 -16 -10 -8 -3 -12 -2 -9 4 6 10
25 14 25 6z m87 -22 c-3 -3 -12 -4 -19 -1 -8 3 -5 6 6 6 11 1 17 -2 13 -5z
m556 -17 c-2 -4 -3 -11 -3 -15 0 -12 -39 -12 -46 0 -4 6 -1 14 6 18 15 9 46 6
43 -3z m-89 -45 c2 -4 -5 -9 -17 -9 -17 -2 -19 0 -7 7 18 12 18 12 24 2z m16
-106 c0 -2 -8 -10 -17 -17 -16 -13 -17 -12 -4 4 13 16 21 21 21 13z m-180 -14
c0 -5 -7 -9 -15 -9 -8 0 -12 4 -9 9 3 4 9 8 15 8 5 0 9 -4 9 -8z m-450 -145
c0 -7 -7 -22 -15 -33 -13 -17 -13 -16 -3 14 13 34 18 40 18 19z m445 3 c-3 -5
-12 -10 -18 -10 -7 0 -6 4 3 10 19 12 23 12 15 0z m13 -22 c-5 -13 -38 -20
-38 -8 0 8 17 18 33 19 5 1 7 -4 5 -11z m-234 -166 c3 -5 -1 -9 -9 -9 -8 0
-12 4 -9 9 3 4 7 8 9 8 2 0 6 -4 9 -8z m-10 -54 c-3 -4 3 -8 12 -8 14 0 15 -3
6 -12 -17 -17 -46 -20 -32 -4 16 20 -15 43 -35 26 -9 -7 -15 -8 -15 -2 0 12
29 24 41 16 5 -3 9 1 9 8 0 10 3 9 9 -2 6 -8 7 -18 5 -22z m61 10 c-3 6 -1 12
4 12 6 0 11 -7 11 -15 0 -8 5 -15 11 -15 8 0 9 -4 0 -13 -6 -8 -7 -18 -3 -23
4 -4 -2 -2 -12 6 -11 8 -17 10 -13 3 4 -6 3 -14 -3 -18 -5 -3 -10 0 -10 7 0
10 -2 10 -9 -1 -6 -9 -11 -10 -15 -2 -10 15 3 33 17 24 7 -3 3 4 -7 16 -17 19
-17 21 -3 15 14 -5 16 -2 11 12 -6 17 -5 17 10 -1 10 -11 15 -14 11 -7z"/>
<path d="M12160 18589 c0 -5 5 -7 10 -4 6 3 10 8 10 11 0 2 -4 4 -10 4 -5 0
-10 -5 -10 -11z"/>
<path d="M12553 20919 c-13 -5 -23 -6 -23 -2 0 3 -8 -1 -17 -8 -14 -12 -16
-12 -9 0 8 13 -2 13 -91 -1 -7 -1 -15 -8 -17 -15 -4 -9 -1 -11 6 -7 7 4 8 3 4
-5 -4 -7 -13 -10 -19 -8 -7 2 -21 0 -31 -6 -11 -5 -38 -11 -60 -13 -23 -1 -57
-5 -76 -8 -19 -3 -57 -8 -85 -10 -27 -3 -62 -9 -76 -15 -15 -5 -35 -8 -45 -7
-11 2 -26 0 -35 -5 -9 -5 -20 -4 -27 3 -13 13 -143 15 -162 3 -9 -5 -11 -4 -6
3 12 21 -63 18 -107 -3 -15 -8 -25 -10 -23 -6 3 4 -6 7 -19 7 -13 0 -21 -4
-19 -8 3 -5 10 -6 15 -3 5 4 9 -3 9 -15 0 -12 -4 -19 -9 -16 -5 4 -7 -2 -5
-11 3 -10 -2 -27 -11 -38 -9 -11 -13 -13 -9 -5 5 12 4 13 -6 3 -16 -15 -21
-72 -6 -68 6 1 19 5 29 10 26 11 31 1 20 -44 -13 -51 -3 -62 54 -54 39 5 45 3
50 -15 4 -18 8 -19 29 -10 17 8 27 8 38 -1 11 -9 20 -10 35 -2 35 19 48 14 43
-18 -2 -16 0 -36 5 -45 7 -13 14 -11 43 14 19 17 31 30 25 30 -5 0 -3 4 5 9
21 14 31 3 24 -24 -6 -23 -5 -24 27 -15 66 19 97 40 108 71 13 38 33 29 29
-13 -3 -35 13 -46 35 -24 10 10 26 13 48 10 32 -5 35 -3 54 38 20 42 43 53 37
16 -6 -32 22 -19 53 26 23 35 34 42 49 36 11 -3 21 -17 23 -31 2 -13 8 -28 12
-32 17 -17 30 3 24 38 -3 20 -1 41 6 48 6 8 8 17 4 20 -3 4 -3 7 1 7 3 0 10
-10 15 -23 11 -29 41 -32 36 -5 -3 15 0 18 17 12 14 -4 18 -3 13 5 -4 7 2 24
12 39 21 32 26 99 7 99 -7 0 -11 -4 -9 -8 3 -3 -4 -9 -15 -12 -11 -3 -20 -1
-20 5 0 5 -4 6 -10 3 -5 -3 -10 -1 -10 5 0 6 -5 8 -11 5 -6 -4 -5 2 2 13 7 12
17 18 21 16 16 -10 3 21 -17 39 -20 18 -20 18 4 7 19 -10 22 -9 16 1 -6 9 -3
11 8 6 9 -3 19 -2 22 3 8 14 -8 18 -32 9z m-847 -264 c-1 -8 -5 -17 -8 -21 -5
-4 -4 16 1 34 3 9 9 -1 7 -13z"/>
<path d="M13290 20847 c0 -15 12 -22 33 -18 14 2 66 -32 61 -41 -3 -4 0 -8 5
-8 17 0 13 18 -6 29 -16 9 -16 10 4 8 12 0 19 -5 16 -11 -3 -5 5 -7 20 -4 15
3 24 1 21 -3 -3 -5 -13 -9 -22 -10 -13 0 -12 -2 5 -9 17 -7 21 -15 18 -44 -2
-20 0 -34 5 -31 4 3 10 -2 13 -10 6 -13 -13 -25 -53 -31 -25 -5 -27 -37 -3
-40 7 -1 11 3 10 9 -1 7 4 11 11 9 8 -1 11 2 6 9 -5 9 -2 10 10 6 11 -5 15 -3
10 5 -5 7 -2 9 7 6 17 -6 43 10 47 30 1 6 -3 12 -9 12 -5 0 -7 5 -4 10 4 6 10
8 14 6 4 -3 8 1 8 9 0 11 -4 12 -13 4 -8 -7 -14 -6 -20 2 -4 8 -3 9 4 5 16
-10 14 4 -4 34 -14 23 -15 23 -11 3 3 -13 -2 -27 -12 -35 -14 -11 -14 -11 -4
3 7 9 10 19 6 23 -4 4 -8 15 -8 24 0 11 -7 16 -17 14 -12 -2 -16 2 -12 11 7
20 -21 40 -46 32 -11 -3 -18 -11 -15 -16 10 -16 -17 -10 -38 9 -20 16 -20 16
-14 -3 7 -20 7 -20 -8 -1 -13 17 -15 18 -15 3z m125 -7 c3 -5 2 -10 -4 -10 -5
0 -13 5 -16 10 -3 6 -2 10 4 10 5 0 13 -4 16 -10z m5 -184 c0 -2 -8 -10 -17
-17 -16 -13 -17 -12 -4 4 13 16 21 21 21 13z"/>
<path d="M13527 20674 c-4 -4 -2 -13 4 -21 9 -10 8 -18 -4 -31 -16 -18 -17
-45 -2 -59 4 -5 5 -2 0 6 -6 11 -4 13 9 8 10 -4 15 -3 11 3 -4 6 1 17 9 26 13
12 14 20 4 37 -6 12 -10 24 -9 27 4 8 -15 11 -22 4z"/>
<path d="M13449 20592 c0 -4 -2 -15 -4 -25 -3 -14 0 -16 9 -8 7 6 15 9 18 6 2
-3 5 2 5 10 0 14 -26 31 -28 17z"/>
<path d="M13906 20592 c-2 -4 -1 -14 5 -22 7 -12 9 -10 9 8 0 23 -5 28 -14 14z"/>
<path d="M13748 20563 c6 -2 9 -10 6 -15 -4 -7 -2 -8 5 -4 13 9 5 26 -12 25
-9 0 -8 -2 1 -6z"/>
<path d="M13446 20458 c3 -5 10 -6 15 -3 13 9 11 12 -6 12 -8 0 -12 -4 -9 -9z"/>
<path d="M13416 20452 c-3 -5 1 -9 9 -9 8 0 12 4 9 9 -3 4 -7 8 -9 8 -2 0 -6
-4 -9 -8z"/>
<path d="M10935 20412 c-15 -10 -17 -39 -4 -47 6 -4 16 -2 22 5 9 10 9 11 -3
5 -13 -8 -13 -7 -1 8 9 12 10 17 2 17 -7 0 -9 5 -6 10 7 12 4 13 -10 2z"/>
<path d="M10870 20271 c0 -6 4 -12 8 -15 5 -3 9 1 9 9 0 8 -4 15 -9 15 -4 0
-8 -4 -8 -9z"/>
<path d="M11025 20150 c-3 -6 1 -7 9 -4 18 7 21 14 7 14 -6 0 -13 -4 -16 -10z"/>
<path d="M14189 20035 c-1 -5 -1 -13 0 -17 0 -4 3 -74 6 -155 5 -168 20 -347
40 -508 12 -96 22 -311 15 -325 -2 -3 -3 -76 -4 -162 -1 -87 -5 -160 -9 -164
-4 -4 -1 -14 6 -22 9 -13 9 -14 0 -8 -7 4 -13 2 -13 -3 0 -6 5 -11 12 -11 6 0
3 -7 -8 -16 -10 -8 -13 -12 -5 -8 11 5 13 3 8 -10 -4 -9 0 -28 9 -41 12 -18
13 -32 6 -57 -10 -37 -10 -83 1 -114 5 -14 3 -27 -5 -35 -8 -8 -24 -29 -37
-47 -13 -19 -27 -29 -34 -25 -9 5 -9 3 0 -8 9 -11 8 -24 -8 -58 -10 -24 -19
-54 -19 -68 0 -13 -4 -22 -9 -19 -14 9 -22 -23 -15 -60 4 -20 2 -34 -4 -34 -5
0 -9 -8 -8 -17 0 -10 -5 -17 -12 -15 -6 1 -11 -3 -10 -10 2 -7 -2 -12 -9 -13
-6 0 -15 -4 -20 -9 -5 -6 -2 -6 6 -1 11 6 13 4 8 -7 -3 -9 0 -21 6 -27 9 -9 8
-11 -4 -6 -9 3 -22 -2 -30 -11 -8 -10 -9 -15 -2 -11 6 4 14 3 17 -1 5 -9 53
-8 62 0 2 2 5 13 8 24 10 45 19 64 32 64 8 0 14 5 14 10 0 6 6 10 13 10 6 -1
2 -9 -10 -19 -25 -20 -31 -37 -10 -25 6 4 2 -4 -10 -18 -13 -13 -23 -28 -23
-34 0 -5 4 -3 8 4 5 7 19 15 32 17 28 5 42 25 30 40 -7 8 -5 12 5 12 8 0 12
-4 9 -9 -3 -4 4 -8 15 -8 16 0 19 6 17 33 -3 37 3 59 14 52 4 -3 11 2 14 11 5
13 2 15 -14 11 -11 -3 -23 0 -27 5 -3 7 -1 8 5 4 7 -4 12 -1 12 6 0 8 7 23 16
34 8 10 13 13 9 7 -4 -9 -1 -11 9 -7 9 3 13 11 9 17 -4 6 0 8 11 4 9 -4 15 -3
12 2 -3 5 1 14 9 21 12 10 18 10 32 -1 10 -9 14 -9 10 -2 -4 7 0 35 9 63 15
46 18 49 33 36 25 -23 23 -56 -4 -92 -14 -18 -25 -37 -25 -43 0 -6 -5 -11 -12
-11 -6 0 -9 -3 -5 -6 13 -14 -118 -186 -185 -242 -15 -13 -26 -27 -23 -32 9
-14 -29 -50 -55 -52 -14 -2 -28 -7 -32 -12 -3 -6 -26 -11 -50 -12 -24 0 -43
-2 -43 -3 0 -2 -13 -5 -30 -7 -16 -3 -32 -8 -35 -12 -13 -18 -62 -42 -85 -42
-14 0 -25 -4 -25 -10 0 -5 -12 -10 -27 -10 -16 0 -42 -8 -58 -19 -17 -10 -48
-24 -70 -31 -22 -7 -61 -25 -88 -41 -26 -16 -52 -29 -58 -29 -21 0 -484 -217
-569 -266 -83 -48 -111 -58 -128 -46 -32 23 -42 24 -76 8 -37 -17 -101 -22
-110 -7 -3 4 -20 11 -37 15 -28 5 -30 8 -18 23 7 10 9 15 5 11 -5 -4 -16 -2
-25 5 -14 10 -14 10 -4 -4 7 -9 10 -19 7 -22 -9 -9 -36 21 -30 32 3 5 -2 15
-12 22 -15 13 -16 12 -3 -3 11 -15 11 -18 -2 -18 -8 0 -21 8 -28 17 -8 9 -9
14 -3 10 7 -4 15 0 18 9 6 15 9 15 29 -2 12 -11 17 -12 10 -4 -8 12 -7 18 5
30 14 13 15 12 9 -4 -5 -12 -3 -16 5 -13 7 2 12 9 11 14 -1 5 4 10 12 10 8 0
11 -5 8 -11 -3 -6 0 -5 8 2 15 14 33 17 25 4 -3 -5 1 -9 8 -9 8 0 12 7 8 15
-4 11 -1 13 8 7 9 -5 11 -4 6 3 -4 7 -14 12 -22 12 -8 0 -12 5 -9 11 4 6 -2 5
-13 -2 -17 -10 -23 -10 -36 1 -14 11 -16 10 -10 -6 4 -15 4 -16 -4 -5 -6 8 -8
20 -5 27 2 6 -1 15 -8 20 -8 5 -10 3 -4 -7 5 -8 -1 -5 -13 5 -28 24 -28 29 1
21 19 -5 20 -5 4 5 -14 9 -22 9 -33 0 -7 -7 -14 -9 -14 -5 0 4 -6 3 -13 -4
-10 -7 -17 -7 -24 0 -8 8 -13 7 -18 -2 -6 -8 -4 -10 6 -4 12 8 12 6 0 -8 -17
-22 -19 -21 -17 4 1 22 46 49 46 28 0 -6 5 -7 10 -4 6 4 8 10 6 13 -2 4 20 3
49 -2 30 -6 51 -14 48 -19 -3 -5 4 -3 15 4 12 7 18 19 14 27 -3 9 -1 13 5 9
13 -8 46 27 36 38 -5 4 2 5 15 2 13 -3 20 -1 16 5 -3 5 2 8 12 6 11 -2 19 3
19 12 0 21 16 43 45 61 14 9 40 30 58 47 17 16 32 27 32 24 1 -4 7 4 14 17 8
14 22 26 31 27 10 2 21 8 25 14 4 7 10 11 14 11 3 -1 6 2 5 7 -1 11 -30 2 -66
-20 -18 -10 -32 -25 -30 -31 1 -7 -3 -11 -10 -10 -8 2 -10 -4 -6 -15 6 -15 5
-16 -13 -2 -18 14 -18 14 -5 -5 8 -11 2 -8 -14 7 -27 26 -28 28 -12 46 16 18
16 20 -5 38 -21 19 -21 19 -14 0 5 -16 4 -17 -9 -6 -8 7 -13 16 -10 20 7 11
-22 6 -32 -5 -4 -4 -3 -5 4 -1 7 4 16 -2 22 -12 7 -14 6 -19 -4 -19 -8 0 -11
5 -8 11 4 6 0 5 -8 -1 -11 -9 -19 -9 -26 -2 -8 8 -11 6 -10 -6 1 -10 -6 -19
-16 -21 -14 -2 -16 0 -7 11 9 11 7 13 -15 9 -20 -3 -25 -1 -19 8 6 10 3 9 -9
-1 -9 -7 -17 -10 -17 -5 0 5 -5 2 -10 -6 -9 -13 -10 -13 -11 0 -1 8 -1 19 0
23 1 5 -3 6 -8 2 -7 -3 -7 -15 -1 -29 8 -21 6 -23 -12 -19 -15 5 -17 8 -6 14
10 7 9 9 -4 9 -10 0 -22 9 -28 21 -9 16 -17 19 -38 14 -15 -4 -32 -8 -39 -8
-7 0 -10 -4 -7 -9 3 -5 10 -6 15 -3 5 3 6 -1 3 -10 -4 -10 -10 -12 -18 -6 -16
13 -51 -13 -40 -31 6 -10 4 -10 -9 1 -14 11 -18 11 -23 -3 -4 -10 -13 -15 -22
-11 -12 4 -13 3 -3 -9 11 -13 9 -15 -8 -11 -12 2 -21 -1 -21 -8 0 -8 -3 -8 -9
1 -10 17 -21 17 -31 2 -5 -8 -9 -7 -13 4 -4 9 -3 15 1 15 20 -3 23 3 11 19
-10 13 -8 12 10 -3 14 -11 21 -14 16 -6 -6 11 -4 13 9 8 14 -5 15 -3 6 13 -7
13 -7 21 2 26 6 4 8 3 4 -4 -3 -6 -2 -13 3 -16 11 -7 9 13 -3 32 -10 17 -5 21
27 24 20 2 23 5 15 15 -10 13 -40 4 -53 -16 -3 -6 -14 -8 -25 -6 -10 2 -25 -4
-32 -13 -8 -10 -9 -13 -1 -9 23 14 25 -15 2 -39 -21 -22 -24 -23 -40 -8 -10 9
-22 13 -28 10 -5 -4 -13 -1 -17 5 -5 8 -3 9 6 4 9 -5 11 -4 6 4 -6 9 -11 9
-24 -1 -14 -11 -15 -10 -9 6 6 16 5 17 -8 6 -8 -7 -13 -15 -11 -19 4 -6 -19
-32 -29 -31 -32 1 -37 -1 -28 -12 11 -15 13 -48 3 -48 -15 0 -19 14 -8 29 8
10 4 9 -10 -3 -12 -11 -22 -16 -22 -11 0 4 -6 3 -13 -4 -10 -8 -16 -8 -25 1
-8 8 -10 6 -8 -8 2 -11 -2 -22 -8 -26 -8 -5 -7 -8 2 -8 7 0 11 -4 8 -9 -3 -5
2 -15 11 -22 9 -8 14 -9 10 -3 -9 16 35 27 48 12 7 -8 6 -9 -2 -4 -6 3 -15 2
-18 -4 -4 -6 -3 -10 2 -9 4 1 15 1 23 0 11 -1 12 -3 2 -13 -7 -7 -18 -13 -25
-13 -7 0 -12 -9 -12 -20 0 -11 -4 -23 -10 -27 -5 -4 1 -8 15 -9 l25 -1 -25 -7
c-14 -4 -31 -4 -37 2 -9 6 -15 4 -19 -7 -4 -9 -4 -20 0 -23 3 -4 6 1 6 11 0 9
4 15 9 12 5 -3 7 -15 4 -26 -3 -11 -10 -17 -15 -14 -10 7 -32 55 -30 67 1 4
-6 2 -17 -4 -16 -10 -23 -7 -48 21 -22 25 -32 30 -38 20 -5 -8 -4 -11 2 -7 6
4 16 0 22 -7 8 -10 9 -16 1 -21 -20 -13 -9 -21 29 -20 32 0 41 -4 45 -20 8
-30 7 -35 -6 -35 -27 0 -88 22 -84 29 3 5 -6 6 -19 3 -26 -5 -152 26 -161 39
-2 5 -12 5 -21 2 -11 -4 -14 -3 -9 5 4 7 1 12 -8 12 -8 0 -23 10 -33 23 -10
12 -39 32 -66 44 -26 13 -46 28 -45 34 2 6 -8 18 -22 27 -22 14 -23 15 -13 1
13 -16 8 -29 -9 -29 -5 0 -6 5 -2 11 5 8 1 8 -14 0 -15 -8 -23 -7 -34 7 -25
29 -29 40 -17 48 8 5 9 3 4 -6 -5 -9 -4 -11 3 -6 15 9 15 11 -5 27 -9 8 -14 9
-10 3 4 -7 0 -14 -8 -17 -11 -5 -12 -1 -4 20 8 23 8 24 -6 13 -18 -15 -47 3
-39 25 3 7 0 16 -5 20 -6 3 -9 10 -6 15 3 5 1 11 -4 15 -6 3 -8 -3 -6 -15 2
-11 0 -20 -6 -20 -8 0 -13 14 -10 32 0 4 -7 4 -16 1 -12 -5 -14 -3 -8 7 5 8 4
11 -2 7 -6 -4 -16 0 -23 8 -7 8 -18 15 -25 15 -17 0 -48 37 -41 48 3 5 -3 17
-14 27 -11 10 -20 15 -20 11 0 -4 -13 2 -30 14 -16 12 -35 18 -41 14 -7 -4 -9
-3 -5 4 3 6 1 14 -5 17 -5 4 -8 13 -5 21 3 9 -1 14 -14 14 -22 0 -51 36 -44
55 3 6 -3 18 -13 26 -17 13 -17 13 -3 -6 15 -19 15 -19 -12 0 -26 19 -39 39
-37 59 0 5 -3 12 -8 15 -4 3 -19 18 -32 33 -21 24 -22 30 -10 45 11 15 11 16
-1 6 -17 -15 -44 -17 -35 -3 3 6 1 10 -5 10 -18 0 -51 63 -38 71 19 12 27 1
22 -29 -4 -27 -4 -27 9 -4 7 12 16 20 19 16 4 -3 5 2 3 13 -2 10 -4 23 -4 28
-1 6 -5 5 -9 -2 -4 -7 -17 -10 -29 -7 -16 5 -21 13 -21 35 1 18 5 26 12 22 6
-4 2 3 -8 15 -20 23 -32 30 -21 12 3 -5 2 -10 -4 -10 -17 0 -23 20 -11 35 8
10 8 15 -1 21 -8 5 -9 3 -4 -6 6 -9 4 -11 -4 -5 -9 5 -9 11 -3 17 14 14 4 38
-15 38 -8 0 -12 4 -8 9 3 5 1 12 -5 16 -6 4 -8 11 -5 16 3 5 -1 6 -9 3 -12 -5
-13 -11 -6 -24 13 -24 13 -30 -2 -30 -6 0 -8 3 -5 6 3 4 2 15 -3 25 -7 12 -7
20 1 24 6 5 4 12 -7 20 -16 12 -16 13 4 24 24 13 29 31 9 31 -22 0 -48 35 -41
54 4 10 -1 26 -13 39 -23 26 -34 51 -39 90 -4 32 -21 67 -32 67 -4 0 -27 -18
-51 -40 -25 -22 -47 -40 -51 -40 -30 0 -3 47 73 126 l39 42 -16 172 c-9 95
-25 235 -36 313 -20 140 -66 376 -75 385 -2 3 -15 -2 -28 -10 -19 -13 -69 -16
-289 -17 -305 -1 -275 5 -495 -105 -72 -36 -139 -66 -148 -66 -20 0 -81 -35
-92 -53 -5 -7 -37 -36 -73 -66 -143 -117 -202 -188 -261 -313 -16 -35 -33 -70
-38 -78 -5 -8 -17 -34 -26 -57 -10 -23 -24 -44 -31 -47 -8 -3 -14 -14 -14 -24
0 -11 -9 -31 -20 -45 -11 -14 -20 -32 -20 -41 0 -8 -8 -23 -18 -33 -11 -10
-38 -81 -61 -158 -71 -235 -83 -268 -114 -330 -42 -84 -85 -138 -185 -229
-244 -224 -267 -259 -267 -405 0 -75 -3 -95 -15 -99 -8 -2 -42 -15 -75 -27
-130 -50 -419 -136 -590 -175 -293 -67 -459 -120 -552 -176 -30 -19 -60 -34
-65 -34 -5 0 -24 -11 -41 -24 -18 -13 -84 -52 -147 -86 -217 -116 -365 -211
-465 -296 -55 -47 -138 -112 -186 -144 -98 -67 -168 -123 -250 -198 -56 -52
-69 -56 -63 -18 2 17 -12 172 -21 221 -2 11 -4 57 -4 103 l-1 83 -29 -28 c-16
-15 -25 -29 -20 -31 5 -2 -4 -15 -21 -28 -16 -14 -27 -32 -25 -42 2 -15 -6
-17 -55 -17 -40 0 -56 3 -53 12 3 7 -3 10 -14 8 -10 -2 -18 -4 -18 -5 0 -1
-10 -3 -21 -6 -16 -2 -30 6 -49 32 -22 28 -30 33 -37 23 -7 -10 -8 -8 -5 9 5
23 -10 37 -48 43 -11 2 -22 7 -25 11 -10 12 -175 29 -178 18 -2 -6 -9 -7 -15
-4 -7 4 -3 -2 9 -14 12 -11 50 -28 85 -37 88 -23 90 -23 128 -24 27 -1 31 -4
22 -14 -6 -8 -9 -16 -6 -18 6 -6 -55 -3 -165 10 -105 12 -133 14 -140 11 -11
-4 -50 -6 -46 -3 2 3 0 18 -4 34 -5 18 -5 27 1 24 5 -4 9 0 9 8 0 17 27 30 35
17 3 -5 0 -12 -6 -16 -8 -5 -9 -3 -4 6 6 9 4 11 -4 6 -7 -5 -10 -11 -6 -14 8
-9 35 -11 34 -4 -3 21 3 32 19 32 15 0 15 -2 2 -11 -10 -7 -11 -9 -2 -7 19 5
14 22 -9 30 -14 5 -18 4 -13 -4 5 -7 3 -8 -6 -3 -10 6 -1 19 34 48 38 32 44
42 35 54 -10 11 -10 13 0 11 25 -6 20 37 -8 69 -16 18 -31 30 -35 28 -3 -3 -4
-2 -1 1 2 4 -8 22 -23 41 -14 20 -27 42 -29 49 -14 65 -24 84 -49 90 -13 3
-24 10 -24 14 0 4 -12 15 -26 25 -15 9 -23 12 -20 6 4 -6 2 -11 -3 -11 -16 0
-13 21 5 41 15 17 15 19 0 34 -9 9 -22 15 -29 12 -6 -2 -23 0 -37 6 -14 5 -48
9 -76 8 -28 -1 -62 2 -75 7 -27 10 -93 -4 -84 -18 10 -15 -14 -21 -84 -21 -65
0 -188 16 -221 28 -8 3 -49 7 -90 9 -41 1 -85 5 -98 8 -12 4 -32 9 -45 12 -12
3 -28 6 -35 8 -7 1 -18 8 -24 14 -7 7 -17 12 -23 12 -6 0 -27 14 -48 31 -20
16 -46 31 -57 32 -24 2 -24 1 -3 18 11 10 14 10 9 2 -14 -24 27 -14 58 15 22
19 25 20 11 4 -14 -18 -15 -21 -3 -17 9 4 18 0 22 -10 5 -13 15 -16 47 -11 23
3 46 3 53 -1 21 -14 65 -10 71 6 3 8 1 17 -4 19 -6 2 -9 7 -6 12 3 5 -6 7 -20
6 -15 -2 -22 1 -18 7 4 6 0 8 -10 4 -10 -3 -17 -3 -17 1 0 5 -34 8 -75 9 -41
0 -72 -4 -69 -8 3 -5 -5 -5 -18 0 -13 4 -35 5 -50 1 -14 -5 -30 -5 -35 -2 -4
4 1 -4 12 -17 l20 -24 -23 12 c-13 7 -26 10 -29 7 -9 -9 -40 32 -60 80 -10 24
-20 43 -23 41 -3 -2 -40 -20 -83 -41 -42 -20 -89 -48 -103 -61 -46 -43 -96
-38 -156 15 -21 19 -38 38 -38 44 0 5 -6 17 -13 25 -8 9 -24 44 -37 79 -19 51
-30 68 -67 92 -43 29 -117 70 -127 70 -10 0 77 -136 109 -170 17 -19 50 -63
72 -97 64 -97 284 -293 329 -293 17 0 46 48 38 62 -4 7 -3 8 4 4 8 -5 10 5 8
31 -4 38 -4 39 65 76 57 31 69 35 69 21 0 -35 141 -144 185 -144 4 0 57 -24
118 -54 130 -62 283 -125 379 -156 71 -23 76 -28 56 -63 -7 -12 -13 -27 -14
-33 -1 -6 -9 -36 -17 -65 -23 -77 -36 -169 -25 -175 5 -3 7 0 6 8 -2 7 3 12
10 10 6 -1 11 4 10 10 -2 7 2 12 9 11 7 -2 10 4 7 12 -4 8 -1 15 5 15 6 0 10
3 10 8 -4 22 2 42 11 37 6 -3 10 2 10 12 1 14 4 13 15 -7 l15 -25 -6 26 c-3
15 -1 30 4 33 6 4 8 -3 4 -16 -5 -21 -4 -22 13 -8 11 9 16 10 11 3 -4 -7 -3
-13 3 -13 5 0 11 5 13 10 2 6 9 1 15 -9 9 -15 10 -22 1 -27 -6 -4 -8 -3 -4 4
3 6 2 13 -4 17 -5 3 -10 1 -10 -6 0 -8 -4 -8 -15 1 -10 9 -15 9 -15 1 0 -6 5
-11 11 -11 5 0 7 -5 3 -12 -4 -7 -3 -8 5 -4 6 4 19 2 28 -6 12 -9 15 -10 9 0
-4 7 -1 15 9 18 14 6 14 9 -2 28 -10 11 -1 5 20 -14 23 -21 36 -42 34 -51 -3
-9 0 -23 5 -30 8 -11 9 -10 4 3 -6 20 11 35 25 21 5 -5 11 -19 14 -31 5 -30
26 -50 47 -44 16 4 23 -6 20 -29 -1 -4 8 -4 20 -1 14 3 19 1 14 -6 -4 -8 -2
-10 7 -6 8 3 21 -2 30 -10 9 -9 21 -16 27 -16 7 0 29 -13 50 -30 55 -43 271
-170 290 -170 9 0 20 -4 26 -9 16 -15 144 -63 182 -68 46 -6 92 11 92 33 0 10
3 14 6 11 4 -3 15 4 25 17 13 17 25 22 41 18 14 -3 19 -2 14 6 -4 7 -2 12 4
12 6 0 8 5 4 12 -4 7 -3 8 4 4 6 -4 9 -13 5 -21 -3 -8 0 -15 7 -15 6 0 9 4 5
9 -3 5 -1 13 5 16 6 4 8 15 5 24 -3 11 0 18 9 18 8 0 12 -6 8 -15 -3 -9 -1
-13 5 -9 5 3 10 0 10 -8 0 -8 -5 -12 -11 -9 -6 3 -2 -3 9 -13 17 -15 21 -30
20 -85 0 -38 3 -68 7 -68 4 0 7 -27 7 -60 -1 -43 -4 -60 -14 -60 -8 0 -11 -7
-8 -20 3 -12 0 -20 -7 -20 -9 0 -9 -4 1 -17 10 -11 10 -14 2 -9 -16 9 -17 -6
-1 -22 9 -9 9 -12 -1 -12 -10 0 -11 -3 -3 -13 6 -7 7 -18 3 -26 -5 -7 -7 -24
-5 -37 2 -19 -1 -24 -13 -20 -10 4 -17 -2 -21 -16 -5 -22 -6 -22 -18 6 -11 29
-12 29 -23 8 -6 -12 -18 -22 -26 -22 -8 0 -15 -6 -15 -12 0 -9 -4 -8 -10 2 -5
8 -10 11 -10 7 0 -4 -8 -3 -18 2 -11 6 -24 6 -32 1 -9 -5 -20 -4 -29 3 -8 7
-16 11 -18 9 -2 -2 -48 19 -66 31 -2 1 -11 -4 -20 -11 -18 -15 -92 -8 -103 9
-3 5 -9 7 -14 4 -5 -3 -11 -1 -15 5 -4 6 -11 8 -16 5 -5 -4 -9 -1 -9 5 0 6 -8
14 -19 18 -39 15 -171 108 -176 125 -4 9 -10 15 -15 12 -4 -3 -10 4 -13 15 -6
24 5 25 36 5 26 -17 142 -56 166 -57 9 0 32 3 51 7 19 4 48 8 63 8 20 0 24 2
15 8 -7 5 -21 9 -31 9 -10 0 -15 5 -12 10 4 6 -7 13 -24 16 -17 4 -41 17 -54
30 -12 12 -35 26 -50 29 -16 4 -26 10 -23 13 3 3 1 11 -5 19 -9 10 -8 13 4 13
8 0 18 6 20 13 4 7 6 6 6 -4 1 -13 8 -16 35 -12 20 2 39 -1 47 -9 16 -14 23
-16 68 -20 17 -1 31 -6 31 -10 0 -13 35 -9 55 6 18 13 17 14 -6 29 -13 9 -40
19 -59 22 -19 3 -49 15 -66 26 -17 10 -40 19 -50 19 -11 0 -31 8 -44 17 -28
20 -152 65 -145 53 3 -5 1 -11 -5 -15 -5 -3 -10 -13 -10 -21 0 -9 5 -12 12 -8
7 4 8 3 4 -5 -4 -6 -12 -8 -19 -4 -6 4 -25 8 -41 10 -16 2 -37 9 -45 17 -24
20 -101 58 -112 54 -6 -2 2 -19 16 -38 45 -61 95 -139 95 -149 0 -14 -41 0
-47 15 -3 8 -9 12 -13 9 -4 -2 -21 9 -39 25 -34 33 -50 37 -70 18 -11 -11 -12
-10 -6 2 8 13 7 13 -8 1 -19 -15 -23 -36 -5 -25 7 4 8 3 4 -5 -5 -8 -12 -9
-20 -2 -8 7 -12 1 -12 -20 -1 -19 2 -27 10 -22 6 3 -2 -8 -18 -25 -17 -18 -26
-32 -21 -32 4 0 0 -9 -9 -19 -17 -19 -17 -20 3 -31 23 -12 28 -1 9 19 -11 11
-10 12 1 6 9 -5 12 -4 8 2 -3 5 1 10 9 10 9 0 11 -4 5 -10 -5 -5 -7 -16 -4
-24 3 -8 0 -19 -8 -24 -9 -5 -10 -9 -2 -9 7 0 11 -15 10 -39 -2 -29 -5 -37
-17 -33 -13 5 -13 3 -1 -11 7 -9 10 -17 6 -17 -4 0 -2 -7 5 -15 15 -18 1 -19
-22 -1 -10 7 -14 17 -10 22 4 4 0 3 -9 -4 -9 -7 -28 -13 -42 -14 -14 -1 -23
-6 -21 -10 3 -5 11 -5 17 -1 7 3 4 -3 -6 -14 -19 -22 -47 -26 -47 -7 0 7 -9
19 -21 27 -15 11 -20 24 -18 49 2 18 6 38 9 43 3 6 5 24 5 40 0 21 -4 29 -15
27 -12 -3 -12 -1 -3 9 10 10 9 17 -5 32 -9 10 -16 21 -14 23 7 11 1 34 -8 29
-6 -3 -7 1 -4 9 3 9 2 16 -4 16 -12 0 -21 21 -28 69 -3 20 -8 39 -10 42 -10
17 -15 230 -6 242 6 7 7 19 3 26 -6 9 -13 4 -26 -20 -9 -19 -18 -41 -20 -50
-6 -30 -47 -109 -57 -109 -5 0 -6 -4 -3 -10 3 -5 -3 -10 -15 -10 -12 0 -19 4
-16 8 2 4 -6 9 -19 10 -29 2 -69 -43 -62 -70 3 -10 1 -16 -3 -13 -5 3 -15 -2
-23 -10 -17 -17 -44 -20 -49 -6 -1 6 -15 12 -31 15 -16 3 -25 1 -22 -5 4 -5
12 -6 18 -3 7 4 8 3 4 -2 -4 -4 -19 -9 -33 -10 -20 -1 -26 5 -31 28 -3 15 -8
28 -12 29 -3 0 -14 2 -23 4 -10 2 -18 -2 -18 -8 0 -8 -4 -7 -12 1 -9 9 -16 8
-32 -6 -11 -9 -16 -12 -13 -5 8 13 -18 12 -30 -2 -4 -4 -2 -5 6 0 9 5 12 4 7
-3 -5 -9 -13 -8 -30 3 -12 8 -26 12 -31 8 -4 -5 -5 -2 -1 5 4 7 1 15 -9 18
-12 5 -13 9 -4 21 17 20 -11 14 -29 -7 -8 -8 -11 -9 -7 -3 3 7 -5 24 -19 36
-14 13 -23 27 -19 30 3 4 1 7 -7 7 -9 0 -10 3 -1 14 9 11 6 13 -13 11 -14 -2
-30 -6 -37 -11 -8 -5 -10 -3 -4 7 5 8 -2 5 -15 -6 -13 -11 -20 -15 -17 -8 4 6
3 15 -3 18 -12 8 5 35 22 35 43 0 125 69 160 134 19 36 14 53 -8 31 -9 -8 -19
-13 -24 -10 -5 3 -12 0 -16 -6 -5 -8 -3 -9 6 -4 9 5 11 4 6 -4 -6 -9 -11 -9
-21 -1 -9 8 -15 8 -20 0 -3 -6 -11 -8 -16 -5 -5 4 -9 1 -9 -6 0 -9 -3 -9 -15
1 -11 9 -22 6 -57 -18 -41 -27 -89 -52 -132 -66 -10 -4 -32 2 -52 14 -18 12
-42 23 -53 25 -11 2 -26 9 -33 15 -44 36 -62 50 -67 50 -4 0 -21 14 -39 30
-18 17 -40 30 -48 30 -8 0 -14 5 -14 10 0 6 -3 9 -8 9 -21 -4 -37 8 -122 91
-51 50 -97 90 -102 90 -5 0 -33 22 -61 49 -66 61 -92 75 -125 65 -15 -4 -31
-8 -36 -8 -5 -1 -11 -6 -13 -13 -4 -10 85 -36 106 -30 5 1 29 -11 54 -27 56
-35 70 -64 56 -117 -4 -15 -3 -31 2 -36 6 -6 2 -19 -11 -35 -24 -31 -25 -44
-4 -52 13 -5 13 -10 -6 -35 -11 -17 -27 -45 -35 -63 -18 -38 -35 -66 -52 -86
-11 -12 -18 -32 -10 -32 1 0 27 9 57 20 61 23 218 66 266 73 48 7 64 -13 41
-50 -6 -9 -3 -11 9 -6 13 5 15 3 9 -7 -6 -10 -4 -12 8 -7 10 4 16 2 14 -5 -1
-7 4 -12 12 -13 8 0 15 -8 17 -18 1 -11 -2 -15 -9 -10 -7 4 -6 -1 2 -10 12
-15 11 -17 -3 -17 -10 0 -14 -4 -11 -10 3 -5 1 -10 -5 -10 -7 0 -9 -7 -6 -16
3 -8 2 -12 -4 -9 -12 7 -14 -8 -3 -19 5 -4 8 -12 8 -18 0 -6 7 -12 16 -13 10
-2 16 4 15 13 -1 22 25 22 47 0 10 -10 22 -18 28 -18 6 0 8 -4 5 -9 -4 -5 0
-12 6 -14 8 -3 6 -6 -5 -6 -10 -1 -16 -5 -13 -10 3 -5 -1 -12 -10 -15 -9 -4
-14 -10 -10 -14 7 -7 11 -8 37 -11 8 -1 8 -6 -1 -16 -11 -13 -10 -14 5 -9 13
5 16 4 11 -5 -8 -12 -47 -12 -56 1 -3 4 -12 -3 -19 -15 -13 -21 -13 -21 4 -7
17 13 18 13 13 0 -4 -11 2 -16 24 -17 18 0 25 2 18 7 -8 5 -6 9 7 15 10 5 21
7 26 7 4 -1 6 1 6 5 -4 22 3 25 16 7 14 -18 14 -18 10 3 -2 13 2 26 8 29 7 4
9 4 5 -1 -4 -4 -3 -16 2 -26 14 -24 2 -49 -24 -50 -11 0 -15 -3 -8 -6 10 -4 9
-9 -5 -19 -16 -13 -15 -13 10 -4 25 9 31 6 28 -12 0 -4 6 -5 15 -1 22 8 13
-18 -14 -40 -16 -14 -20 -22 -12 -31 5 -7 7 -16 3 -20 -10 -10 -11 -46 -1 -40
4 3 8 0 8 -6 0 -6 5 -8 10 -5 6 4 8 10 5 15 -3 4 6 7 19 6 18 -1 22 -4 14 -13
-7 -9 -7 -13 1 -14 6 -1 14 -2 19 -3 14 -3 37 -21 52 -41 8 -11 10 -17 6 -13
-5 4 -16 2 -25 -5 -14 -11 -15 -10 -1 8 8 11 0 7 -18 -9 -34 -32 -43 -47 -14
-25 9 7 7 2 -6 -12 -12 -14 -24 -36 -27 -48 -2 -12 -14 -31 -27 -41 -24 -19
-69 -88 -50 -76 6 4 10 -1 9 -13 -1 -14 -5 -17 -13 -10 -8 6 -13 5 -17 -5 -4
-9 -1 -18 5 -22 7 -4 8 -3 4 4 -5 8 -2 10 9 6 14 -6 14 -8 -2 -19 -10 -7 -20
-12 -24 -10 -3 2 -6 -2 -6 -10 0 -8 4 -15 9 -15 5 0 6 -5 3 -10 -4 -6 -1 -9 7
-8 7 2 12 -2 11 -9 -2 -7 4 -10 12 -7 8 4 15 10 15 16 0 5 -4 7 -9 4 -5 -3
-14 1 -21 10 -11 12 -11 17 -1 27 10 9 12 8 9 -8 -1 -11 2 -20 9 -20 19 0 26
-14 14 -28 -9 -11 -7 -17 6 -28 16 -13 17 -12 4 4 -9 11 -10 17 -2 17 6 0 12
-4 12 -10 3 -20 4 -25 12 -38 5 -7 5 -12 0 -11 -27 5 -53 -3 -53 -16 0 -8 5
-15 11 -15 5 0 7 -5 3 -11 -5 -8 -1 -8 14 0 15 8 23 8 28 -1 4 -6 3 -8 -3 -5
-6 4 -17 -1 -24 -10 -12 -15 -12 -16 1 -8 25 15 42 15 36 -1 -3 -9 -2 -12 5
-9 6 4 8 13 5 20 -3 8 4 13 20 13 14 0 24 -6 24 -15 0 -8 -5 -11 -12 -7 -7 4
1 -6 18 -22 16 -16 21 -22 10 -14 -12 10 -9 1 10 -22 16 -21 34 -38 39 -37 6
0 4 3 -2 6 -17 6 -17 24 -1 21 7 -2 12 5 12 15 -1 9 3 17 9 17 6 0 3 6 -8 13
-12 9 -15 19 -10 28 7 11 5 11 -10 -1 -14 -11 -17 -11 -11 -1 5 8 3 17 -5 23
-10 6 -7 7 10 3 16 -5 21 -4 17 4 -4 6 -3 11 3 11 5 0 11 -5 13 -12 2 -6 15
-13 29 -15 18 -2 20 -1 9 6 -8 5 -18 7 -23 4 -5 -3 -8 0 -5 8 3 8 9 14 15 14
6 0 19 9 29 20 11 12 15 14 9 5 -8 -13 -8 -13 6 -3 9 7 18 11 21 8 3 -3 11 3
19 12 12 16 12 17 -1 7 -12 -9 -18 -9 -28 2 -8 9 -9 14 -2 14 6 0 8 5 4 12 -4
6 -3 8 3 5 6 -4 17 0 24 9 16 19 19 53 6 61 -6 3 -7 1 -3 -5 4 -7 1 -12 -8
-12 -10 0 -13 6 -9 15 3 9 13 15 22 13 24 -5 20 -49 -9 -83 l-25 -30 26 23
c14 12 29 19 34 15 4 -5 5 -3 1 4 -3 6 -2 14 4 18 5 3 10 0 10 -7 1 -7 7 -2
15 12 8 14 14 20 15 13 0 -7 7 -10 16 -6 14 5 14 7 -2 16 -11 6 -21 13 -24 16
-3 4 -14 7 -25 7 -11 0 -19 6 -17 13 1 7 -2 10 -9 5 -9 -5 -10 -2 -6 9 4 12 2
14 -10 10 -12 -5 -14 -3 -8 8 8 12 6 12 -8 0 -18 -14 -23 -26 -8 -16 5 3 12 1
15 -4 8 -12 -14 -8 -39 7 -12 7 -15 12 -6 12 8 0 11 7 8 20 -6 22 7 35 23 25
8 -5 7 -11 -1 -21 -10 -12 -9 -13 4 -8 15 5 27 25 33 53 1 8 6 17 11 20 4 3 9
12 11 20 3 12 1 12 -14 0 -16 -13 -16 -12 -5 9 9 17 9 22 0 20 -6 -2 -14 3
-17 11 -2 8 0 11 6 7 6 -3 13 -2 16 3 4 5 1 13 -5 17 -8 5 -9 3 -4 -6 5 -8 4
-11 -3 -6 -17 10 -25 -13 -11 -32 7 -9 10 -14 5 -10 -4 4 -19 3 -33 -3 -16 -6
-22 -6 -18 1 3 6 -2 10 -12 10 -11 1 -5 6 15 15 22 10 31 19 26 27 -4 7 -4 10
1 6 4 -4 14 -3 22 3 9 9 17 8 27 0 11 -9 16 -9 22 0 5 8 3 9 -6 4 -8 -5 -11
-4 -7 2 4 6 20 9 37 8 16 -1 30 2 30 7 0 5 5 6 12 2 6 -4 8 -3 5 3 -3 5 3 17
14 26 10 9 19 13 19 9 0 -4 5 0 10 8 7 11 10 11 10 2 0 -7 4 -10 10 -7 5 3 10
1 10 -5 0 -6 5 -8 12 -4 7 4 8 3 4 -5 -4 -6 -13 -9 -19 -5 -7 3 0 -5 14 -19
20 -18 36 -23 64 -22 30 2 38 -1 47 -21 6 -13 14 -22 17 -20 3 2 15 -8 25 -22
11 -14 13 -22 6 -17 -7 5 -5 -3 6 -18 14 -20 27 -26 54 -25 19 0 41 6 49 12
12 9 13 8 6 -4 -7 -13 -6 -13 7 -2 13 11 19 5 42 -44 23 -49 30 -56 50 -52 18
4 23 1 18 -10 -4 -11 -1 -13 9 -7 8 4 11 5 7 0 -4 -4 -3 -14 3 -21 7 -8 7 -14
-1 -19 -6 -4 0 -19 16 -41 14 -18 24 -41 20 -49 -3 -9 8 -30 26 -50 27 -31 29
-39 19 -58 -7 -12 -13 -32 -14 -44 -1 -17 -4 -19 -14 -11 -7 5 -11 14 -8 18 5
9 -22 23 -45 24 -8 0 -18 5 -22 11 -5 6 -8 3 -8 -7 0 -10 6 -18 13 -18 8 0 7
-4 -3 -10 -13 -8 -12 -10 3 -10 12 0 16 -5 11 -12 -6 -10 -4 -10 7 0 7 6 18
12 23 12 6 0 4 -5 -4 -10 -8 -5 -10 -10 -4 -10 5 0 10 -11 10 -24 0 -25 -17
-29 -38 -8 -9 9 -16 8 -32 -6 -11 -9 -16 -11 -12 -4 10 17 -9 15 -23 -2 -12
-15 -35 -16 -48 -2 -4 4 -3 6 4 4 6 -1 11 0 12 5 1 4 -1 6 -2 5 -2 -2 -11 3
-19 9 -12 11 -18 9 -34 -9 -13 -16 -14 -19 -2 -10 11 9 18 10 23 2 4 -6 3 -10
-2 -9 -4 1 -10 0 -13 -1 -18 -7 -39 -7 -35 0 3 5 0 12 -6 16 -8 4 -9 3 -5 -5
7 -11 -32 -33 -46 -24 -5 2 -8 -3 -8 -11 0 -8 -5 -18 -12 -22 -7 -5 -8 -3 -3
7 8 12 6 12 -8 0 -14 -11 -17 -11 -17 0 0 11 -2 11 -10 -1 -8 -12 -10 -12 -10
-1 0 11 -3 11 -17 0 -11 -10 -14 -10 -9 -1 5 8 0 12 -16 12 -13 0 -30 -6 -37
-12 -9 -9 -12 -9 -7 -1 3 6 0 13 -6 16 -17 5 -49 -4 -43 -12 2 -4 -2 -8 -9 -8
-8 0 -12 6 -9 14 3 7 -2 13 -12 13 -9 0 -14 4 -11 9 3 4 -6 13 -20 20 -29 13
-37 14 -30 3 2 -4 -2 -18 -11 -32 -8 -14 -12 -18 -10 -9 3 9 -1 16 -8 16 -7 0
-11 -6 -9 -12 8 -19 -19 -36 -36 -23 -12 8 -12 9 2 4 10 -3 19 -2 22 2 10 16
-38 10 -52 -6 -11 -14 -13 -14 -9 -1 3 10 -5 19 -25 27 -30 11 -30 11 -12 -9
10 -11 14 -20 9 -19 -22 5 -25 -1 -9 -25 9 -14 20 -22 25 -19 15 9 23 -26 9
-39 -10 -10 -11 -7 -6 13 3 14 3 19 0 12 -5 -10 -9 -10 -22 0 -13 12 -14 11
-2 -8 9 -15 10 -26 2 -39 -7 -14 -6 -25 5 -42 8 -12 18 -21 22 -18 9 5 13 -15
13 -73 0 -36 3 -42 18 -37 10 3 21 1 25 -4 4 -7 -1 -8 -11 -4 -11 4 -15 3 -10
-5 5 -8 -3 -8 -28 1 -50 18 -107 72 -155 150 -12 20 -27 37 -31 37 -5 0 -34
34 -66 75 -43 59 -59 73 -69 65 -18 -15 -38 -141 -32 -193 3 -23 16 -113 28
-200 22 -155 22 -159 5 -275 -9 -64 -32 -193 -51 -287 -19 -93 -46 -249 -60
-346 -26 -182 -52 -267 -98 -318 -12 -13 -56 -48 -97 -78 -41 -31 -90 -70
-108 -87 -43 -39 -122 -141 -122 -156 0 -6 -13 -30 -29 -53 -53 -79 -148 -262
-174 -339 -24 -70 -28 -104 -42 -343 l-14 -266 -154 -192 c-172 -214 -240
-315 -333 -492 -89 -172 -127 -275 -166 -450 -18 -83 -22 -141 -25 -340 l-5
-240 42 -245 c23 -135 58 -309 77 -387 l36 -142 -18 -116 c-12 -79 -16 -140
-12 -194 7 -89 34 -208 52 -231 6 -8 53 -98 103 -200 112 -225 155 -302 261
-460 21 -30 66 -111 100 -180 107 -213 120 -229 290 -336 58 -37 177 -115 264
-173 87 -58 173 -114 190 -124 17 -10 56 -38 87 -62 154 -119 287 -162 555
-180 144 -10 278 -32 463 -76 96 -24 314 -49 422 -49 133 0 359 43 540 102
258 84 449 177 775 375 72 43 177 98 235 122 58 24 126 54 152 67 57 29 147
111 223 204 32 39 62 70 69 70 8 0 8 -2 0 -8 -6 -4 -10 -16 -8 -27 6 -40 -40
-201 -97 -333 -67 -159 -192 -503 -319 -882 -67 -201 -126 -369 -130 -375 -4
-5 -11 -35 -14 -66 -4 -30 -14 -68 -21 -83 -8 -16 -15 -40 -15 -55 0 -14 -8
-39 -18 -56 -13 -20 -21 -60 -25 -124 -4 -53 -13 -104 -21 -116 -8 -13 -17
-67 -21 -140 -4 -66 -13 -133 -20 -150 -7 -16 -16 -60 -19 -97 -4 -36 -15 -88
-25 -115 -22 -55 -46 -137 -60 -203 -12 -54 -35 -287 -35 -350 0 -103 25 -323
42 -377 11 -32 25 -80 31 -106 6 -26 32 -93 56 -149 33 -73 45 -114 45 -148 0
-105 73 -309 201 -561 39 -76 95 -173 126 -216 31 -43 85 -119 120 -170 58
-84 173 -203 196 -203 5 0 43 -24 83 -52 82 -59 100 -87 115 -179 20 -125 41
-194 88 -288 67 -134 75 -175 67 -345 -9 -206 -22 -350 -40 -446 -48 -266 -71
-420 -86 -585 -16 -170 -29 -259 -50 -345 -45 -179 -61 -352 -64 -702 -2 -183
-7 -406 -11 -496 l-8 -162 5581 0 5582 0 6 26 c8 30 -2 205 -12 244 -4 14 -8
93 -9 175 -2 145 -6 220 -24 430 -11 137 -4 253 18 279 5 6 12 31 16 56 4 24
8 47 10 50 6 11 -15 51 -24 45 -5 -3 -12 -1 -16 5 -10 16 -25 1 -25 -25 0 -29
-19 -43 -32 -24 -7 10 -7 7 -3 -8 5 -18 2 -23 -12 -23 -22 0 -43 18 -43 36 0
8 9 11 20 9 11 -2 18 0 15 5 -7 12 -54 5 -68 -10 -10 -10 -8 -12 6 -7 21 8 22
3 0 -23 -19 -22 -39 -28 -27 -7 6 9 5 9 -8 0 -8 -7 -18 -10 -21 -7 -3 4 -14 3
-24 -1 -10 -5 -26 -7 -37 -6 -13 2 -16 -1 -10 -11 6 -11 5 -11 -8 0 -13 11
-23 10 -52 -2 -20 -8 -36 -12 -36 -9 0 3 -6 0 -14 -6 -10 -9 -16 -9 -21 -1 -5
8 -11 8 -20 0 -9 -7 -64 -12 -145 -13 -104 0 -134 2 -141 14 -7 12 -9 12 -9 0
0 -8 -3 -11 -7 -8 -3 4 -13 1 -21 -6 -13 -9 -14 -9 -8 1 9 15 -6 16 -21 1 -8
-8 -17 -8 -31 0 -11 6 -28 8 -36 5 -9 -3 -16 -1 -16 5 0 6 -15 11 -34 11 -22
0 -36 6 -40 16 -5 12 -9 14 -20 5 -10 -8 -19 -7 -37 8 -13 10 -43 22 -67 26
-23 4 -40 11 -36 16 4 8 -2 11 -22 8 -14 -1 -44 46 -38 60 3 9 9 24 11 33 3
10 14 18 24 18 23 0 43 -36 33 -58 -10 -23 -14 -45 -7 -38 4 3 13 0 22 -7 14
-10 14 -10 3 5 -11 14 -10 19 10 32 19 14 21 19 10 36 -25 41 -5 78 38 71 10
-2 9 2 -5 14 -11 9 -15 14 -9 11 18 -9 26 24 12 42 -8 9 -8 13 -2 9 7 -4 18 1
25 10 12 14 12 16 0 8 -11 -6 -13 -4 -8 11 7 18 7 18 -7 0 -9 -11 -19 -15 -28
-10 -22 14 -35 13 -34 -5 0 -9 15 -24 31 -34 17 -10 22 -16 13 -13 -9 3 -19
-2 -22 -10 -3 -9 -11 -12 -17 -8 -8 4 -9 3 -5 -5 5 -7 -4 -16 -23 -24 -17 -7
-28 -17 -24 -21 4 -4 0 -4 -10 0 -18 7 -23 24 -7 24 5 0 6 7 3 17 -5 12 -3 14
8 8 12 -7 12 -6 1 7 -8 9 -20 14 -27 12 -7 -3 -18 4 -25 15 -6 12 -8 21 -4 21
3 0 1 6 -5 13 -6 8 -8 17 -5 20 9 9 55 -24 48 -34 -3 -5 6 -5 19 0 14 6 27 8
30 5 2 -3 3 6 2 19 -2 15 6 34 19 48 20 22 21 25 7 36 -11 9 -12 12 -3 13 7 0
10 5 7 10 -3 6 1 10 10 10 9 0 14 -4 11 -9 -4 -5 4 -7 16 -3 18 4 20 2 16 -16
-4 -12 -3 -20 2 -17 4 3 10 -4 13 -15 3 -14 10 -18 22 -14 9 4 14 12 11 19 -6
16 22 57 35 50 5 -3 6 1 3 9 -3 9 -12 12 -22 8 -15 -5 -15 -4 -3 12 11 13 11
16 1 14 -7 -2 -14 2 -17 8 -2 7 6 10 22 9 14 -2 23 1 20 5 -3 5 -13 6 -22 3
-11 -4 -14 -3 -9 6 5 7 2 10 -6 9 -7 -2 -12 5 -12 15 1 9 -2 17 -7 17 -6 0 -6
7 0 18 6 10 6 24 0 34 -7 12 -2 18 21 28 16 7 39 10 49 7 11 -3 22 1 25 8 3 8
15 15 28 17 17 2 23 9 22 26 -1 21 2 22 35 17 34 -5 35 -5 16 10 -11 9 -14 14
-7 10 6 -3 12 -1 12 6 0 8 4 8 15 -1 19 -15 49 -5 42 15 -4 9 -1 12 7 9 7 -3
13 1 13 8 0 7 2 20 4 28 2 8 -2 15 -8 16 -27 3 -28 5 -13 14 13 8 13 10 -1 10
-17 0 -29 26 -22 47 2 7 10 10 17 7 6 -2 38 19 69 49 32 29 60 51 64 48 3 -3
3 0 -2 8 -6 11 -13 8 -32 -15 -18 -23 -23 -25 -23 -11 0 10 -4 16 -8 13 -5 -3
-8 6 -8 20 1 14 8 29 15 33 10 6 9 10 -4 15 -18 6 -12 26 8 26 7 0 6 -4 -3
-10 -13 -8 -13 -10 2 -10 9 0 19 -6 21 -12 3 -7 6 -4 6 7 1 17 3 17 11 5 8
-13 10 -12 11 5 1 11 3 27 4 35 2 20 -16 60 -27 60 -14 0 -9 30 7 36 8 4 15
12 15 20 0 12 11 16 72 29 10 2 20 -1 23 -6 3 -4 12 -6 21 -2 11 4 12 9 4 18
-8 10 -8 15 1 21 7 4 9 3 6 -3 -4 -6 2 -18 13 -28 20 -18 23 -51 6 -75 -9 -13
-8 -13 5 -3 16 13 29 8 29 -9 0 -5 -5 -6 -12 -2 -7 4 -8 3 -4 -4 8 -13 33 -6
59 16 20 17 19 18 40 -26 9 -18 13 -40 10 -49 -4 -10 -2 -14 4 -10 6 4 14 -4
18 -20 3 -14 23 -46 43 -71 28 -35 32 -44 17 -39 -19 7 -19 6 -1 -7 10 -8 15
-19 12 -24 -7 -13 33 -10 42 3 10 14 32 17 32 4 0 -5 6 -7 13 -3 7 5 6 0 -3
-11 -14 -17 -13 -18 4 -12 16 6 17 5 6 -8 -9 -11 -9 -15 -1 -15 7 0 9 -5 6
-10 -4 -6 -3 -10 2 -9 20 3 30 -2 30 -16 0 -8 -4 -15 -9 -15 -5 0 -6 -4 -3
-10 3 -5 1 -10 -4 -10 -15 0 -14 -37 1 -46 8 -5 9 -2 5 9 -3 9 -1 19 5 23 7 5
8 2 3 -6 -6 -9 -4 -12 6 -8 10 4 15 -1 15 -13 0 -10 -2 -16 -5 -14 -2 3 -10 0
-18 -6 -10 -9 -10 -15 -2 -25 8 -10 8 -14 1 -14 -6 0 -9 -9 -7 -20 2 -11 -1
-22 -6 -26 -5 -3 -8 0 -7 8 2 7 -3 12 -10 10 -8 -1 -11 2 -7 8 3 6 12 7 18 4
9 -5 9 -4 0 6 -7 8 -22 10 -43 5 -29 -6 -34 -20 -7 -20 14 0 28 -53 16 -61 -5
-3 -6 -10 -3 -16 4 -7 9 -6 14 2 5 8 9 7 13 -4 6 -15 -10 -22 -38 -16 -5 1 -1
-9 10 -22 20 -22 20 -23 0 -8 -45 34 -64 53 -60 61 3 4 -4 5 -16 2 -11 -3 -24
-15 -29 -27 -9 -24 -3 -39 11 -31 5 4 19 3 30 0 17 -6 19 -9 8 -17 -10 -6 -4
-8 17 -5 18 3 31 0 32 -7 0 -6 3 -21 5 -33 5 -21 -14 -39 -27 -26 -10 10 -7
25 3 18 5 -3 12 -2 15 3 8 13 -26 11 -44 -2 -8 -6 -6 0 5 13 16 20 17 23 4 18
-9 -3 -21 -1 -26 4 -6 6 -17 2 -28 -12 -11 -11 -15 -20 -10 -19 21 5 35 0 35
-12 0 -9 -3 -9 -11 -1 -13 13 -42 6 -34 -7 3 -5 0 -12 -6 -16 -8 -4 -9 -3 -5
4 11 17 -29 15 -43 -2 -10 -11 -8 -16 9 -21 12 -4 17 -11 13 -18 -3 -7 2 -4
13 5 20 17 47 19 61 3 4 -4 2 -5 -4 -1 -8 4 -13 2 -13 -6 0 -9 -3 -9 -10 2 -9
13 -10 13 -11 0 -1 -8 -1 -22 0 -31 1 -10 -8 -19 -24 -23 -23 -6 -25 -9 -13
-23 9 -12 9 -15 1 -9 -9 5 -11 2 -7 -9 4 -9 9 -14 11 -11 3 2 18 0 33 -6 24
-8 27 -12 17 -23 -10 -11 -15 -11 -27 0 -10 9 -20 11 -30 5 -12 -8 -12 -10 -1
-10 7 0 11 -6 7 -15 -3 -8 -4 -15 -3 -15 1 0 17 -4 35 -9 18 -6 30 -6 27 -1
-3 4 2 11 11 14 22 8 26 8 19 -3 -3 -5 -1 -12 4 -16 6 -3 8 -13 5 -23 -5 -14
-4 -14 4 -3 9 12 13 12 26 2 9 -7 13 -18 9 -24 -3 -6 -1 -7 6 -3 15 9 54 -34
56 -62 1 -12 -2 -19 -7 -16 -4 3 -8 1 -8 -4 0 -19 14 -21 38 -6 13 9 22 12 18
6 -3 -5 0 -15 8 -21 11 -9 13 -4 9 29 -5 39 11 57 23 26 3 -8 11 -17 18 -19 9
-4 12 19 12 90 -1 78 2 97 15 104 9 4 19 6 22 3 8 -9 47 6 47 17 0 5 9 19 19
30 11 12 22 33 26 47 11 43 34 62 76 62 49 0 156 40 213 80 51 35 95 86 158
185 59 92 161 219 222 275 81 75 258 282 316 370 8 13 27 37 41 54 14 17 30
39 35 48 5 10 44 53 87 97 96 101 176 145 246 138 75 -8 132 -24 204 -56 115
-52 202 -39 355 51 64 37 174 143 235 227 22 31 63 83 92 116 61 71 110 159
159 287 47 119 88 208 97 208 4 0 20 21 35 48 15 26 34 54 42 62 8 8 21 30 29
49 8 19 45 67 82 106 38 38 88 96 112 129 53 71 137 225 143 263 3 16 10 66
16 113 6 46 14 88 16 92 2 4 7 26 10 50 3 24 17 93 30 153 31 135 25 113 69
280 21 77 52 211 71 297 18 86 42 188 53 225 20 68 26 102 57 313 9 63 18 125
20 136 2 12 11 75 19 140 8 66 23 151 34 189 20 77 25 103 50 315 11 91 19
227 20 365 1 194 -2 237 -24 364 -34 195 -33 320 5 576 16 110 38 252 50 314
29 164 45 521 30 704 -29 366 -86 724 -151 942 -60 199 -69 224 -104 298 -19
42 -35 81 -35 86 0 11 -126 284 -146 316 -26 42 -117 215 -173 330 -63 129
-86 191 -127 350 -59 225 -128 422 -219 625 -18 41 -43 107 -55 145 -56 177
-75 237 -107 333 -40 119 -85 330 -113 522 -18 132 -41 243 -114 562 -24 105
-39 203 -46 296 -7 100 -17 160 -34 213 -16 47 -24 93 -23 126 2 43 -3 58 -29
96 -18 24 -35 55 -39 68 -12 39 -55 120 -99 186 -23 34 -54 84 -70 110 -16 26
-39 64 -51 83 -104 162 -404 741 -468 900 -25 63 -55 134 -66 157 -12 23 -21
47 -21 54 0 21 -114 230 -204 374 -49 77 -120 192 -159 255 -136 223 -281 374
-564 587 -70 53 -157 122 -193 153 -102 89 -210 166 -330 238 -83 49 -410 185
-515 215 -33 9 -181 46 -330 82 -246 60 -281 71 -395 127 -69 33 -154 74 -190
90 -36 16 -79 38 -97 49 l-33 20 26 51 c33 65 34 137 2 204 -27 59 -133 172
-196 212 -26 16 -89 55 -140 87 -153 95 -252 206 -376 424 -163 285 -383 496
-606 582 -59 23 -101 47 -137 80 -84 75 -180 133 -288 172 -130 48 -173 56
-271 57 -77 0 -85 2 -135 36 -30 20 -57 41 -61 48 -15 27 -47 60 -49 51z m279
-1134 c170 -103 171 -104 177 -119 8 -20 -6 -92 -18 -92 -21 0 -317 272 -317
291 0 13 24 1 158 -80z m116 -356 c-6 -16 -24 -21 -24 -7 0 11 11 22 21 22 5
0 6 -7 3 -15z m-86 -24 c2 -6 -1 -18 -7 -25 -9 -10 -8 -15 5 -20 28 -11 37 -7
23 11 -8 9 -9 14 -4 11 6 -2 18 -8 28 -11 17 -6 17 -9 3 -34 -24 -45 -66 -139
-66 -150 0 -5 -10 -18 -22 -29 -13 -10 -20 -15 -15 -10 4 5 0 17 -9 27 -11 12
-12 19 -4 24 8 5 7 11 -2 23 -8 10 -9 13 -1 9 6 -4 14 -3 17 2 7 11 -13 9 -34
-3 -8 -5 -12 -6 -8 -1 4 4 3 14 -3 22 -9 10 -8 13 2 13 11 0 11 2 -1 10 -11 7
-11 10 -2 10 7 0 10 4 7 10 -3 6 1 7 10 4 10 -4 15 -14 12 -24 -3 -13 2 -19
17 -22 24 -5 25 1 26 90 0 23 4 42 10 42 5 0 10 8 9 18 0 10 -3 12 -6 4 -5
-13 -23 -7 -23 8 0 12 33 5 38 -9z m-45 -66 c-3 -9 -8 -14 -10 -11 -3 3 -2 9
2 15 9 16 15 13 8 -4z m-3693 -30 c-7 -8 -17 -15 -23 -15 -6 0 -2 7 9 15 25
19 30 19 14 0z m3477 -370 c0 -8 -4 -12 -9 -9 -5 3 -6 10 -3 15 9 13 12 11 12
-6z m-62 -5 c-3 -5 -12 -10 -18 -10 -7 0 -6 4 3 10 19 12 23 12 15 0z m-2915
-240 c0 -5 -2 -10 -4 -10 -3 0 -8 5 -11 10 -3 6 -1 10 4 10 6 0 11 -4 11 -10z
m1157 -35 c0 -8 -4 -12 -9 -9 -5 3 -6 10 -3 15 9 13 12 11 12 -6z m218 -14 c3
-5 2 -12 -3 -15 -5 -3 -9 1 -9 9 0 17 3 19 12 6z m-459 -58 c-4 -8 -1 -11 5
-8 6 4 13 -2 16 -14 3 -11 9 -19 12 -16 4 2 8 -3 8 -12 0 -13 -3 -13 -16 3
-24 30 -27 31 -50 10 -12 -11 -21 -16 -21 -12 0 4 -6 4 -12 -1 -19 -11 -39
-13 -32 -2 3 5 -2 9 -11 9 -9 0 -13 5 -10 10 4 6 12 7 18 3 8 -4 7 -1 -1 9
-10 13 -10 18 -1 24 7 4 9 3 6 -3 -4 -6 0 -14 9 -17 8 -3 13 -2 10 3 -3 5 2
15 11 22 13 11 17 11 20 2 5 -14 24 -18 22 -5 -3 16 2 23 12 17 6 -4 8 -14 5
-22z m-699 -53 c1 -11 -2 -18 -8 -15 -11 7 -12 35 -1 35 4 0 8 -9 9 -20z
m1170 -16 c-3 -3 -12 -4 -19 -1 -8 3 -5 6 6 6 11 1 17 -2 13 -5z m-8696 -21
c13 -16 12 -17 -3 -4 -10 7 -18 15 -18 17 0 8 8 3 21 -13z m8453 -9 c3 -8 2
-12 -4 -9 -6 3 -10 10 -10 16 0 14 7 11 14 -7z m199 -8 c19 -15 24 -31 5 -20
-7 4 -8 3 -4 -4 4 -6 14 -8 24 -5 14 6 15 4 4 -9 -7 -9 -21 -15 -30 -13 -26 4
-34 -5 -20 -23 12 -15 11 -16 -5 -3 -13 10 -15 17 -6 27 7 9 8 14 1 14 -5 0
-9 11 -8 25 1 28 12 31 39 11z m-403 -4 c0 -5 -7 -9 -15 -9 -8 0 -12 4 -9 9 3
4 9 8 15 8 5 0 9 -4 9 -8z m-71 -36 c-2 -2 -15 -9 -29 -16 -23 -12 -24 -12
-11 3 7 10 20 17 29 17 8 0 13 -2 11 -4z m-8439 -50 c0 -1 -7 -3 -15 -3 -8 0
-15 5 -15 11 0 6 -5 4 -10 -4 -5 -8 -10 -10 -10 -4 0 18 12 24 31 13 11 -5 19
-11 19 -13z m8340 -3 c-14 -3 -28 -10 -32 -17 -5 -7 -8 -7 -8 0 0 17 12 24 39
23 l26 -2 -25 -4z m325 -31 c-3 -3 3 -14 12 -24 23 -26 4 -46 -31 -31 -17 8
-27 8 -35 0 -6 -6 -11 -8 -11 -5 0 4 7 14 16 23 12 11 20 13 29 5 10 -8 15 -8
21 1 4 8 3 9 -5 5 -6 -4 -14 0 -17 8 -3 9 -11 13 -18 9 -6 -4 -5 0 2 9 8 9 20
14 28 11 8 -3 12 -8 9 -11z m-108 2 c13 -4 20 -10 17 -15 -3 -5 3 -9 12 -9 14
0 15 -3 6 -12 -18 -18 -44 -18 -60 0 -9 11 -11 12 -6 2 7 -13 6 -13 -10 -1
-13 11 -20 11 -28 3 -7 -7 -17 -12 -22 -12 -10 0 53 49 64 49 3 1 15 -2 27 -5z
m-7212 -604 c3 -6 -1 -7 -9 -4 -18 7 -21 14 -7 14 6 0 13 -4 16 -10z m225
-104 c25 -3 62 -8 84 -11 21 -2 46 -7 56 -10 21 -7 33 -31 17 -33 -7 0 -41 -4
-76 -8 -47 -5 -62 -4 -57 5 9 15 -7 14 -22 -1 -8 -8 -12 -8 -12 -1 0 6 -16 18
-35 27 -19 9 -35 21 -35 27 0 6 -5 7 -12 3 -6 -4 -8 -3 -5 3 7 11 25 10 97 -1z
m108 -85 c9 -5 31 -11 47 -14 107 -18 165 -33 165 -42 0 -5 5 -3 10 5 7 11 10
11 10 2 0 -8 5 -10 13 -6 8 5 9 4 2 -4 -5 -6 -17 -12 -25 -14 -8 -2 -21 -10
-28 -18 -8 -8 -11 -10 -8 -4 3 7 -8 11 -32 12 -71 1 -97 4 -109 14 -7 6 -13 7
-13 3 0 -4 -7 -1 -17 6 -9 8 -17 13 -17 11 -2 -7 -62 11 -81 24 -14 10 -15 14
-5 14 13 0 13 2 0 10 -20 13 64 14 88 1z m-168 -205 c0 -2 -7 -7 -16 -10 -8
-3 -12 -2 -9 4 6 10 25 14 25 6z m-645 -75 c3 -5 2 -12 -3 -15 -5 -3 -9 1 -9
9 0 17 3 19 12 6z m226 -10 c-11 -7 -10 -10 5 -14 13 -3 10 -5 -10 -6 -24 -1
-27 1 -16 14 7 8 18 15 24 15 6 0 5 -4 -3 -9z m-1226 -40 c-3 -6 -11 -11 -17
-11 -6 0 -6 6 2 15 14 17 26 13 15 -4z m132 -22 c-1 -4 2 -7 7 -7 5 0 12 -6
17 -14 6 -10 11 -9 23 7 13 19 15 19 21 3 4 -10 11 -15 16 -12 15 9 23 -26 9
-39 -10 -9 -11 -9 -5 2 5 9 3 12 -6 9 -8 -3 -21 -2 -30 3 -11 6 -21 3 -29 -6
-11 -13 -10 -14 3 -10 8 4 18 1 23 -6 4 -8 3 -10 -5 -5 -6 4 -18 2 -26 -4 -17
-14 -17 -14 -20 18 -1 12 2 22 7 22 5 0 6 5 3 10 -4 6 -11 8 -16 4 -5 -3 -8 0
-7 8 2 7 -3 12 -10 10 -8 -1 -11 1 -8 6 6 11 36 12 33 1z m-102 -9 c-3 -5 0
-10 7 -10 10 0 9 -3 -2 -9 -20 -13 -34 -2 -19 15 13 16 23 19 14 4z m1005 -4
c0 -2 -7 -7 -16 -10 -8 -3 -12 -2 -9 4 6 10 25 14 25 6z m-949 -45 c0 10 2 11
6 1 2 -6 8 -10 12 -8 4 3 8 -1 8 -8 0 -14 -21 -11 -43 5 -6 5 -15 5 -19 1 -5
-4 -5 -1 -1 6 6 10 11 10 22 1 11 -9 14 -8 15 2z m1036 -146 c0 -8 -4 -12 -9
-9 -4 3 -8 9 -8 15 0 5 4 9 8 9 5 0 9 -7 9 -15z m-190 -35 c14 -11 22 -20 17
-20 -5 0 -4 -4 2 -8 6 -4 26 -27 43 -52 17 -25 38 -55 47 -66 8 -12 17 -31 19
-43 2 -11 6 -25 9 -29 3 -5 -1 -9 -9 -9 -8 0 -12 4 -10 8 6 9 -16 6 -33 -5 -7
-4 -12 -4 -11 1 4 23 -2 57 -9 47 -4 -6 -19 2 -38 22 -17 18 -29 36 -25 40 3
4 -2 4 -11 1 -11 -4 -15 -2 -12 7 3 7 -2 16 -11 20 -10 3 -13 11 -8 18 11 19
15 58 5 58 -5 0 -8 -12 -6 -26 2 -20 0 -24 -9 -15 -14 14 -18 41 -6 41 6 0 8
4 5 9 -5 8 4 16 22 20 2 1 15 -8 29 -19z m-807 -6 c0 -8 -19 -13 -24 -6 -3 5
1 9 9 9 8 0 15 -2 15 -3z m56 -26 c3 -4 -7 -5 -22 -3 -26 2 -27 2 -9 -11 10
-8 15 -14 9 -14 -15 1 -44 27 -37 34 8 7 49 3 59 -6z m33 -101 c-2 -1 -13 -9
-24 -17 -19 -14 -19 -14 -6 3 7 9 18 17 24 17 6 0 8 -1 6 -3z m99 -48 c-3 -8
-7 -3 -11 10 -4 17 -3 21 5 13 5 -5 8 -16 6 -23z m726 -55 c3 -8 2 -12 -4 -9
-6 3 -10 10 -10 16 0 14 7 11 14 -7z m944 -426 c2 -27 8 -48 17 -55 4 -4 5 -2
1 5 -4 6 -2 12 4 12 6 0 8 5 4 12 -4 6 -3 8 4 5 8 -6 10 -35 2 -44 -6 -7 -5
-31 1 -58 3 -17 2 -41 -2 -53 -7 -19 -12 -21 -28 -12 -12 6 -18 16 -15 25 4 9
0 15 -9 15 -9 0 -19 5 -23 12 -5 7 -3 8 6 3 10 -6 12 -4 7 8 -3 10 -2 17 2 17
5 0 8 14 7 31 -1 16 1 32 5 35 13 7 -2 35 -15 28 -6 -3 -2 2 8 10 24 19 22 19
24 4z m-662 -127 c0 -11 -5 -17 -13 -14 -10 4 -11 9 -2 19 15 18 15 18 15 -5z
m71 12 c-4 -3 -2 -12 4 -19 7 -8 7 -14 -1 -19 -6 -3 -7 -11 -4 -17 4 -7 2 -8
-5 -4 -6 4 -9 11 -6 16 3 5 1 11 -4 15 -12 7 -3 35 12 35 6 0 7 -3 4 -7z
m-314 -45 c-13 -22 -12 -36 4 -42 8 -3 11 -1 8 4 -3 6 1 10 10 10 9 0 14 -4
11 -9 -11 -18 35 2 48 20 13 19 14 19 37 -1 16 -14 18 -18 7 -14 -11 4 -18 1
-18 -6 0 -6 -5 -8 -12 -4 -7 4 -8 3 -4 -5 4 -6 13 -8 19 -4 31 19 45 10 43
-27 -1 -26 3 -36 11 -33 21 8 33 -40 14 -54 -9 -7 -12 -13 -8 -13 5 0 1 -7 -7
-16 -9 -8 -13 -21 -9 -27 4 -6 0 -8 -10 -4 -10 4 -20 0 -26 -11 -7 -11 -11
-12 -11 -4 0 7 -5 10 -10 7 -6 -4 -7 -11 -4 -17 5 -7 2 -8 -5 -4 -7 5 -18 0
-26 -10 -8 -11 -15 -15 -15 -10 0 5 -6 3 -14 -3 -12 -10 -19 -8 -36 9 -18 18
-19 24 -8 38 9 11 10 14 1 8 -8 -4 -13 -1 -13 8 0 9 -4 16 -9 16 -6 0 -8 9 -6
20 3 17 1 19 -15 10 -16 -8 -22 -5 -36 19 -16 27 -30 36 -72 46 -6 2 -10 -1
-7 -5 3 -5 1 -11 -5 -15 -6 -4 -7 -11 -4 -17 4 -7 2 -8 -5 -4 -9 6 -9 11 -1
21 8 10 8 15 -1 20 -8 6 -7 10 2 16 12 7 11 9 0 9 -11 0 -9 4 5 14 17 13 22
13 43 -1 13 -8 20 -10 17 -4 -5 7 1 11 14 11 12 0 19 4 16 8 -10 16 35 45 92
61 2 1 0 -5 -5 -11z m300 -52 c3 -8 -2 -24 -12 -35 -16 -18 -20 -19 -25 -6 -4
10 -2 14 5 9 7 -4 10 -1 7 7 -2 7 0 19 6 26 14 15 13 16 19 -1z m44 -28 c-3
-8 -6 -5 -6 6 -1 11 2 17 5 13 3 -3 4 -12 1 -19z m-143 -13 c-4 -8 -11 -12
-16 -9 -6 4 -5 10 3 15 19 12 19 11 13 -6z m166 -17 c0 -5 5 -6 12 -2 7 4 8 3
4 -5 -4 -6 -12 -8 -18 -5 -8 5 -9 1 -4 -11 6 -18 6 -18 -12 -2 -10 9 -23 14
-27 10 -5 -5 -4 -1 3 8 13 17 42 22 42 7z m-87 -22 c3 -8 3 -17 0 -20 -9 -9
-34 15 -27 25 8 13 21 11 27 -5z m79 -85 c18 -1 20 -33 3 -48 -4 -5 -5 -1 -1
7 4 8 0 6 -8 -4 -11 -13 -16 -15 -16 -6 0 7 -3 10 -7 7 -3 -4 1 -15 10 -25 14
-15 15 -19 2 -19 -8 0 -12 5 -9 11 3 6 -3 0 -14 -14 l-20 -24 -13 26 c-6 15
-16 25 -22 21 -12 -7 1 38 16 52 7 7 8 5 3 -5 -4 -8 1 -5 11 6 10 12 25 20 33
18 8 -1 23 -3 32 -3z m-184 -20 c-9 -15 -16 -17 -30 -10 -21 11 -24 21 -4 13
8 -3 17 -1 21 5 3 6 10 11 16 11 5 0 4 -9 -3 -19z m10670 -36 c30 -38 37 -122
16 -195 l-17 -61 29 -29 c16 -16 45 -58 64 -95 34 -66 34 -66 16 -99 -12 -22
-15 -41 -10 -62 4 -16 8 -38 9 -49 0 -11 6 -30 13 -42 20 -36 15 -63 -22 -142
-10 -23 -14 -23 -86 -18 -41 3 -88 12 -105 20 -16 8 -61 20 -99 27 -38 7 -76
20 -86 30 -34 34 -9 170 32 170 13 0 47 42 48 58 0 8 -9 25 -20 39 -29 37 -25
69 15 116 19 22 35 44 35 48 0 4 18 16 41 27 23 12 35 22 27 25 -8 4 -7 6 5 6
21 1 22 9 0 33 -24 27 -24 135 0 171 16 24 45 44 69 46 4 1 15 -10 26 -24z
m-10683 -16 c-4 -5 -1 -9 4 -9 6 0 11 -7 11 -16 0 -8 -5 -12 -10 -9 -14 9 -7
-30 10 -49 10 -13 10 -20 2 -28 -15 -15 -16 -41 -1 -32 7 4 10 1 7 -7 -5 -15
-6 -15 -183 -5 -134 7 -183 14 -190 27 -3 4 4 6 15 4 17 -3 21 0 18 18 -2 16
10 34 39 60 24 22 44 33 48 28 3 -6 16 -9 28 -7 12 3 30 5 40 5 10 1 16 5 13
9 -3 5 1 9 9 9 8 0 15 -5 15 -11 0 -6 4 -5 9 3 5 7 15 11 22 9 7 -2 29 1 48 8
37 12 56 10 46 -7z m135 -57 c0 -5 -7 -9 -15 -9 -8 0 -12 4 -9 9 3 4 9 8 15 8
5 0 9 -4 9 -8z m6315 -5961 c7 -12 -12 -24 -25 -16 -11 7 -4 25 10 25 5 0 11
-4 15 -9z m3086 -3287 c5 -15 12 -75 15 -133 3 -58 7 -111 9 -118 6 -18 -22
-36 -47 -30 -23 6 -23 9 -24 149 0 135 4 157 29 158 4 0 12 -12 18 -26z m3537
-3465 c26 3 28 -2 5 -20 -11 -10 -14 -10 -9 -1 4 6 3 12 -3 12 -5 0 -11 -5
-13 -10 -2 -6 -9 -1 -16 11 -11 17 -11 20 0 13 7 -5 23 -7 36 -5z m139 -188
c0 -11 -5 -18 -9 -15 -4 3 -5 11 -1 19 7 21 12 19 10 -4z m-647 -31 c0 -5 -5
-10 -11 -10 -5 0 -7 5 -4 10 3 6 8 10 11 10 2 0 4 -4 4 -10z m-36 -18 c3 -5
-1 -9 -9 -9 -8 0 -12 4 -9 9 3 4 7 8 9 8 2 0 6 -4 9 -8z m686 -82 c0 -5 -2
-10 -4 -10 -3 0 -8 5 -11 10 -3 6 -1 10 4 10 6 0 11 -4 11 -10z m-1625 -88
c-3 -3 -11 0 -18 7 -9 10 -8 11 6 5 10 -3 15 -9 12 -12z m611 -27 c-4 -36 -12
-40 -12 -5 0 17 3 30 7 30 4 0 6 -11 5 -25z m-300 1 c-1 -6 -5 -17 -9 -23 -5
-7 -6 -17 -2 -22 3 -5 1 -13 -5 -16 -6 -4 -10 -3 -9 2 4 21 -2 34 -13 27 -7
-5 -8 -3 -2 7 5 8 9 17 10 22 3 13 4 14 18 14 7 0 13 -5 12 -11z m345 7 c0 -5
2 -16 4 -26 2 -11 0 -16 -3 -12 -4 4 -7 10 -7 13 0 4 -4 13 -8 20 -5 7 -4 12
2 12 6 0 11 -3 12 -7z m-426 -23 c3 -6 -1 -7 -9 -4 -18 7 -21 14 -7 14 6 0 13
-4 16 -10z m-161 -12 c-11 -18 -9 -50 4 -75 15 -27 15 -33 1 -33 -5 0 -7 5 -4
10 3 6 1 10 -5 10 -6 0 -8 5 -5 10 3 6 1 10 -6 10 -6 0 -9 8 -6 20 3 11 1 20
-4 20 -6 0 -5 8 1 20 6 11 15 20 21 20 6 0 7 -6 3 -12z m626 -33 c0 -2 -10
-10 -22 -16 -21 -11 -22 -11 -9 4 13 16 31 23 31 12z m21 -18 c-14 -14 -14
-30 -1 -22 6 3 10 1 10 -4 0 -16 -20 -13 -26 4 -4 8 -11 12 -18 8 -6 -3 -3 3
8 15 10 12 23 19 28 16 6 -4 6 -10 -1 -17z m-538 -33 c-3 -8 -9 -14 -15 -14
-5 0 -6 6 -2 13 5 8 2 7 -9 -2 -23 -18 -33 -8 -12 12 18 19 46 12 38 -9z m80
4 c-8 -10 -20 -15 -25 -12 -6 4 -5 10 2 14 9 6 8 9 -6 13 -10 3 -5 5 13 4 30
-1 31 -2 16 -19z m-133 -43 c0 -5 -5 -3 -10 5 -5 8 -10 20 -10 25 0 6 5 3 10
-5 5 -8 10 -19 10 -25z m484 -6 c-3 -6 -13 -8 -21 -5 -10 4 -13 2 -10 -8 3 -8
-2 -20 -11 -28 -15 -11 -15 -11 -5 3 7 9 9 19 5 23 -9 10 28 37 40 30 4 -3 6
-10 2 -15z m-247 4 c-4 -3 -2 -12 4 -19 6 -7 6 -14 1 -18 -6 -3 -13 1 -16 10
-6 16 0 34 11 34 4 0 3 -3 0 -7z m52 -17 c9 -11 9 -16 -1 -22 -7 -4 -10 -4 -6
1 4 4 3 14 -3 22 -6 7 -9 13 -6 13 2 0 10 -6 16 -14z m-228 -19 c1 5 1 12 0
16 -1 5 3 5 9 2 8 -5 5 -14 -7 -28 -10 -11 -13 -17 -6 -13 7 4 16 -2 22 -13 8
-14 7 -20 -4 -25 -18 -6 -30 9 -34 45 0 5 -4 8 -8 6 -5 -3 -17 4 -28 15 -19
19 -19 19 18 3 20 -8 38 -12 38 -8z m344 13 c4 -6 12 -7 18 -3 9 5 9 3 1 -8
-6 -8 -10 -22 -9 -32 3 -15 1 -16 -11 -6 -8 6 -17 9 -21 6 -3 -4 -12 -2 -19 4
-10 8 -9 14 4 30 18 21 28 24 37 9z m1098 -10 c-5 -19 -23 -39 -23 -25 0 9 20
45 24 45 2 0 2 -9 -1 -20z m-1328 1 c-3 -5 7 -19 21 -30 15 -12 22 -21 17 -21
-6 0 -16 6 -22 14 -12 14 -40 14 -60 1 -5 -3 -13 0 -17 6 -4 8 -3 9 4 5 7 -4
12 -2 12 4 0 6 10 15 23 20 29 12 29 12 22 1z m1272 -14 c0 -8 -6 -14 -14 -14
-14 0 -17 10 -6 20 10 11 20 8 20 -6z m-1164 -10 c4 3 7 4 7 1 0 -3 -8 -12
-17 -19 -10 -7 -15 -9 -11 -5 4 5 2 16 -5 25 -10 14 -10 14 4 4 9 -7 19 -10
22 -6z m-38 -6 c3 -5 2 -12 -3 -15 -5 -3 -9 1 -9 9 0 17 3 19 12 6z m-30 -41
c3 -6 -1 -7 -9 -4 -18 7 -21 14 -7 14 6 0 13 -4 16 -10z m128 -30 c-3 -12 -8
-19 -11 -16 -5 6 5 36 12 36 2 0 2 -9 -1 -20z m-18 -39 c3 -5 2 -12 -3 -15 -5
-3 -9 1 -9 9 0 17 3 19 12 6z"/>
<path d="M14486 18462 c-3 -5 1 -9 9 -9 8 0 12 4 9 9 -3 4 -7 8 -9 8 -2 0 -6
-4 -9 -8z"/>
<path d="M4569 15113 c-13 -16 -12 -17 4 -4 16 13 21 21 13 21 -2 0 -10 -8
-17 -17z"/>
<path d="M4978 15033 c7 -3 16 -2 19 1 4 3 -2 6 -13 5 -11 0 -14 -3 -6 -6z"/>
<path d="M4586 14942 c-3 -5 1 -9 9 -9 8 0 12 4 9 9 -3 4 -7 8 -9 8 -2 0 -6
-4 -9 -8z"/>
<path d="M16673 1765 c0 -8 4 -12 9 -9 5 3 6 10 3 15 -9 13 -12 11 -12 -6z"/>
<path d="M16904 1586 c1 -8 5 -18 8 -22 4 -3 5 1 4 10 -1 8 -5 18 -8 22 -4 3
-5 -1 -4 -10z"/>
<path d="M10500 19870 c0 -5 5 -10 11 -10 5 0 7 5 4 10 -3 6 -8 10 -11 10 -2
0 -4 -4 -4 -10z"/>
<path d="M10665 19405 c2 -11 4 -26 4 -32 1 -17 21 -17 21 0 0 7 -6 22 -14 33
-15 19 -15 19 -11 -1z"/>
<path d="M13363 19069 c-5 -5 -19 -11 -29 -11 -19 -2 -30 -38 -12 -38 4 0 8 7
8 15 0 8 6 12 13 10 6 -3 18 4 25 15 13 22 12 26 -5 9z"/>
<path d="M11752 18831 c-11 -7 -11 -9 0 -14 9 -3 15 1 15 9 0 8 -1 14 -1 14
-1 0 -7 -4 -14 -9z"/>
<path d="M12095 18690 c-4 -6 -10 -8 -15 -5 -9 6 -21 -20 -13 -29 4 -3 13 0
21 7 13 10 15 9 10 -4 -4 -9 -1 -16 7 -16 7 0 15 10 18 23 3 17 0 21 -11 16
-10 -3 -13 -1 -8 6 4 7 5 12 2 12 -3 0 -8 -5 -11 -10z"/>
<path d="M12145 18450 c-4 -6 -12 -7 -18 -3 -7 4 -4 -5 6 -20 21 -33 12 -36
-13 -4 -17 20 -19 20 -25 4 -11 -26 12 -48 38 -38 12 5 21 12 20 17 0 5 3 17
8 26 10 18 -5 35 -16 18z m8 -15 c-3 -9 -8 -14 -10 -11 -3 3 -2 9 2 15 9 16
15 13 8 -4z"/>
<path d="M12870 18405 c0 -9 5 -15 11 -13 6 2 11 8 11 13 0 5 -5 11 -11 13 -6
2 -11 -4 -11 -13z"/>
<path d="M12793 18378 c-11 -19 -13 -39 -2 -32 5 3 9 0 9 -6 0 -6 5 -8 11 -4
7 4 7 9 1 13 -5 3 -8 14 -6 24 3 20 -2 22 -13 5z"/>
<path d="M12714 18356 c1 -8 5 -18 8 -22 4 -3 5 1 4 10 -1 8 -5 18 -8 22 -4 3
-5 -1 -4 -10z"/>
<path d="M12100 18312 c0 -5 7 -9 15 -9 8 0 12 4 9 9 -3 4 -9 8 -15 8 -5 0 -9
-4 -9 -8z"/>
<path d="M12754 18278 c-4 -7 -4 -10 1 -6 4 4 14 3 21 -3 8 -7 14 -6 20 2 4 8
3 9 -4 5 -7 -4 -12 -2 -12 3 0 15 -17 14 -26 -1z"/>
<path d="M12700 18252 c0 -8 -5 -10 -12 -6 -7 4 -3 -3 10 -16 28 -27 33 -24
15 10 -7 14 -13 19 -13 12z"/>
<path d="M10885 18231 c-3 -6 0 -13 6 -16 6 -4 19 -21 29 -38 18 -28 19 -29
16 -6 -7 51 -35 85 -51 60z m30 -21 c10 -11 16 -20 13 -20 -3 0 -13 9 -23 20
-10 11 -16 20 -13 20 3 0 13 -9 23 -20z"/>
<path d="M12693 18210 c2 -8 12 -16 23 -17 13 -2 15 -1 4 4 -8 3 -19 11 -23
17 -6 7 -7 6 -4 -4z"/>
<path d="M12618 18096 c-10 -7 -18 -19 -18 -25 0 -7 -6 -9 -12 -5 -10 5 -10 4
-2 -5 16 -18 52 -22 50 -6 -1 8 -5 18 -9 21 -4 4 -2 13 4 21 14 16 9 16 -13
-1z m7 -25 c3 -5 2 -12 -3 -15 -5 -3 -9 1 -9 9 0 17 3 19 12 6z"/>
<path d="M12530 18091 c0 -6 4 -13 10 -16 6 -3 7 1 4 9 -7 18 -14 21 -14 7z"/>
<path d="M3736 18047 c3 -10 9 -15 12 -12 3 3 0 11 -7 18 -10 9 -11 8 -5 -6z"/>
<path d="M12542 17987 c-10 -12 -7 -16 19 -21 16 -3 28 -10 25 -15 -3 -5 4 -8
17 -7 19 1 21 4 13 22 -5 11 -16 21 -23 21 -6 0 -10 -4 -7 -9 3 -4 1 -8 -5 -8
-5 0 -14 7 -19 16 -7 13 -10 13 -20 1z"/>
<path d="M12475 17931 c-3 -5 -2 -12 3 -15 5 -3 9 1 9 9 0 17 -3 19 -12 6z"/>
<path d="M14070 17905 c-6 -8 -9 -19 -6 -24 4 -5 1 -13 -5 -17 -7 -4 -9 -3 -6
3 4 6 0 14 -9 17 -11 4 -18 -1 -21 -14 -3 -11 -9 -17 -14 -14 -5 3 -6 -1 -4
-8 8 -19 54 -21 61 -3 4 8 10 13 14 10 5 -3 12 4 15 16 4 11 13 18 20 15 8 -3
12 2 11 11 -3 21 -41 27 -56 8z m30 -3 c0 -5 -7 -9 -15 -9 -8 0 -12 4 -9 9 3
4 9 8 15 8 5 0 9 -4 9 -8z"/>
<path d="M12567 17878 c9 -10 18 -18 21 -18 3 0 2 3 -1 7 -4 3 -3 11 3 18 6 8
2 11 -15 11 -23 0 -23 -1 -8 -18z"/>
<path d="M12158 17845 c-15 -19 -15 -25 -4 -34 9 -8 16 -8 20 -2 4 5 2 12 -4
16 -16 10 -2 25 18 19 10 -4 13 -2 7 3 -5 4 -12 11 -15 15 -3 3 -13 -4 -22
-17z"/>
<path d="M12370 17857 c0 -2 6 -10 14 -16 11 -9 16 -9 22 1 4 7 4 10 -1 6 -4
-4 -14 -3 -22 3 -7 6 -13 9 -13 6z"/>
<path d="M12065 17841 c-3 -5 -2 -12 3 -15 5 -3 9 1 9 9 0 17 -3 19 -12 6z"/>
<path d="M12214 17828 c0 -16 2 -16 18 -1 10 9 18 17 18 17 0 1 -8 2 -18 2
-10 0 -18 -8 -18 -18z"/>
<path d="M12589 17823 c-13 -16 -12 -17 4 -4 9 7 17 15 17 17 0 8 -8 3 -21
-13z"/>
<path d="M11950 17714 c0 -8 5 -12 10 -9 6 4 8 11 5 16 -9 14 -15 11 -15 -7z"/>
<path d="M11392 17707 c-10 -11 -9 -17 5 -28 17 -13 17 -13 3 5 -14 18 -13 19
2 13 10 -3 20 -1 24 5 4 6 3 8 -4 4 -5 -3 -12 -1 -14 5 -2 7 -8 6 -16 -4z"/>
<path d="M3680 17372 c0 -4 9 -8 20 -9 11 -1 20 2 20 8 0 5 -9 9 -20 9 -11 0
-20 -4 -20 -8z"/>
<path d="M12630 17336 c0 -2 7 -6 15 -10 8 -3 15 -1 15 4 0 6 -7 10 -15 10 -8
0 -15 -2 -15 -4z"/>
<path d="M4733 16965 c0 -8 4 -12 9 -9 5 3 6 10 3 15 -9 13 -12 11 -12 -6z"/>
<path d="M4725 16930 c-4 -6 -10 -8 -14 -6 -4 3 -8 -1 -8 -9 0 -13 4 -12 19 2
18 16 22 23 14 23 -3 0 -8 -5 -11 -10z"/>
<path d="M4730 16905 c-7 -8 -10 -15 -6 -15 3 0 1 -11 -4 -24 -6 -18 -5 -28 6
-36 7 -7 14 -19 14 -27 0 -9 5 -11 13 -7 9 6 9 4 -1 -8 -11 -14 -10 -18 5 -27
10 -6 12 -11 6 -11 -9 0 -7 -6 5 -18 9 -10 18 -18 20 -16 6 4 49 -41 61 -63 6
-13 17 -23 24 -23 8 0 9 3 1 8 -6 4 -17 20 -25 36 -8 16 -18 29 -24 29 -5 0
-16 14 -23 31 -8 17 -20 43 -28 58 -8 14 -14 33 -14 41 0 9 -6 22 -13 29 -14
15 -15 27 -4 46 11 17 2 15 -13 -3z"/>
<path d="M5496 16811 c-4 -5 -2 -12 3 -15 5 -4 12 -2 15 3 4 5 2 12 -3 15 -5
4 -12 2 -15 -3z"/>
<path d="M3929 16617 c7 -9 17 -15 21 -12 5 3 11 0 13 -5 3 -6 4 -5 3 2 -2 7
-7 13 -12 13 -5 0 -16 4 -24 10 -13 8 -13 7 -1 -8z"/>
<path d="M5649 16583 c-13 -16 -12 -17 4 -4 9 7 17 15 17 17 0 8 -8 3 -21 -13z"/>
<path d="M3390 16579 c0 -5 -4 -8 -8 -5 -5 3 -8 -5 -7 -17 2 -22 5 -23 28 -13
9 5 9 7 0 12 -7 3 -9 12 -6 20 3 8 2 14 -1 14 -3 0 -6 -5 -6 -11z"/>
<path d="M4956 16452 c-3 -5 1 -9 9 -9 8 0 12 4 9 9 -3 4 -7 8 -9 8 -2 0 -6
-4 -9 -8z"/>
<path d="M4746 16413 c-6 -14 -5 -15 5 -6 7 7 10 15 7 18 -3 3 -9 -2 -12 -12z"/>
<path d="M3486 16351 c-4 -5 -2 -12 3 -15 5 -4 12 -2 15 3 4 5 2 12 -3 15 -5
4 -12 2 -15 -3z"/>
<path d="M3531 16237 c2 -2 11 -8 20 -15 12 -9 16 -9 16 1 0 7 -9 14 -20 14
-11 1 -18 1 -16 0z"/>
<path d="M4615 16191 c-3 -5 -2 -12 3 -15 5 -3 9 1 9 9 0 17 -3 19 -12 6z"/>
<path d="M3420 16130 c0 -5 5 -10 11 -10 5 0 7 5 4 10 -3 6 -8 10 -11 10 -2 0
-4 -4 -4 -10z"/>
<path d="M3517 15819 c7 -7 15 -10 18 -7 3 3 -2 9 -12 12 -14 6 -15 5 -6 -5z"/>
<path d="M4336 15688 c3 -5 10 -6 15 -3 13 9 11 12 -6 12 -8 0 -12 -4 -9 -9z"/>
<path d="M4296 15662 c6 -4 10 -15 8 -25 -1 -9 1 -15 6 -12 11 7 31 -20 22
-30 -4 -5 -2 -5 5 -2 6 4 10 14 9 22 -3 18 -36 55 -50 55 -8 0 -8 -2 0 -8z
m35 -29 c13 -16 12 -17 -3 -4 -10 7 -18 15 -18 17 0 8 8 3 21 -13z"/>
<path d="M4229 15649 c-11 -7 -10 -9 4 -9 12 0 16 -4 11 -12 -5 -9 -2 -9 9 1
20 16 21 17 4 24 -8 3 -20 1 -28 -4z"/>
<path d="M3700 15636 c0 -8 -6 -17 -12 -19 -8 -3 -5 -6 6 -6 16 -1 17 -3 5
-18 -11 -15 -10 -14 9 1 23 20 30 32 10 20 -8 -5 -9 -2 -5 9 3 9 2 19 -3 22
-6 4 -10 0 -10 -9z"/>
<path d="M17656 2292 c-3 -5 1 -9 9 -9 8 0 12 4 9 9 -3 4 -7 8 -9 8 -2 0 -6
-4 -9 -8z"/>
<path d="M17401 2106 c-9 -10 -7 -17 6 -27 16 -12 17 -12 6 2 -10 12 -10 18
-1 27 7 7 9 12 6 12 -3 0 -11 -6 -17 -14z"/>
<path d="M17443 2105 c-16 -18 -17 -28 -1 -19 8 5 9 2 5 -9 -4 -11 -1 -17 7
-17 21 0 27 12 13 28 -9 13 -9 14 0 8 9 -5 11 -2 7 8 -7 19 -15 20 -31 1z"/>
<path d="M17363 1915 c0 -8 4 -12 9 -9 4 3 8 9 8 15 0 5 -4 9 -8 9 -5 0 -9 -7
-9 -15z"/>
<path d="M17770 1840 c-8 -15 -8 -18 3 -14 8 3 14 11 14 19 0 20 -4 19 -17 -5z"/>
<path d="M17171 1813 c4 -22 -2 -35 -14 -30 -8 3 -20 1 -28 -4 -12 -7 19 -7
51 0 10 2 9 41 -1 41 -5 0 -8 -3 -8 -7z"/>
<path d="M17265 1809 c-4 -6 -13 -8 -21 -5 -8 3 -14 -1 -14 -9 0 -22 23 -18
38 5 7 11 10 20 8 20 -3 0 -8 -5 -11 -11z"/>
<path d="M17685 1780 c-3 -5 -3 -10 2 -11 4 0 16 -2 26 -4 9 -2 15 0 12 5 -3
5 1 11 7 13 7 3 1 6 -14 6 -15 1 -30 -3 -33 -9z"/>
<path d="M17651 1751 c-10 -6 -10 -10 -1 -16 13 -8 24 -1 19 14 -3 6 -10 7
-18 2z"/>
<path d="M17896 1727 c3 -10 9 -15 12 -12 3 3 0 11 -7 18 -10 9 -11 8 -5 -6z"/>
<path d="M17785 1721 c-3 -5 -1 -12 4 -15 5 -3 11 1 15 9 6 16 -9 21 -19 6z"/>
<path d="M17024 1576 l-28 -23 30 2 c16 2 33 3 38 4 5 1 3 7 -3 14 -6 8 -8 17
-4 20 17 18 -9 4 -33 -17z"/>
<path d="M17860 1384 c-11 -12 -11 -15 0 -12 8 2 14 -3 15 -9 0 -7 3 -13 8
-13 4 0 10 0 14 0 3 0 -1 8 -10 18 -10 10 -14 22 -10 25 3 4 4 7 1 7 -3 0 -11
-7 -18 -16z"/>
</g>
</svg>
