<?xml version="1.0" encoding="UTF-8"?>
<!DOCTYPE svg PUBLIC "-//W3C//DTD SVG 1.1//EN" "http://www.w3.org/Graphics/SVG/1.1/DTD/svg11.dtd">
<svg xmlns="http://www.w3.org/2000/svg" version="1.1" width="128px" height="128px" style="shape-rendering:geometricPrecision; text-rendering:geometricPrecision; image-rendering:optimizeQuality; fill-rule:evenodd; clip-rule:evenodd" xmlns:xlink="http://www.w3.org/1999/xlink">
<g><path style="opacity:0.966" fill="#8D8D8E" d="M 51.5,-0.5 C 59.5,-0.5 67.5,-0.5 75.5,-0.5C 103.14,6.47339 120.473,23.8067 127.5,51.5C 127.5,59.5 127.5,67.5 127.5,75.5C 120.385,103.615 102.718,120.949 74.5,127.5C 67.1667,127.5 59.8333,127.5 52.5,127.5C 24.2553,120.922 6.58864,103.588 -0.5,75.5C -0.5,67.5 -0.5,59.5 -0.5,51.5C 6.5266,23.8067 23.8599,6.47339 51.5,-0.5 Z M 87.5,38.5 C 91.4905,37.8238 93.1571,39.4905 92.5,43.5C 90.4331,59.2348 87.9331,74.9015 85,90.5C 84.3763,92.754 83.043,94.4206 81,95.5C 71.1474,90.6685 62.3141,84.5019 54.5,77C 60.9877,69.179 68.1543,62.0123 76,55.5C 76.6987,53.9262 76.3654,52.5929 75,51.5C 64.2181,58.471 53.3847,65.3043 42.5,72C 38.4463,71.9911 34.4463,71.3244 30.5,70C 28.0031,69.5883 26.0031,68.4216 24.5,66.5C 26.4566,64.5152 28.7899,63.0152 31.5,62C 50.1451,53.8487 68.8118,46.0154 87.5,38.5 Z"/></g>
</svg>
