<?xml version="1.0" encoding="UTF-8"?>
<!DOCTYPE svg PUBLIC "-//W3C//DTD SVG 1.1//EN" "http://www.w3.org/Graphics/SVG/1.1/DTD/svg11.dtd">
<svg xmlns="http://www.w3.org/2000/svg" version="1.1" width="41px" height="41px" style="shape-rendering:geometricPrecision; text-rendering:geometricPrecision; image-rendering:optimizeQuality; fill-rule:evenodd; clip-rule:evenodd" xmlns:xlink="http://www.w3.org/1999/xlink">
<g><path style="opacity:1" fill="#f3f6fb" d="M -0.5,-0.5 C 1.83333,-0.5 4.16667,-0.5 6.5,-0.5C 5.39977,0.558465 4.06644,1.3918 2.5,2C 1.60064,3.65161 0.60064,5.15161 -0.5,6.5C -0.5,4.16667 -0.5,1.83333 -0.5,-0.5 Z"/></g>
<g><path style="opacity:1" fill="#527dd0" d="M 6.5,-0.5 C 15.1667,-0.5 23.8333,-0.5 32.5,-0.5C 34.2608,0.312714 35.9275,1.31271 37.5,2.5C 36.6981,3.95161 36.1981,5.61828 36,7.5C 34.5952,8.73052 33.4286,10.0639 32.5,11.5C 32.5,9.5 32.5,7.5 32.5,5.5C 23.0829,4.91676 18.7496,9.25009 19.5,18.5C 19.8134,15.7531 19.48,13.0865 18.5,10.5C 8.59567,12.4144 2.26234,18.0811 -0.5,27.5C -0.5,20.5 -0.5,13.5 -0.5,6.5C 0.60064,5.15161 1.60064,3.65161 2.5,2C 4.06644,1.3918 5.39977,0.558465 6.5,-0.5 Z"/></g>
<g><path style="opacity:1" fill="#edf0f8" d="M 32.5,-0.5 C 35.1667,-0.5 37.8333,-0.5 40.5,-0.5C 40.5,1.83333 40.5,4.16667 40.5,6.5C 39.5116,5.20498 38.5116,3.87165 37.5,2.5C 35.9275,1.31271 34.2608,0.312714 32.5,-0.5 Z"/></g>
<g><path style="opacity:1" fill="#3965b9" d="M 37.5,2.5 C 38.5116,3.87165 39.5116,5.20498 40.5,6.5C 40.5,8.83333 40.5,11.1667 40.5,13.5C 38.6813,16.6547 36.0146,18.6547 32.5,19.5C 30.7354,18.5386 28.7354,18.2053 26.5,18.5C 26.5,16.5 26.5,14.5 26.5,12.5C 28.7354,12.7947 30.7354,12.4614 32.5,11.5C 33.4286,10.0639 34.5952,8.73052 36,7.5C 36.1981,5.61828 36.6981,3.95161 37.5,2.5 Z"/></g>
<g><path style="opacity:1" fill="#f1f4f9" d="M 32.5,11.5 C 30.7354,12.4614 28.7354,12.7947 26.5,12.5C 26.5,14.5 26.5,16.5 26.5,18.5C 28.7354,18.2053 30.7354,18.5386 32.5,19.5C 31.8505,21.4352 31.5172,23.4352 31.5,25.5C 29.8333,25.5 28.1667,25.5 26.5,25.5C 26.5,30.5 26.5,35.5 26.5,40.5C 24.1667,40.5 21.8333,40.5 19.5,40.5C 19.5,35.5 19.5,30.5 19.5,25.5C 14.6724,25.6148 13.3391,23.4481 15.5,19C 16.7932,18.51 18.1266,18.3433 19.5,18.5C 18.7496,9.25009 23.0829,4.91676 32.5,5.5C 32.5,7.5 32.5,9.5 32.5,11.5 Z"/></g>
<g><path style="opacity:1" fill="#3764b9" d="M 19.5,18.5 C 18.1266,18.3433 16.7932,18.51 15.5,19C 13.3391,23.4481 14.6724,25.6148 19.5,25.5C 19.5,30.5 19.5,35.5 19.5,40.5C 15.1667,40.5 10.8333,40.5 6.5,40.5C 3.83333,38.5 1.5,36.1667 -0.5,33.5C -0.5,31.5 -0.5,29.5 -0.5,27.5C 2.26234,18.0811 8.59567,12.4144 18.5,10.5C 19.48,13.0865 19.8134,15.7531 19.5,18.5 Z"/></g>
<g><path style="opacity:1" fill="#214ca0" d="M 40.5,13.5 C 40.5,19.8333 40.5,26.1667 40.5,32.5C 38.8333,36.1667 36.1667,38.8333 32.5,40.5C 30.5,40.5 28.5,40.5 26.5,40.5C 26.5,35.5 26.5,30.5 26.5,25.5C 28.1667,25.5 29.8333,25.5 31.5,25.5C 31.5172,23.4352 31.8505,21.4352 32.5,19.5C 36.0146,18.6547 38.6813,16.6547 40.5,13.5 Z"/></g>
<g><path style="opacity:1" fill="#ecf0f8" d="M -0.5,33.5 C 1.5,36.1667 3.83333,38.5 6.5,40.5C 4.16667,40.5 1.83333,40.5 -0.5,40.5C -0.5,38.1667 -0.5,35.8333 -0.5,33.5 Z"/></g>
<g><path style="opacity:1" fill="#e8ecf5" d="M 40.5,32.5 C 40.5,35.1667 40.5,37.8333 40.5,40.5C 37.8333,40.5 35.1667,40.5 32.5,40.5C 36.1667,38.8333 38.8333,36.1667 40.5,32.5 Z"/></g>
</svg>
