<?xml version="1.0" encoding="UTF-8"?>
<!DOCTYPE svg PUBLIC "-//W3C//DTD SVG 1.1//EN" "http://www.w3.org/Graphics/SVG/1.1/DTD/svg11.dtd">
<svg xmlns="http://www.w3.org/2000/svg" version="1.1" width="41px" height="41px" style="shape-rendering:geometricPrecision; text-rendering:geometricPrecision; image-rendering:optimizeQuality; fill-rule:evenodd; clip-rule:evenodd" xmlns:xlink="http://www.w3.org/1999/xlink">
<g><path style="opacity:1" fill="#f2f2f2" d="M -0.5,-0.5 C 1.83333,-0.5 4.16667,-0.5 6.5,-0.5C 5.39977,0.558465 4.06644,1.3918 2.5,2C 1.60064,3.65161 0.60064,5.15161 -0.5,6.5C -0.5,4.16667 -0.5,1.83333 -0.5,-0.5 Z"/></g>
<g><path style="opacity:1" fill="#454545" d="M 6.5,-0.5 C 15.1667,-0.5 23.8333,-0.5 32.5,-0.5C 35.7608,1.09021 38.4274,3.42355 40.5,6.5C 40.5,8.83333 40.5,11.1667 40.5,13.5C 37.7565,16.236 35.4231,19.236 33.5,22.5C 34.5154,14.3515 31.1821,8.85155 23.5,6C 14.4496,5.02674 8.44957,8.86007 5.5,17.5C 2.46246,20.2467 0.462464,23.5801 -0.5,27.5C -0.5,20.5 -0.5,13.5 -0.5,6.5C 0.60064,5.15161 1.60064,3.65161 2.5,2C 4.06644,1.3918 5.39977,0.558465 6.5,-0.5 Z"/></g>
<g><path style="opacity:1" fill="#e7e7e7" d="M 32.5,-0.5 C 35.1667,-0.5 37.8333,-0.5 40.5,-0.5C 40.5,1.83333 40.5,4.16667 40.5,6.5C 38.4274,3.42355 35.7608,1.09021 32.5,-0.5 Z"/></g>
<g><path style="opacity:1" fill="#ededed" d="M 33.5,22.5 C 32.4586,28.2082 29.1253,31.5415 23.5,32.5C 23.5,30.5 23.5,28.5 23.5,26.5C 24.8664,24.7287 26.3664,23.0621 28,21.5C 28.3876,18.1508 28.2209,14.8175 27.5,11.5C 22.5,12.8333 17.5,12.8333 12.5,11.5C 11.7166,15.1458 11.5499,18.8125 12,22.5C 13.6349,23.7256 15.1349,25.059 16.5,26.5C 16,26.8333 15.5,27.1667 15,27.5C 10.1056,24.6869 9.60557,25.1869 13.5,29C 14.448,29.4828 15.448,29.6495 16.5,29.5C 16.5,30.5 16.5,31.5 16.5,32.5C 8.74877,30.7148 5.0821,25.7148 5.5,17.5C 8.44957,8.86007 14.4496,5.02674 23.5,6C 31.1821,8.85155 34.5154,14.3515 33.5,22.5 Z"/></g>
<g><path style="opacity:1" fill="#303030" d="M 23.5,26.5 C 22.603,25.4019 21.7697,25.4019 21,26.5C 19.5947,33.3606 22.0947,38.0273 28.5,40.5C 21.1667,40.5 13.8333,40.5 6.5,40.5C 3.42355,38.4274 1.09021,35.7608 -0.5,32.5C -0.5,30.8333 -0.5,29.1667 -0.5,27.5C 0.462464,23.5801 2.46246,20.2467 5.5,17.5C 5.0821,25.7148 8.74877,30.7148 16.5,32.5C 16.5,31.5 16.5,30.5 16.5,29.5C 15.448,29.6495 14.448,29.4828 13.5,29C 9.60557,25.1869 10.1056,24.6869 15,27.5C 15.5,27.1667 16,26.8333 16.5,26.5C 15.1349,25.059 13.6349,23.7256 12,22.5C 11.5499,18.8125 11.7166,15.1458 12.5,11.5C 17.5,12.8333 22.5,12.8333 27.5,11.5C 28.2209,14.8175 28.3876,18.1508 28,21.5C 26.3664,23.0621 24.8664,24.7287 23.5,26.5 Z"/></g>
<g><path style="opacity:1" fill="#161616" d="M 40.5,13.5 C 40.5,19.8333 40.5,26.1667 40.5,32.5C 38.8333,36.1667 36.1667,38.8333 32.5,40.5C 31.1667,40.5 29.8333,40.5 28.5,40.5C 22.0947,38.0273 19.5947,33.3606 21,26.5C 21.7697,25.4019 22.603,25.4019 23.5,26.5C 23.5,28.5 23.5,30.5 23.5,32.5C 29.1253,31.5415 32.4586,28.2082 33.5,22.5C 35.4231,19.236 37.7565,16.236 40.5,13.5 Z"/></g>
<g><path style="opacity:1" fill="#e7e7e7" d="M -0.5,32.5 C 1.09021,35.7608 3.42355,38.4274 6.5,40.5C 4.16667,40.5 1.83333,40.5 -0.5,40.5C -0.5,37.8333 -0.5,35.1667 -0.5,32.5 Z"/></g>
<g><path style="opacity:1" fill="#e6e6e6" d="M 40.5,32.5 C 40.5,35.1667 40.5,37.8333 40.5,40.5C 37.8333,40.5 35.1667,40.5 32.5,40.5C 36.1667,38.8333 38.8333,36.1667 40.5,32.5 Z"/></g>
</svg>
