<?xml version="1.0" encoding="UTF-8"?>
<!DOCTYPE svg PUBLIC "-//W3C//DTD SVG 1.1//EN" "http://www.w3.org/Graphics/SVG/1.1/DTD/svg11.dtd">
<svg xmlns="http://www.w3.org/2000/svg" version="1.1" width="41px" height="41px" style="shape-rendering:geometricPrecision; text-rendering:geometricPrecision; image-rendering:optimizeQuality; fill-rule:evenodd; clip-rule:evenodd" xmlns:xlink="http://www.w3.org/1999/xlink">
<g><path style="opacity:1" fill="#fff5f4" d="M -0.5,-0.5 C 1.83333,-0.5 4.16667,-0.5 6.5,-0.5C 5.39977,0.558465 4.06644,1.3918 2.5,2C 1.60064,3.65161 0.60064,5.15161 -0.5,6.5C -0.5,4.16667 -0.5,1.83333 -0.5,-0.5 Z"/></g>
<g><path style="opacity:1" fill="#ff796e" d="M 6.5,-0.5 C 15.1667,-0.5 23.8333,-0.5 32.5,-0.5C 32.8417,0.338246 33.5084,0.67158 34.5,0.5C 35.6567,3.30739 35.6567,5.97406 34.5,8.5C 32.8867,6.73042 30.8867,5.56375 28.5,5C 22.5,4.33333 16.5,4.33333 10.5,5C 5.13715,7.91047 3.13715,12.4105 4.5,18.5C 2.08551,20.34 0.41884,22.6733 -0.5,25.5C -0.5,19.1667 -0.5,12.8333 -0.5,6.5C 0.60064,5.15161 1.60064,3.65161 2.5,2C 4.06644,1.3918 5.39977,0.558465 6.5,-0.5 Z"/></g>
<g><path style="opacity:1" fill="#ffedef" d="M 32.5,-0.5 C 35.1667,-0.5 37.8333,-0.5 40.5,-0.5C 40.5,1.83333 40.5,4.16667 40.5,6.5C 38.9474,4.06991 36.9474,2.06991 34.5,0.5C 33.5084,0.67158 32.8417,0.338246 32.5,-0.5 Z"/></g>
<g><path style="opacity:1" fill="#ffe8ea" d="M 34.5,8.5 C 35.589,15.1167 35.7557,21.7834 35,28.5C 32.3157,34.0939 27.8157,36.4272 21.5,35.5C 8.18881,37.5222 2.52215,31.8555 4.5,18.5C 3.13715,12.4105 5.13715,7.91047 10.5,5C 16.5,4.33333 22.5,4.33333 28.5,5C 30.8867,5.56375 32.8867,6.73042 34.5,8.5 Z"/></g>
<g><path style="opacity:1" fill="#ff796e" d="M 32.5,11.5 C 31.5,11.5 30.5,11.5 29.5,11.5C 28.791,10.596 27.791,10.2627 26.5,10.5C 19.6919,9.80922 13.3586,11.1426 7.5,14.5C 7.08073,11.6755 8.08073,9.50879 10.5,8C 16.8333,7.33333 23.1667,7.33333 29.5,8C 30.7101,9.0391 31.7101,10.2058 32.5,11.5 Z"/></g>
<g><path style="opacity:1" fill="#ffe6e8" d="M 26.5,10.5 C 27.791,10.2627 28.791,10.596 29.5,11.5C 29.1788,13.0481 28.1788,13.7148 26.5,13.5C 26.5,12.5 26.5,11.5 26.5,10.5 Z"/></g>
<g><path style="opacity:1" fill="#ff425a" d="M 26.5,10.5 C 26.5,11.5 26.5,12.5 26.5,13.5C 28.1788,13.7148 29.1788,13.0481 29.5,11.5C 30.5,11.5 31.5,11.5 32.5,11.5C 32.5,14.1667 32.5,16.8333 32.5,19.5C 30.8333,19.5 29.1667,19.5 27.5,19.5C 26.2402,13.4253 22.5735,11.2586 16.5,13C 11.1667,17.6667 11.1667,22.3333 16.5,27C 17.448,27.4828 18.448,27.6495 19.5,27.5C 19.5,29.1667 19.5,30.8333 19.5,32.5C 16.4816,32.6646 13.4816,32.498 10.5,32C 9.66667,31.1667 8.83333,30.3333 8,29.5C 7.50074,24.5111 7.33407,19.5111 7.5,14.5C 13.3586,11.1426 19.6919,9.80922 26.5,10.5 Z"/></g>
<g><path style="opacity:1" fill="#ffeef0" d="M 27.5,19.5 C 27.1667,24.5 24.5,27.1667 19.5,27.5C 18.448,27.6495 17.448,27.4828 16.5,27C 11.1667,22.3333 11.1667,17.6667 16.5,13C 22.5735,11.2586 26.2402,13.4253 27.5,19.5 Z"/></g>
<g><path style="opacity:1" fill="#e71f4e" d="M 34.5,0.5 C 36.9474,2.06991 38.9474,4.06991 40.5,6.5C 40.5,15.5 40.5,24.5 40.5,33.5C 38.5,36.1667 36.1667,38.5 33.5,40.5C 31.1667,40.5 28.8333,40.5 26.5,40.5C 24.5273,39.194 22.8606,37.5273 21.5,35.5C 27.8157,36.4272 32.3157,34.0939 35,28.5C 35.7557,21.7834 35.589,15.1167 34.5,8.5C 35.6567,5.97406 35.6567,3.30739 34.5,0.5 Z"/></g>
<g><path style="opacity:1" fill="#fe4a5f" d="M 18.5,14.5 C 24.3775,15.242 26.0442,18.4087 23.5,24C 18.9666,25.6279 15.9666,24.2945 14.5,20C 15.0074,17.4547 16.3407,15.6214 18.5,14.5 Z"/></g>
<g><path style="opacity:1" fill="#ff3e58" d="M 4.5,18.5 C 2.52215,31.8555 8.18881,37.5222 21.5,35.5C 22.8606,37.5273 24.5273,39.194 26.5,40.5C 19.8333,40.5 13.1667,40.5 6.5,40.5C 5.39977,39.4415 4.06644,38.6082 2.5,38C 1.60064,36.3484 0.60064,34.8484 -0.5,33.5C -0.5,30.8333 -0.5,28.1667 -0.5,25.5C 0.41884,22.6733 2.08551,20.34 4.5,18.5 Z"/></g>
<g><path style="opacity:1" fill="#e2124b" d="M 27.5,19.5 C 29.1667,19.5 30.8333,19.5 32.5,19.5C 34.5,30.1667 30.1667,34.5 19.5,32.5C 19.5,30.8333 19.5,29.1667 19.5,27.5C 24.5,27.1667 27.1667,24.5 27.5,19.5 Z"/></g>
<g><path style="opacity:1" fill="#fff4f5" d="M -0.5,33.5 C 0.60064,34.8484 1.60064,36.3484 2.5,38C 4.06644,38.6082 5.39977,39.4415 6.5,40.5C 4.16667,40.5 1.83333,40.5 -0.5,40.5C -0.5,38.1667 -0.5,35.8333 -0.5,33.5 Z"/></g>
<g><path style="opacity:1" fill="#fdecf1" d="M 40.5,33.5 C 40.5,35.8333 40.5,38.1667 40.5,40.5C 38.1667,40.5 35.8333,40.5 33.5,40.5C 36.1667,38.5 38.5,36.1667 40.5,33.5 Z"/></g>
</svg>
