<?xml version="1.0" encoding="UTF-8"?>
<!DOCTYPE svg PUBLIC "-//W3C//DTD SVG 1.1//EN" "http://www.w3.org/Graphics/SVG/1.1/DTD/svg11.dtd">
<svg xmlns="http://www.w3.org/2000/svg" version="1.1" width="41px" height="41px" style="shape-rendering:geometricPrecision; text-rendering:geometricPrecision; image-rendering:optimizeQuality; fill-rule:evenodd; clip-rule:evenodd" xmlns:xlink="http://www.w3.org/1999/xlink">
<g><path style="opacity:1" fill="#f7fcfe" d="M -0.5,-0.5 C 1.5,-0.5 3.5,-0.5 5.5,-0.5C 3.16667,1.16667 1.16667,3.16667 -0.5,5.5C -0.5,3.5 -0.5,1.5 -0.5,-0.5 Z"/></g>
<g><path style="opacity:1" fill="#34b3fd" d="M 5.5,-0.5 C 14.5,-0.5 23.5,-0.5 32.5,-0.5C 32.5,0.166667 32.8333,0.5 33.5,0.5C 35.3907,2.83574 35.8907,5.5024 35,8.5C 33.8904,10.0368 32.3904,10.7035 30.5,10.5C 28.7085,10.366 27.0418,10.6993 25.5,11.5C 17.9198,9.65324 11.0865,11.3199 5,16.5C 2.91313,19.0703 1.0798,21.737 -0.5,24.5C -0.5,18.1667 -0.5,11.8333 -0.5,5.5C 1.16667,3.16667 3.16667,1.16667 5.5,-0.5 Z"/></g>
<g><path style="opacity:1" fill="#eff7fc" d="M 32.5,-0.5 C 35.1667,-0.5 37.8333,-0.5 40.5,-0.5C 40.5,1.83333 40.5,4.16667 40.5,6.5C 39.4284,3.09922 37.0951,1.09922 33.5,0.5C 32.8333,0.5 32.5,0.166667 32.5,-0.5 Z"/></g>
<g><path style="opacity:1" fill="#2b9fdf" d="M 33.5,0.5 C 37.0951,1.09922 39.4284,3.09922 40.5,6.5C 40.5,8.83333 40.5,11.1667 40.5,13.5C 37.7965,17.3648 34.1298,20.0314 29.5,21.5C 30.1143,17.8648 30.4476,14.1981 30.5,10.5C 32.3904,10.7035 33.8904,10.0368 35,8.5C 35.8907,5.5024 35.3907,2.83574 33.5,0.5 Z"/></g>
<g><path style="opacity:1" fill="#f5f9fc" d="M 30.5,10.5 C 30.4476,14.1981 30.1143,17.8648 29.5,21.5C 29.0624,25.0723 28.3958,28.5723 27.5,32C 26.5,32.6667 25.5,32.6667 24.5,32C 23.5291,30.5187 22.1958,29.6854 20.5,29.5C 19.3515,27.8506 18.0182,26.3506 16.5,25C 18.3208,21.8458 20.8208,19.3458 24,17.5C 24.6667,16.8333 24.6667,16.1667 24,15.5C 19.684,20.0769 14.5173,22.5769 8.5,23C 6.95594,22.7104 5.62261,22.0437 4.5,21C 11.285,17.3498 18.285,14.1831 25.5,11.5C 27.0418,10.6993 28.7085,10.366 30.5,10.5 Z"/></g>
<g><path style="opacity:1" fill="#229ddf" d="M 25.5,11.5 C 18.285,14.1831 11.285,17.3498 4.5,21C 5.62261,22.0437 6.95594,22.7104 8.5,23C 14.5173,22.5769 19.684,20.0769 24,15.5C 24.6667,16.1667 24.6667,16.8333 24,17.5C 20.8208,19.3458 18.3208,21.8458 16.5,25C 18.0182,26.3506 19.3515,27.8506 20.5,29.5C 20.4742,35.8376 23.4742,39.5043 29.5,40.5C 21.8333,40.5 14.1667,40.5 6.5,40.5C 5.39977,39.4415 4.06644,38.6082 2.5,38C 1.60064,36.3484 0.60064,34.8484 -0.5,33.5C -0.5,30.5 -0.5,27.5 -0.5,24.5C 1.0798,21.737 2.91313,19.0703 5,16.5C 11.0865,11.3199 17.9198,9.65324 25.5,11.5 Z"/></g>
<g><path style="opacity:1" fill="#0683be" d="M 40.5,13.5 C 40.5,19.8333 40.5,26.1667 40.5,32.5C 38.9098,35.7608 36.5765,38.4274 33.5,40.5C 32.1667,40.5 30.8333,40.5 29.5,40.5C 23.4742,39.5043 20.4742,35.8376 20.5,29.5C 22.1958,29.6854 23.5291,30.5187 24.5,32C 25.5,32.6667 26.5,32.6667 27.5,32C 28.3958,28.5723 29.0624,25.0723 29.5,21.5C 34.1298,20.0314 37.7965,17.3648 40.5,13.5 Z"/></g>
<g><path style="opacity:1" fill="#f2f9fd" d="M -0.5,33.5 C 0.60064,34.8484 1.60064,36.3484 2.5,38C 4.06644,38.6082 5.39977,39.4415 6.5,40.5C 4.16667,40.5 1.83333,40.5 -0.5,40.5C -0.5,38.1667 -0.5,35.8333 -0.5,33.5 Z"/></g>
<g><path style="opacity:1" fill="#e9f3f9" d="M 40.5,32.5 C 40.5,35.1667 40.5,37.8333 40.5,40.5C 38.1667,40.5 35.8333,40.5 33.5,40.5C 36.5765,38.4274 38.9098,35.7608 40.5,32.5 Z"/></g>
</svg>
